<?xml version="1.0" standalone="no"?>
<!DOCTYPE svg PUBLIC "-//W3C//DTD SVG 1.1//EN" "http://www.w3.org/Graphics/SVG/1.1/DTD/svg11.dtd" >
<svg>
<metadata>
Created by FontForge 20090622 at Mon Oct  1 13:40:16 2018
 By deploy user
Misses &#194;&#169; 7NTypes. 2018. All Rights Reserved
</metadata>
<defs>
<font id="Misses" horiz-adv-x="512" >
  <font-face 
    font-family="Misses"
    font-weight="400"
    font-stretch="normal"
    units-per-em="2048"
    panose-1="2 0 5 0 0 0 0 0 0 0"
    ascent="1638"
    descent="-410"
    x-height="964"
    cap-height="1512"
    bbox="-3499 -765 4548 2091"
    underline-thickness="150"
    underline-position="-142"
    unicode-range="U+001D-U+E0C9"
  />
<missing-glyph horiz-adv-x="1024" 
 />
    <glyph glyph-name="uniE0A3" unicode="Misses" horiz-adv-x="4439" 
d="M2480 1286q250 0 629 131q178 61 335 94q-6 151 -93 260q-93 117 -285 117q-329 -1 -481 -400q-17 -46 -52 -46q-30 0 -47 42q-24 61 -67 95t-100 35q-36 0 -67.5 -14.5t-51.5 -45t-20 -80.5q0 -41 29.5 -85t95.5 -73.5t175 -29.5zM3423 486q103 8 162 74q56 63 56 154
q0 89 -51 89q-77 0 -124 -125q-37 -97 -43 -192zM2918 -21q42 0 42 60t-28 125q-57 -51 -57 -117q0 -25 12 -46.5t31 -21.5zM2389 -137q22 0 40.5 16t25 39.5t6.5 45.5q0 78 -38 168q-58 -53 -78.5 -85t-20.5 -85q0 -99 65 -99zM4115 -137q22 0 40.5 16t25 39.5t6.5 45.5
q0 78 -38 168q-58 -53 -78.5 -85t-20.5 -85q0 -99 65 -99zM4107 -225q-43 0 -82 20t-64 63.5t-25 111.5q0 62 30 111q37 62 135 144l-55 93q-70 115 -102 185q-108 -303 -302 -413q-76 -43 -167 -43q-147 0 -222.5 87.5t-79.5 229.5q-35 -39 -92 -87q25 -86 25 -173
q0 -88 -51 -148.5t-142 -60.5q-64 0 -107.5 44t-43.5 111q0 105 94 181l31 24q-21 41 -46 82q-61 104 -89 167q-45 -97 -109 -167q-38 -42 -75 -78q33 -107 33 -195q0 -74 -18 -140.5t-71.5 -107.5t-130.5 -41q-43 0 -82 20t-64 63.5t-25 111.5q0 62 30 111q37 62 135 144
l-54 93q-70 112 -104 188l-23 -67q-151 -432 -313 -432q-127 0 -183 165q-44 130 -44 327q0 359 45 420q33 45 123 45q64 0 90 -18t26 -59q0 -18 -3 -40q-4 -29 -13.5 -121.5t-18 -210t-8.5 -213.5q0 -158 29 -158q47 0 133 195q69 156 112 301q-14 59 -14 123
q0 131 77.5 202.5t194.5 71.5q38 0 60 -3.5t38 -13t16 -28.5q0 -43 -69 -47q-43 -3 -73 -30t-30 -75q0 -81 32.5 -169.5t75.5 -182.5q29 -64 56 -131l49 49q81 80 116 195l12 39q-3 22 -3 43q0 138 75.5 206t176.5 68q18 0 40 -3.5t38 -13t16 -28.5q0 -43 -69 -49
q-87 -7 -87 -80q0 -66 26.5 -134t62.5 -140q34 -66 63 -137l50 44q63 58 99 151q25 96 74 176.5t121 130.5t166 50q192 0 192 -193q0 -140 -93 -230.5t-239 -94.5q0 -50 9.5 -104.5t34.5 -92.5t70 -38q97 0 197 127q86 109 130 230q22 62 36 107q-15 61 -15 128
q0 131 77.5 202.5t194.5 71.5q114 0 114 -55q0 -33 -69 -37q-43 -3 -73 -30t-30 -75q0 -81 32.5 -169.5t75.5 -182.5q29 -64 56 -131l48 50q72 76 108 194t36 245q0 296 -152 457.5t-379 161.5q-204 0 -383 -47q-22 -160 -144 -311q-37 -45 -68 -45q-14 0 -24.5 11.5
t-10.5 28.5q0 22 26 56q91 120 117 235q-138 -37 -301 -100q-390 -153 -652 -153q-136 0 -225 47t-133.5 121t-44.5 155q0 82 35 135t90 79t115 26q65 0 124 -30t93 -87q166 399 532 400q219 0 348 -141q116 -128 127 -317q170 39 377 39q293 0 461.5 -184.5t168.5 -525.5
q0 -146 -45 -284t-134 -236q-38 -42 -75 -78q33 -107 33 -195q0 -74 -18 -140.5t-71.5 -107.5t-130.5 -41zM1828 1021q-25 0 -48.5 4.5t-38.5 23.5t-15 60q0 52 16.5 77.5t45 34t62.5 8.5q25 0 48.5 -4.5t38.5 -23.5t15 -60q0 -120 -124 -120zM1352 -405q-71 0 -88 66
q-49 190 -50.5 352t-1.5 201q0 377 47 917q4 44 4 66q0 14 -4 14t-12 -13q-102 -172 -179 -376q-139 -368 -175 -687q-14 -124 -14 -252q0 -63 -23 -84t-57 -21q-71 0 -88 66q-46 181 -46 484q0 421 50 1009q7 78 7 108q0 23 -6 23q-8 0 -24 -27q-88 -143 -162 -339
q-118 -312 -154 -610q-31 -256 -31 -477q0 -70 -23 -93.5t-57 -23.5q-70 0 -87 73q-37 159 -39 346t-2 266q0 447 33 907q6 79 78 94q31 6 64 6q29 0 56.5 -4.5t45 -22.5t17.5 -58q0 -43 -6 -101q-16 -155 -30 -322q84 273 181 448q133 240 271 240q72 0 109.5 -35.5t45 -86
t7.5 -89.5q0 -43 -6 -94q-47 -397 -75 -681q83 279 187 466q132 240 271 240q72 0 109.5 -35.5t45 -85t7.5 -87.5q0 -44 -6 -97q-44 -372 -77 -740.5t-33 -744.5q0 -63 -23 -84t-57 -21z" />
    <glyph glyph-name=".notdef" horiz-adv-x="1024" 
 />
    <glyph glyph-name=".null" horiz-adv-x="0" 
 />
    <glyph glyph-name=".null" horiz-adv-x="0" 
 />
    <glyph glyph-name="nonmarkingreturn" horiz-adv-x="508" 
 />
    <glyph glyph-name="space" unicode=" " horiz-adv-x="508" 
 />
    <glyph glyph-name="space" unicode="&#xa0;" horiz-adv-x="508" 
 />
    <glyph glyph-name="exclam" unicode="!" horiz-adv-x="533" 
d="M285 337q-71 0 -88 52q-36 113 -38.5 252t-2.5 194q0 167 9 336q11 226 24 349q3 31 24.5 46t53.5 20t65 5q29 0 56 -3.5t45 -16t18 -41.5q0 -30 -4 -63q-82 -632 -82 -1047q0 -50 -23 -66.5t-57 -16.5zM263 -3q-27 0 -53 5.5t-43 27t-17 69.5q0 59 18.5 88.5t49.5 39
t68 9.5q28 0 54 -5.5t42.5 -26.5t16.5 -69q0 -138 -136 -138z" />
    <glyph glyph-name="quotedbl" unicode="&#x22;" horiz-adv-x="248" 
d="M-50 1001q-40 0 -57 123q-40 272 -40 381q0 14 5.5 34.5t26 36t64.5 15.5q33 0 63.5 -5t49.5 -20t19 -46q0 -89 -47 -360q-28 -159 -84 -159zM233 1001q-40 0 -57 123q-40 272 -40 381q0 14 5.5 34.5t26 36t64.5 15.5q33 0 63.5 -5t49.5 -20t19 -46q0 -89 -47 -360
q-28 -159 -84 -159z" />
    <glyph glyph-name="numbersign" unicode="#" horiz-adv-x="936" 
d="M532 7q-58 0 -63 28q-3 16 -3 35q0 81 32 322q-44 -1 -157 -1q-44 -253 -55 -333q-7 -51 -66 -51q-58 0 -64 28q-2 12 -2 31q0 86 32 325h-106q-27 0 -38 25t-11 55q0 31 11 56t28 25t38 -3q45 -6 99 -11l21 143h-107q-27 0 -38 25t-11 55t11 55.5t28 25.5q26 0 41 -2
q45 -6 99 -12q44 281 55 341q5 30 36.5 43t68.5 13q38 0 65.5 -11.5t27.5 -29.5q0 -16 -11 -52q-31 -105 -74 -316l139 -6q43 288 50 328q6 30 38 43t69 13t65 -12t28 -31q0 -10 -10 -45q-29 -98 -70 -301h129q42 0 42 -47t-25 -54q-41 -13 -169 -18l-32 -170h144
q41 0 41 -47q0 -46 -25 -54q-46 -14 -181 -20q-42 -240 -54 -337q-7 -51 -66 -51zM515 520l24 162q-50 -1 -146 -1l-28 -154z" />
    <glyph glyph-name="dollar" unicode="$" horiz-adv-x="732" 
d="M264 826l11 256q-77 -39 -77 -124q0 -41 26 -80q16 -26 40 -52zM369 99q27 6 47 18q67 40 67 122t-104 180zM323 -230q-37 0 -45 38q-14 63 -20 171q-104 15 -158 79q-71 83 -71 184q0 48 21.5 78.5t65.5 30.5q31 0 31 -20q0 -8 -2 -20q-4 -23 -4 -48q0 -93 67 -140
q19 -14 45 -20q-1 49 -1 105q0 160 3 321q-45 40 -88 83q-142 142 -142 297q0 74 33 147t110 120q47 28 114 39q3 58 6 95t26.5 47t50.5 10q24 0 44.5 -7t20.5 -40q0 -29 -7 -100q107 -11 161 -74q65 -77 65 -172q0 -41 -20 -69t-60 -28q-28 0 -28 17q0 13 1 23q3 34 3 41
q0 79 -65 121q-26 17 -66 21q-13 -167 -23 -393q60 -52 118 -111q148 -150 148 -308q0 -74 -36.5 -147t-109.5 -120q-60 -38 -145 -45q-1 -82 -1 -144t-42 -62z" />
    <glyph glyph-name="percent" unicode="%" horiz-adv-x="722" 
d="M157 767q-42 0 -79.5 22t-61 67t-23.5 113q0 58 20.5 117t62.5 99t106 40q79 0 123 -55t44 -156q0 -111 -52 -179t-140 -68zM180 839q33 0 63 47.5t30 140.5q0 117 -66 117q-44 0 -66 -57.5t-22 -138.5q0 -56 18.5 -82.5t42.5 -26.5zM30 -28q-31 0 -31 38q0 17 6 37
q60 210 358 796q124 245 176 339q24 43 102 43q56 0 56 -21q0 -14 -23 -53q-98 -162 -304 -570q-181 -357 -274 -561q-22 -48 -66 -48zM449 -20q-42 0 -79.5 22.5t-61 67.5t-23.5 113q0 58 20.5 117t62.5 99t107 40q78 0 122.5 -55t44.5 -157q0 -110 -52.5 -178.5
t-140.5 -68.5zM472 52q33 0 63 47.5t30 140.5q0 117 -66 117q-44 0 -66 -57t-22 -138q0 -57 18.5 -83.5t42.5 -26.5z" />
    <glyph glyph-name="ampersand" unicode="&#x26;" horiz-adv-x="1092" 
d="M354 712q81 72 121 142q37 64 37 147q0 18 -6.5 41t-24.5 40t-52 17q-42 -1 -64 -33t-30 -75t-8 -73q0 -96 27 -206zM290 95q92 0 163 48q-136 117 -219 324q-47 -49 -78 -100q-38 -61 -38 -128q0 -35 18.5 -68t56.5 -54.5t97 -21.5zM290 -29q-103 0 -168.5 40
t-96.5 102.5t-31 130.5q0 90 38.5 158t98.5 124q31 29 64 56q-41 151 -41 287q0 88 29.5 169t90 133t155.5 52q79 0 127 -36t70 -90t22 -109q0 -128 -141 -268q-59 -58 -123 -113q72 -216 185 -346q73 106 109 265q25 113 25 217q0 63 88 63q103 0 103 -60
q0 -118 -64.5 -285.5t-162.5 -286.5q53 -32 108 -32q74 0 112.5 27.5t52.5 66.5t14 74q0 25 -4 48q-2 12 -2 20q0 20 31 20q44 0 66 -30.5t22 -75.5q0 -103 -70.5 -186t-221.5 -84q-120 0 -213 46q-124 -97 -272 -97z" />
    <glyph glyph-name="quotesingle" unicode="'" horiz-adv-x="328" 
d="M147 1001q-40 0 -57 123q-40 272 -40 381q0 14 5.5 34.5t26 36t64.5 15.5q33 0 63.5 -5t49.5 -20t19 -46q0 -89 -47 -360q-28 -159 -84 -159z" />
    <glyph glyph-name="parenleft" unicode="(" horiz-adv-x="565" 
d="M604 -426q-246 0 -377 269t-131 755q0 487 131 756t377 269q17 0 28.5 -12t11.5 -28q0 -17 -11.5 -28.5t-28.5 -11.5q-66 0 -114 -59.5t-80.5 -158.5t-52 -222t-28 -254t-8.5 -251q0 -119 8.5 -250t28 -254t52 -222t80.5 -158.5t114 -59.5q17 0 28.5 -11.5t11.5 -28.5
q0 -16 -11.5 -28t-28.5 -12z" />
    <glyph glyph-name="parenright" unicode=")" horiz-adv-x="562" 
d="M-72 -426q-17 0 -28.5 12t-11.5 28q0 17 11.5 28.5t28.5 11.5q66 0 114 59.5t80.5 158.5t52 222t28 254t8.5 250q0 120 -8.5 251t-28 254t-52 222t-80.5 158.5t-114 59.5q-17 0 -28.5 11.5t-11.5 28.5q0 16 11.5 28t28.5 12q246 0 377 -269t131 -756q0 -486 -131 -755
t-377 -269z" />
    <glyph glyph-name="asterisk" unicode="*" horiz-adv-x="238" 
d="M97 1031q-32 0 -36 32q-9 75 -21 198q-117 -54 -165 -74q-21 -9 -34 -9q-16 0 -25.5 12.5t-9.5 25.5t15 26q36 30 161 119l-159 116q-17 13 -17 28q0 40 44 40q23 0 190 -85l21 198q3 33 36 33q32 0 36 -33q12 -93 22 -198q179 82 199 82q30 0 30 -35q0 -18 -12 -28
q-38 -32 -160 -118l161 -118q16 -12 16 -27q0 -10 -5 -20q-11 -20 -30 -20q-16 0 -199 85q-10 -104 -22 -198q-4 -32 -36 -32z" />
    <glyph glyph-name="plus" unicode="+" horiz-adv-x="920" 
d="M463 238q-20 0 -36 7q-33 14 -37 284q-142 -2 -234 -2q-29 1 -42.5 22.5t-13.5 47.5q0 27 12.5 50t33.5 23q104 0 242 -5l-1 238q0 29 22 42t50 13t51.5 -12t23.5 -34q0 -107 -6 -253q156 -7 246 -10q46 -1 46 -48q0 -19 -7 -35q-13 -31 -291 -35q-7 -157 -10 -246
q-1 -47 -49 -47z" />
    <glyph glyph-name="comma" unicode="," horiz-adv-x="403" 
d="M95 -346q-23 0 -37 12q-8 7 -8 17q0 9 6 18q18 27 38 68q50 103 50 191q0 20 -2 29q-4 16 -23 19q-65 9 -65 97q0 56 18.5 84.5t49.5 37.5t68 9q68 0 90.5 -38t22.5 -109q0 -53 -18.5 -126.5t-48.5 -143.5t-67 -117.5t-74 -47.5z" />
    <glyph glyph-name="hyphen" unicode="-" horiz-adv-x="810" 
d="M141 449.5q-11 21.5 -11 47.5q0 35 10 54t29 19q117 0 290 -10q137 -8 217 -10q54 -2 54 -49q0 -48 -51 -55q-152 -17 -503 -18q-24 0 -35 21.5z" />
    <glyph glyph-name="hyphen" unicode="&#xad;" horiz-adv-x="810" 
d="M141 449.5q-11 21.5 -11 47.5q0 35 10 54t29 19q117 0 290 -10q137 -8 217 -10q54 -2 54 -49q0 -48 -51 -55q-152 -17 -503 -18q-24 0 -35 21.5z" />
    <glyph glyph-name="period" unicode="." horiz-adv-x="399" 
d="M163 -3q-27 0 -53 5.5t-43 27t-17 69.5q0 59 18.5 88.5t49.5 39t68 9.5q28 0 54 -5.5t42.5 -26.5t16.5 -69q0 -138 -136 -138z" />
    <glyph glyph-name="slash" unicode="/" horiz-adv-x="501" 
d="M31 -179q-8 0 -16 2q-42 11 -42 54q2 142 175 734q132 449 224 722q14 42 64 42q15 0 33 -4q63 -15 63 -55q0 -16 -21 -70q-43 -112 -104 -298q-212 -651 -325 -1071q-16 -56 -51 -56z" />
    <glyph glyph-name="zero" unicode="0" horiz-adv-x="817" 
d="M425 -28q-109 0 -179 53.5t-104 174t-34 318.5q0 280 90 480q102 227 291 227q84 0 139.5 -72t83 -203t27.5 -309q0 -265 -78 -457q-87 -212 -236 -212zM443 95q75 0 124 194q47 180 47 402q0 109 -13.5 202.5t-41 151t-72.5 57.5q-39 0 -75 -98t-58 -253.5t-22 -334.5
q1 -90 12.5 -162t35.5 -115.5t63 -43.5z" />
    <glyph glyph-name="one" unicode="1" horiz-adv-x="599" 
d="M367 -28q-70 0 -87 52q-37 113 -39 253.5t-2 200.5q0 241 15 474q-153 -181 -196 -181q-16 0 -33.5 15t-18.5 31q0 11 11 24q122 137 244 324q38 60 156 60q65 0 90.5 -16t25.5 -44q0 -31 -6 -71q-34 -234 -57 -528.5t-23 -510.5q0 -50 -23 -66.5t-57 -16.5z" />
    <glyph glyph-name="two" unicode="2" horiz-adv-x="707" 
d="M194 -28q-32 0 -70.5 13.5t-66.5 38.5t-28 61q0 30 108 225l112 210q134 261 134 399q0 191 -99 191q-57 0 -85 -67q-11 -27 -11 -68q0 -22 3.5 -32.5t3.5 -17.5q0 -17 -22 -17q-82 0 -82 107q0 88 58.5 147.5t178.5 59.5q134 0 213 -80t79 -223q0 -95 -42 -201.5
t-104.5 -215l-126.5 -209.5q-59 -93 -105 -173q119 17 186.5 28.5t108 16.5t82.5 5q58 0 58 -53q0 -22 -14.5 -36t-61.5 -26q-325 -83 -407 -83z" />
    <glyph glyph-name="three" unicode="3" horiz-adv-x="639" 
d="M227 -28q-40 0 -83.5 12t-74.5 34q-24 17 -24 35t32 21q83 9 150.5 45t108 102t40.5 163q0 34 -9.5 72t-33.5 65t-66 27q-21 0 -43 -12q-7 -3 -14 -3q-16 0 -34.5 18t-18.5 43q0 16 42 47q14 10 27 22q100 95 100 256q0 62 -19 118q-25 73 -80 73q-65 0 -87 -66
q-9 -28 -9 -65q0 -26 4 -38q3 -9 3 -16q0 -17 -22 -17q-74 0 -74 83q0 90 60.5 161t183.5 71q122 0 186 -71t64 -193q0 -174 -170 -308q93 -18 155 -86.5t62 -192.5q0 -98 -43.5 -193t-123.5 -151t-189 -56z" />
    <glyph glyph-name="four" unicode="4" horiz-adv-x="831" 
d="M561 -28q-71 0 -88 52q-36 113 -38 251q-196 -37 -237 -37q-32 0 -70.5 13.5t-66.5 39t-28 60.5q0 45 198 383q124 210 211 385q11 22 20 45t29 37.5t52 19t65 4.5q28 0 55.5 -3t45 -16t17.5 -41q0 -44 -5 -81q-45 -295 -68 -653q58 5 89 5q32 0 45 -16.5t13 -36.5
q0 -22 -13.5 -38.5t-61.5 -22.5l-78 -11q-7 -139 -7 -256q0 -50 -23 -66.5t-56 -16.5zM206 373q127 19 226 32v65q0 172 9 345q-86 -186 -235 -442z" />
    <glyph glyph-name="five" unicode="5" horiz-adv-x="685" 
d="M270 -28q-40 0 -83.5 12t-74.5 34q-24 17 -24 35t32 22q83 10 150.5 75t108 161t40.5 193q0 81 -30.5 129t-90.5 48q-63 0 -114 -68q-11 -15 -21 -15q-17 0 -41 16q-46 31 -46 222q0 109 11 222q6 68 61 91t136 35q228 33 282 33q33 0 46.5 -17t13.5 -38q0 -23 -14 -37
q-27 -25 -362 -95q-19 -132 -28 -264q66 28 140 29q68 0 127.5 -28t98 -90t38.5 -185q0 -88 -25 -173t-71.5 -165.5t-112.5 -131t-147 -50.5z" />
    <glyph glyph-name="six" unicode="6" horiz-adv-x="805" 
d="M439 -28q-141 0 -229 83q-108 101 -108 323q0 136 24 284t74.5 275t126.5 206t190 79q94 0 148.5 -58t54.5 -149q0 -107 -84 -107q-22 0 -22 17q0 7 3 16q5 19 5 47q0 48 -20.5 85t-56.5 37q-57 0 -91 -62t-60.5 -156t-42 -195t-15.5 -179q36 65 89 105t118 40
q93 0 147.5 -69.5t54.5 -214.5q0 -153 -73 -271q-84 -136 -233 -136zM458 115q51 0 85.5 41t51.5 104.5t17 131.5q0 73 -20 128t-60 55q-51 0 -118 -77q-73 -84 -73 -223q0 -67 19 -103t46 -46.5t52 -10.5z" />
    <glyph glyph-name="seven" unicode="7" horiz-adv-x="675" 
d="M221 -28q-49 0 -68 28.5t-19 77.5q0 97 24 265q60 422 283 740q-110 -1 -176 -2.5t-108 -1.5q-42 1 -81 7q-50 8 -50 60q0 22 17.5 33.5t65.5 16.5q291 28 379 28q81 0 132.5 -35.5t51.5 -88.5q0 -26 -13 -47q-204 -319 -291 -606q-67 -223 -67 -392q0 -50 -23 -66.5
t-57 -16.5z" />
    <glyph glyph-name="eight" unicode="8" horiz-adv-x="790" 
d="M437 733l19 19q104 106 104 206q0 35 -11 68t-41.5 54.5t-90.5 21.5q-56 0 -99 -37t-43 -107q0 -71 92 -159zM397 -29q-102 0 -167.5 40t-97 102.5t-31.5 130.5q0 89 39 161q44 83 136 176l-32 31q-143 143 -143 297q0 125 72 214q84 102 244 102q91 0 153 -34.5
t93.5 -89t31.5 -113.5q0 -128 -125 -268l-53 -57q35 -32 69 -67q147 -151 147 -308q0 -74 -36 -147t-110.5 -121.5t-189.5 -48.5zM397 95q60 0 95.5 21.5t51.5 54.5t16 68q0 79 -97 173q-32 31 -103 92q-66 -73 -101 -137q-34 -61 -34 -128q0 -35 18.5 -68t56.5 -54.5
t97 -21.5z" />
    <glyph glyph-name="nine" unicode="9" horiz-adv-x="772" 
d="M300 -28q-39 0 -82.5 12t-74.5 34q-24 18 -25 29v10q0 19 33 19q171 0 251 175q61 133 73 341q-45 -52 -98.5 -77t-99.5 -25q-73 0 -121.5 43t-72.5 117t-24 168q0 68 21 139.5t62 132t102 98t140 37.5q179 0 255 -158q61 -127 61 -314q0 -308 -95 -531
q-108 -250 -305 -250zM313 600q46 0 93 40.5t55 103.5q8 59 8 108q0 61 -12 109q-30 121 -111 121q-52 0 -86.5 -41t-51.5 -104.5t-17 -131.5q0 -60 10.5 -106.5t37 -72.5t74.5 -26z" />
    <glyph glyph-name="colon" unicode=":" horiz-adv-x="345" 
d="M156 -3q-28 0 -53.5 5.5t-42.5 27t-17 69.5q0 59 18.5 88.5t49.5 39t68 9.5q28 0 53.5 -5.5t42.5 -26.5t17 -69q0 -138 -136 -138zM156 552q-28 0 -53.5 5.5t-42.5 27t-17 69.5q0 59 18.5 88.5t49.5 39t68 9.5q28 0 53.5 -5.5t42.5 -26.5t17 -69q0 -138 -136 -138z" />
    <glyph glyph-name="semicolon" unicode=";" horiz-adv-x="371" 
d="M171 552q-28 0 -53.5 5.5t-42.5 27t-17 69.5q0 59 18.5 88.5t49.5 39t68 9.5q28 0 53.5 -5.5t42.5 -26.5t17 -69q0 -138 -136 -138zM99 -346q-23 0 -37 12q-8 7 -8 17q0 9 6 18q18 27 38 68q50 103 50 191q0 20 -2 29q-4 16 -22 19q-66 9 -66 97q0 56 18.5 84.5
t49.5 37.5t68 9q68 0 90.5 -38t22.5 -109q0 -53 -18.5 -126.5t-48.5 -143.5t-67 -117.5t-74 -47.5z" />
    <glyph glyph-name="semicolon" unicode="&#x37e;" horiz-adv-x="371" 
d="M171 552q-28 0 -53.5 5.5t-42.5 27t-17 69.5q0 59 18.5 88.5t49.5 39t68 9.5q28 0 53.5 -5.5t42.5 -26.5t17 -69q0 -138 -136 -138zM99 -346q-23 0 -37 12q-8 7 -8 17q0 9 6 18q18 27 38 68q50 103 50 191q0 20 -2 29q-4 16 -22 19q-66 9 -66 97q0 56 18.5 84.5
t49.5 37.5t68 9q68 0 90.5 -38t22.5 -109q0 -53 -18.5 -126.5t-48.5 -143.5t-67 -117.5t-74 -47.5z" />
    <glyph glyph-name="less" unicode="&#x3c;" horiz-adv-x="920" 
d="M771 238q-22 0 -294 131l-349 165q-28 13 -28 56q0 37 230 158l75 40q308 170 335 170q33 0 56.5 -35t23.5 -76q0 -43 -308 -164q-114 -46 -224 -97q224 -104 452 -230l53.5 -29.5t26.5 -34.5q0 -18 -14 -36t-35 -18z" />
    <glyph glyph-name="equal" unicode="=" horiz-adv-x="920" 
d="M146 403q-22 0 -34 23t-12 51q0 26 13.5 47.5t41.5 21.5h60q126 0 319 -3q266 -4 279 -35q7 -16 7 -35q0 -47 -46 -48q-99 -3 -279 -12q-207 -10 -349 -10zM156 650q-29 0 -42.5 21.5t-13.5 48.5t12.5 50t33.5 23q142 0 349 -10q180 -9 279 -11q46 -1 46 -48
q0 -19 -7 -35q-13 -31 -279 -35q-242 -4 -378 -4z" />
    <glyph glyph-name="greater" unicode="&#x3e;" horiz-adv-x="920" 
d="M149 238q-21 0 -35 18t-14 36q0 20 26.5 34.5l53.5 29.5q228 126 452 230q-110 51 -224 97q-308 121 -308 164q0 41 23.5 76t56.5 35q27 0 335 -170l75 -40q230 -121 230 -158q0 -43 -28 -56l-349 -165q-272 -131 -294 -131z" />
    <glyph glyph-name="question" unicode="?" horiz-adv-x="740" 
d="M326 337q-29 0 -44 27q-27 46 -27 140q0 120 39 209.5t89 169.5q34 54 64 111q67 130 67 261q0 74 -24 122t-62.5 71t-84.5 23q-95 0 -143.5 -65t-48.5 -147q0 -119 52 -209q10 -17 10 -27q0 -28 -61 -28q-70 0 -113 92q-39 84 -39 191q0 81 42 156t122 123.5t194 48.5
q110 0 199.5 -37t141.5 -112.5t52 -191.5q0 -178 -97 -336q-42 -68 -84 -126q-39 -52 -84 -123q-91 -143 -91 -260q0 -83 -69 -83zM324 -3q-28 0 -53.5 5.5t-42.5 27t-17 69.5q0 59 18.5 88.5t49.5 39t68 9.5q28 0 53.5 -5.5t42.5 -26.5t17 -69q0 -138 -136 -138z" />
    <glyph glyph-name="at" unicode="@" horiz-adv-x="1597" 
d="M690 213q47 0 125 224q69 199 69 274q0 39 -29 39q-90 0 -145 -151q-50 -139 -50 -323q0 -63 30 -63zM804 -409q-210 0 -358.5 73.5t-240 196.5t-122.5 254t-31 245q0 211 83 410q64 153 173 276t261 196t342 73q173 0 304 -66t204.5 -202.5t73.5 -349.5q0 -84 -12 -179
t-38.5 -185.5t-69 -163.5t-103 -117.5t-140.5 -44.5q-195 0 -234 385q-13 -49 -27 -89q-92 -270 -261 -270q-66 0 -103.5 34.5t-52.5 88.5t-15 110q0 76 10.5 161.5t35.5 166t66 146t101 105t143 39.5q64 0 107 -53q11 103 79 124q31 9 73 9q63 0 89.5 -17.5t26.5 -59.5
q0 -18 -4 -40q-5 -33 -14 -112q-22 -193 -22 -348q0 -239 72 -239q50 0 89 80t61.5 206t22.5 263q0 154 -53 276t-155.5 192t-253.5 70q-164 0 -295 -65.5t-226 -175.5t-151 -247.5t-65.5 -234t-9.5 -142.5q0 -257 128 -439q170 -242 512 -242q341 0 625 220q10 8 20 8
q12 0 23 -8q36 -26 36 -59q0 -13 -11 -22q-145 -117 -327 -177t-366 -60z" />
    <glyph glyph-name="A" unicode="A" horiz-adv-x="1123" 
d="M825 -243q-71 0 -88 72q-46 202 -47 374t-1 236q-226 -20 -303 -35q-18 -4 -35 -4q-35 0 -35 69q0 55 24 73q42 32 351 35q3 165 12 354q14 282 14 407q-1 88 -14 152q-9 47 -28 47q-32 0 -92 -44q-88 -65 -152 -208q-106 -243 -125 -619q-6 -126 -6 -253q0 -186 8 -376
q0 -99 -78 -99q-71 0 -89 73q-28 110 -34.5 211.5t-6.5 276.5q0 398 104 689q109 308 325 433q120 69 223 69q232 0 232 -301q0 -114 -6 -201q-6 -106 -47 -624q28 -5 50 -12q28 -9 28 -52q0 -48 -46 -48h-40q-18 -289 -18 -578q0 -70 -23 -93.5t-57 -23.5z" />
    <glyph glyph-name="B" unicode="B" horiz-adv-x="1138" 
d="M499 -405q-110 0 -166 57.5t-56 135.5q0 53 26 108q50 108 184 168q35 16 57 16q16 0 28 -10.5t12 -28.5q0 -33 -34 -49q-79 -39 -121.5 -97.5t-42.5 -106.5q0 -72 82 -72q162 0 244 225q64 174 64 358q0 321 -171 321q-69 0 -138 -36q-10 -5 -19 -5q-15 0 -28 10
q-28 21 -28 54q0 21 23 36q118 77 195 198t115 254.5t38 245.5q-1 150 -70 150q-48 0 -116.5 -69t-121.5 -161q-38 -66 -42 -122q-54 -629 -54 -1100q0 -70 -23 -93.5t-57 -23.5q-71 0 -88 73q-36 161 -38.5 357.5t-2.5 274.5q0 237 9 475q11 318 24 492q3 44 24.5 65.5
t53.5 28t65 6.5q29 0 56 -4.5t45 -22.5t18 -58q0 -43 -6 -101.5l-12 -120.5q78 122 182 192q82 55 173 55q245 0 245 -308q0 -67 -34.5 -176.5t-110.5 -231t-198 -227.5q85 -6 158.5 -45.5t119 -119.5t45.5 -210q0 -88 -17 -190q-30 -173 -101 -308q-135 -259 -390 -259z
" />
    <glyph glyph-name="C" unicode="C" horiz-adv-x="1079" 
d="M562 -205q-213 0 -328 170q-134 196 -134 647q0 203 43 420q52 258 169 425q136 193 351 193q145 0 230.5 -72.5t85.5 -224.5q0 -65 -22 -133.5t-63.5 -115.5t-101.5 -47q-49 0 -49 39q0 20 13 44q68 132 68 234q0 63 -29 106.5t-90 43.5q-138 0 -221 -215
q-70 -179 -99 -439q-21 -194 -21 -348q0 -277 68.5 -420t188.5 -143q113 0 222 157q41 59 72 59q14 0 26 -11q19 -17 19 -44q0 -33 -30 -80q-155 -245 -368 -245z" />
    <glyph glyph-name="D" unicode="D" horiz-adv-x="1260" 
d="M469 -405q-102 0 -161 56t-59 132q0 52 30 107t95.5 102.5t170.5 78.5q13 3 23 3q20 0 30 -13t10 -29q0 -39 -41 -54q-107 -35 -156.5 -90.5t-49.5 -102.5q0 -29 20 -49t56 -20q158 0 262 227q91 198 132 524q37 288 37 590q0 470 -177 470q-127 0 -280 -285
q-51 -656 -51 -1147q0 -70 -23 -93t-57 -23q-71 0 -89 72q-35 159 -37.5 353t-2.5 271q0 234 9 470q12 314 24 486q3 44 24.5 65t53.5 27.5t65 6.5q29 0 56.5 -4.5t45 -22t17.5 -57.5q0 -43 -8 -100l-5 -56q150 180 329 180q148 0 227.5 -77.5t109 -219t29.5 -331.5
q0 -614 -146 -1004q-102 -274 -286 -384q-98 -59 -227 -59z" />
    <glyph glyph-name="E" unicode="E" horiz-adv-x="1013" 
d="M489 -93q-176 0 -256 101q-68 84 -68 218q0 249 250 461q-86 5 -160 44t-120.5 119.5t-46.5 210.5q0 164 62.5 297.5t171.5 212.5t249 79q146 0 231 -72.5t85 -224.5q0 -65 -22 -133.5t-62 -114.5q-45 -50 -106 -50t-61 28q0 10 11 27q40 64 62.5 135t22.5 129
q0 63 -29 106.5t-90 43.5q-153 0 -231 -156q-62 -123 -62 -254q0 -321 171 -321q80 0 160 51q23 15 42 15q22 0 35.5 -17.5t13.5 -38.5q0 -34 -36 -54q-72 -41 -138 -120.5t-109 -175.5t-43 -182q0 -55 9.5 -101t37.5 -72.5t85 -26.5q135 0 268 155q26 30 48 30q17 0 31 -17
q18 -21 18 -43q0 -21 -15 -42q-184 -247 -409 -247z" />
    <glyph glyph-name="F" unicode="F" horiz-adv-x="846" 
d="M415 -405q-71 0 -88 80q-36 178 -38.5 394.5t-2.5 303.5v62q-59 -15 -70 -15q-42 0 -42 85q0 16 5.5 36t36.5 27l71 17q3 156 8 312q17 531 29 578q-73 -15 -125 -28.5t-97 -14.5q-58 0 -58 95q0 66 57 76q373 71 733 109q141 14 236 14q43 0 77 -4q55 -7 55 -61
q0 -17 -13 -32t-58 -20q-276 -34 -568 -88q18 -20 18 -65q0 -47 -6 -112q-30 -318 -51 -709q209 39 323 39q31 0 57 -4q40 -6 40 -50q0 -16 -9.5 -29t-42.5 -18q-140 -21 -375 -79q-22 -443 -22 -770q0 -51 -10.5 -79t-29 -39t-40.5 -11z" />
    <glyph glyph-name="G" unicode="G" horiz-adv-x="1203" 
d="M880 -405q-34 0 -55 48q-51 113 -55 413l-28 -53q-111 -208 -284 -208q-180 0 -271.5 187.5t-91.5 538.5q0 160 24.5 326t75 316.5t129 269t187 188t248.5 69.5q146 0 231 -92.5t85 -244.5q0 -65 -21.5 -133.5t-62.5 -114.5q-45 -50 -105 -50q-62 0 -62 28q0 12 10 27
q41 61 63.5 121.5t22.5 142.5q0 51 -12.5 94.5t-39 69.5t-67.5 26q-162 0 -283 -258q-108 -231 -151 -564q-21 -163 -21 -312q0 -131 18 -237.5t56 -170t97 -63.5q94 0 166 177q59 146 91 350q7 50 9 92q-56 -12 -136 -26q-45 -8 -55 -8q-42 0 -42 59q0 38 8 61.5t39 28.5
q102 15 195 22q6 51 72 61q29 5 59 5q27 0 52 -3t41 -15t16 -41q32 -1 62 -4q37 -4 37 -48q0 -42 -57 -48l-53 -5q-27 -206 -46 -460q-21 -279 -21 -483q0 -79 -74 -79z" />
    <glyph glyph-name="H" unicode="H" horiz-adv-x="1219" 
d="M885 -405q-70 0 -87 73q-46 198 -47 372t-1 205q0 93 2 200q-172 -8 -351 -21q-14 -310 -14 -550q0 -70 -23 -93.5t-57 -23.5q-71 0 -87 72q-36 161 -38 360l-3 216q-52 -5 -72 -5q-24 0 -34.5 10.5t-13.5 27t-3 33.5q0 30 11 56q9 20 112 33q3 445 33 869q6 79 78 94
q31 6 64 6q29 0 56.5 -4.5t45 -22.5t17.5 -58q0 -60 -6 -114q-35 -326 -58 -756q115 3 269 3h78q15 417 61 1009q7 83 82 98q33 6 67 6q30 0 58.5 -4.5t47 -23t18.5 -60.5q0 -52 -7 -117q-51 -473 -85 -919q41 -5 78 -13q43 -10 43 -53q0 -21 -14 -34.5t-56 -13.5h-59
q-25 -377 -25 -740q0 -70 -23 -93.5t-57 -23.5z" />
    <glyph glyph-name="I" unicode="I" horiz-adv-x="542" 
d="M265 -45q-70 0 -87 64q-37 141 -39 316t-2 249q0 431 33 840q6 70 78 82q31 6 64 6q29 0 56.5 -4t45 -19.5t17.5 -50.5q0 -39 -6 -89q-34 -290 -57 -656.5t-23 -634.5q0 -62 -23 -82.5t-57 -20.5z" />
    <glyph glyph-name="J" unicode="J" horiz-adv-x="899" 
d="M241 -402q-121 0 -191 79t-70 215q0 66 22 134t63 115q44 50 104 50q62 0 62 -28q0 -10 -11 -27q-40 -64 -62.5 -135t-22.5 -129q0 -64 29 -107t90 -43q108 0 166 209q70 252 70 768q0 366 -12 567q-7 116 -7 186q0 10 1 19q-250 -62 -289 -62q-45 0 -45 87q0 52 47 62
q136 28 308 51q115 16 211 16q48 0 92.5 -6t44.5 -49q0 -15 -11 -27t-49 -16l-58 -7q17 -168 17 -661q0 -142 -8 -320q-11 -252 -68 -487q-32 -129 -82 -231.5t-131 -162.5t-210 -60z" />
    <glyph glyph-name="K" unicode="K" horiz-adv-x="1092" 
d="M279 -243q-72 0 -88 72q-36 161 -38.5 357.5t-2.5 274.5q0 237 9 475q12 319 24 493q3 43 24.5 65t53.5 28.5t65 6.5q29 0 56 -4.5t45 -22.5t18 -58q0 -44 -6 -101q-32 -308 -54 -691q222 287 421 597q154 241 216 391q19 45 41 47.5t31 2.5q27 0 56 -9q71 -20 71 -65
q0 -25 -29 -89q-93 -209 -378 -585q-165 -217 -315 -380l191 -254q308 -397 308 -449q0 -31 -27 -49q-21 -14 -45 -14t-50 24q-163 150 -503 590q-14 -301 -14 -536q0 -70 -23 -93.5t-57 -23.5z" />
    <glyph glyph-name="L" unicode="L" horiz-adv-x="609" 
d="M220 -420q-58 0 -58 96q0 54 33 68q-29 163 -32 386q-4 256 -4 396q0 233 6 468q9 377 22 568q8 109 171 109q29 0 56 -5t45 -24.5t18 -62.5q0 -47 -6 -111q-36 -366 -68 -878q-30 -487 -32 -811q270 47 434 47q89 0 131.5 -15.5t42.5 -51.5q0 -42 -71 -51
q-155 -19 -254.5 -37.5t-214.5 -48.5q-161 -42 -219 -42z" />
    <glyph glyph-name="M" unicode="M" horiz-adv-x="1658" 
d="M1352 -405q-71 0 -88 66q-49 190 -50.5 352t-1.5 201q0 377 47 917q4 44 4 66q0 14 -4 14t-12 -13q-102 -172 -179 -376q-139 -368 -175 -687q-14 -124 -14 -252q0 -63 -23 -84t-57 -21q-71 0 -88 66q-46 181 -46 484q0 421 50 1009q7 78 7 108q0 23 -6 23q-8 0 -24 -27
q-88 -143 -162 -339q-118 -312 -154 -610q-31 -256 -31 -477q0 -70 -23 -93.5t-57 -23.5q-70 0 -87 73q-37 159 -39 346t-2 266q0 447 33 907q6 79 78 94q31 6 64 6q29 0 56.5 -4.5t45 -22.5t17.5 -58q0 -43 -6 -101q-16 -155 -30 -322q84 273 181 448q133 240 271 240
q72 0 109.5 -35.5t45 -86t7.5 -89.5q0 -43 -6 -94q-47 -397 -75 -681q83 279 187 466q132 240 271 240q72 0 109.5 -35.5t45 -85t7.5 -87.5q0 -44 -6 -97q-44 -372 -77 -740.5t-33 -744.5q0 -63 -23 -84t-57 -21z" />
    <glyph glyph-name="N" unicode="N" horiz-adv-x="1150" 
d="M844 -405q-70 0 -87 65q-52 195 -56 354.5t-4 226.5q0 339 50 854q4 39 10 84q3 18 3 27q0 13 -5 13q-9 0 -29 -36q-94 -168 -166 -361q-90 -238 -144.5 -472.5t-54.5 -363.5q0 -20 -1.5 -32t-1.5 -22q-3 -68 -26 -91t-57 -23q-70 0 -87 71q-37 156 -39.5 347t-2.5 267
q0 230 9 462q12 309 24 478q3 43 24.5 64t53.5 27.5t65 6.5q29 0 56.5 -4.5t45 -22t17.5 -56.5q0 -42 -6 -98q-34 -320 -57 -723q101 384 228 613q133 240 271 240q72 0 109.5 -35.5t45 -86t7.5 -89.5q0 -43 -6 -94q-44 -373 -76.5 -740.5t-32.5 -744.5q0 -63 -23 -84
t-57 -21z" />
    <glyph glyph-name="O" unicode="O" horiz-adv-x="1237" 
d="M647 45q73 0 131 77q111 157 157 498q21 157 21 336q0 131 -17 236q-27 167 -113 239q-47 39 -121 39t-129.5 -44t-86 -112t-30.5 -141q0 -49 11 -95q20 -93 101 -136q32 -17 32 -34q0 -24 -14 -39t-29 -15q-14 0 -41 15q-93 53 -134 148q-35 -224 -35 -412
q0 -172 41 -297.5t108.5 -194t147.5 -68.5zM588 -107q-213 0 -348 176q-154 200 -154 619q0 87 13 202q28 263 124 462q36 62 104 62q43 0 77 -21q22 43 53 81q113 139 281 139q381 0 381 -661q0 -145 -17 -295.5t-55 -287t-99.5 -243.5t-150.5 -170t-209 -63z" />
    <glyph glyph-name="P" unicode="P" horiz-adv-x="1028" 
d="M289 -295q-70 0 -87 81q-37 180 -39 402.5t-2 316.5q0 549 33 1070q6 89 78 105q31 7 64 7q29 0 56.5 -5t45 -25t17.5 -65q0 -44 -18 -256q78 122 183 193q81 55 172 55q226 0 226 -348q0 -71 -34.5 -185.5t-113 -241t-209.5 -233.5q-116 -94 -279 -148
q-13 -332 -13 -592q0 -52 -10.5 -80.5t-28.5 -39.5t-41 -11zM389 573q110 54 187 146q100 118 149 262.5t49 287.5q0 109 -25 148q-15 24 -45 24q-48 0 -117 -69t-121 -162q-36 -64 -41 -117q-24 -246 -36 -520z" />
    <glyph glyph-name="Q" unicode="Q" horiz-adv-x="1279" 
d="M666 -81q61 0 112 66q-66 104 -127 240q-4 11 -4 21q0 16 14 35q17 22 51 22q42 0 151 -157q34 95 59 215q53 257 53 537q0 56 -2.5 132.5t-15 157t-39 150t-73.5 113t-121 43.5t-132 -48t-91.5 -122.5t-33.5 -154.5q0 -176 114 -251q23 -15 23 -38q0 -11 -10 -32
t-34 -21q-15 0 -28 8q-86 56 -125 152q-38 -247 -38 -465q0 -185 41 -320t108.5 -209t147.5 -74zM1025 -283q-32 0 -55 22q-60 66 -108 127q-110 -111 -255 -111q-214 0 -348 189q-154 217 -154 668q0 94 12 217q28 285 125 498q36 67 104 67q35 0 65 -15q25 65 65 120
q111 153 280 153q131 0 215.5 -73.5t125.5 -234t41 -421.5q0 -160 -17 -325.5t-55 -316t-100 -268.5q41 -46 108 -114q59 -60 59 -95q0 -16 -16.5 -43.5t-65.5 -40.5q-14 -3 -26 -3z" />
    <glyph glyph-name="R" unicode="R" horiz-adv-x="1060" 
d="M282 -299q-70 0 -86 77q-37 169 -39.5 379t-2.5 299q0 517 33 1009q6 84 78 99q31 6 64 6q29 0 56.5 -4.5t45 -23.5t17.5 -62q0 -48 -14 -171q77 118 179 186q82 55 173 55q81 0 131 -42t72 -110.5t22 -148.5q0 -78 -35.5 -194.5t-116 -244.5t-214.5 -235l116 -233
q215 -432 215 -490q0 -39 -39 -54q-17 -7 -34 -7q-32 0 -57 35q-113 156 -219 359q-208 395 -208 432q0 32 59 57q79 34 126 97q83 112 123 241.5t40 244.5q0 150 -70 150q-48 0 -116.5 -69t-121.5 -161q-31 -54 -36 -101q-24 -225 -38 -489q-23 -440 -23 -762
q0 -91 -39 -113q-18 -11 -41 -11z" />
    <glyph glyph-name="S" unicode="S" horiz-adv-x="1085" 
d="M425 -325q-108 0 -179 38.5t-106 100.5t-35 132q0 75 26 149t75.5 128t117.5 90.5t131 36.5q49 0 86.5 -30.5t37.5 -53.5q0 -17 -31 -25q-131 -34 -225 -127q-72 -72 -72 -162q0 -65 50 -110.5t133 -45.5q72 0 146.5 52.5t125.5 136.5t51 180q0 97 -42 164t-109 117.5
t-144 96.5q-66 40 -129.5 85t-115.5 103.5t-83.5 138t-31.5 188.5q0 162 72.5 296.5t200.5 215t295 80.5q146 0 231.5 -72.5t85.5 -224.5q0 -65 -22 -133.5t-62 -114.5q-45 -50 -106 -50q-62 0 -62 28q0 10 11 27q41 64 63.5 135t22.5 129q0 63 -29 106.5t-91 43.5
q-89 0 -171 -57.5t-134 -147t-52 -185.5q0 -104 44 -179.5t112.5 -135.5t146.5 -115q152 -106 225 -193q103 -123 103 -288q0 -101 -42.5 -198.5t-118.5 -176t-178.5 -126t-221.5 -47.5z" />
    <glyph glyph-name="T" unicode="T" horiz-adv-x="865" 
d="M532 -276q-70 0 -87 75q-37 168 -39 374.5t-2 294.5q0 510 33 994q2 29 12 49q-160 -33 -245 -56t-120 -23q-52 0 -52 96q0 75 51 84q333 62 657 99q127 15 212 15q39 0 69 -4q49 -7 49 -60q0 -18 -12 -33t-52 -20q-155 -21 -344 -56q36 -20 36 -75q0 -45 -6 -105
q-34 -343 -57 -776t-23 -751q0 -73 -23 -97.5t-57 -24.5z" />
    <glyph glyph-name="U" unicode="U" horiz-adv-x="1225" 
d="M922 -325q-71 0 -89 80q-28 132 -42.5 328t-14.5 334v34q-74 -284 -127.5 -439.5t-110.5 -214.5t-146 -59q-147 0 -208 228q-48 179 -48 460q0 173 12.5 359t48.5 515q12 108 17 164q7 71 93 84q37 5 70 5q29 0 56.5 -4t45 -20t17.5 -52q0 -38 -12.5 -137t-22.5 -193
q-74 -664 -74 -1006q0 -246 49 -246q81 0 208 554q112 491 207 1152q9 69 92 83q35 6 68 6q29 0 56.5 -4t45 -20t17.5 -52q0 -51 -6 -101q-94 -812 -112 -1275q-10 -242 -10 -434q0 -129 -80 -129z" />
    <glyph glyph-name="V" unicode="V" horiz-adv-x="1089" 
d="M509 -265q-241 0 -326 805q-26 249 -53 594q-14 172 -14 261q0 112 140 112q45 0 86 -7t65.5 -32.5t24.5 -77.5v-197q0 -197 14 -470t45 -521.5t62 -248.5q49 0 98 207.5t94 580t86 875.5q2 23 26 32.5t46 9.5q55 0 92 -22q33 -20 33 -63q0 -9 -44 -409
q-158 -1429 -475 -1429z" />
    <glyph glyph-name="W" unicode="W" horiz-adv-x="1700" 
d="M1121 -265q-238 0 -323 788l-4 -22q-52 -318 -117 -466q-69 -156 -164 -156q-155 0 -241 226q-71 185 -101 519q-21 226 -35 577q-8 208 -8 331q0 62 32 90t100 28q45 0 86 -6.5t65 -31.5t24 -75v-8q-10 -390 -10 -655q0 -778 108 -778q35 0 86 236q43 202 112 636
q16 104 16 215q0 37 -6 123q-3 45 -3 87q0 35 8 55q25 59 122 59q45 0 86 -7t65.5 -32.5t24.5 -77.5l-1 -171q0 -205 14.5 -487t45.5 -530.5t62 -248.5q49 0 98 207.5t94 580.5q43 354 82 828q7 89 76 89q55 0 92 -22q33 -20 33 -63q0 -9 -44 -409q-158 -1429 -475 -1429z
" />
    <glyph glyph-name="X" unicode="X" horiz-adv-x="989" 
d="M118 -325q-16 0 -32 9q-29 16 -29 50q0 25 18 65l343 785l-145 350q-190 469 -190 516q0 38 27 65q39 41 87 62q42 18 81 18t63 -55q18 -42 36 -100q77 -244 179 -528q133 324 210 542q16 47 34 86.5t44 39.5q28 0 60 -17q65 -36 65 -85q0 -44 -227 -591l-95 -226
q135 -368 256 -655q20 -48 20 -78q0 -48 -45 -67q-19 -8 -38 -8q-90 0 -324 511q-210 -461 -350 -657q-23 -32 -48 -32z" />
    <glyph glyph-name="Y" unicode="Y" horiz-adv-x="842" 
d="M474 -107q-71 0 -88 61q-29 103 -35 259t-6 329q-167 102 -250 646q-29 193 -29 229q0 17 4.5 39.5t33 40t90.5 17.5q95 0 135 -24.5t40 -83.5v-104q0 -115 11 -252t36 -248.5t55 -111.5q2 0 38.5 83t98 285.5t138.5 552.5q8 36 26.5 58.5t81.5 22.5q40 0 69 -21
q19 -14 19 -39q0 -11 -5 -25q-75 -215 -111 -332q-173 -567 -226 -661q-11 -20 -25 -36q-21 -337 -21 -586q0 -59 -23 -79t-57 -20z" />
    <glyph glyph-name="Z" unicode="Z" horiz-adv-x="875" 
d="M190 -353q-31 0 -69.5 13.5t-66.5 39t-28 60.5q0 17 8 36q197 439 431 1027l213 524q-158 -15 -267 -45q-178 -48 -283 -48q-30 0 -38 21t-8 59q0 82 59 89q69 8 152 19q280 38 427 38q120 0 174 -33.5t54 -87.5q0 -74 -124 -340l-157 -347q-242 -535 -413 -844
q187 28 357.5 41.5t271.5 13.5q73 0 132.5 -6.5t59.5 -60.5q0 -44 -77 -52q-210 -23 -391.5 -47.5t-386.5 -66.5q-15 -3 -30 -3z" />
    <glyph glyph-name="bracketleft" unicode="[" horiz-adv-x="575" 
d="M241 -415q-43 0 -73 7q-37 10 -45 53q-39 223 -41 437.5t-2 278.5q0 530 38 1160q3 43 40.5 59.5t69.5 17.5t48 1q74 0 173 -10q26 -3 26 -42q0 -37 -45 -37t-110 -1l-5 -87q-67 -886 -67 -1742q126 -5 201 -6q46 -1 46 -37q0 -37 -26 -40q-111 -11 -228 -12z" />
    <glyph glyph-name="backslash" unicode="\" horiz-adv-x="549" 
d="M501 -179q-36 0 -51 56q-113 420 -325 1071q-61 186 -104 298q-21 54 -21 70q0 40 63 55q18 4 33 4q50 0 64 -42q92 -273 224 -722q174 -596 174 -736q0 -41 -41 -52q-9 -2 -16 -2z" />
    <glyph glyph-name="bracketright" unicode="]" horiz-adv-x="575" 
d="M300 -415q-75 0 -173 10q-27 3 -27 42q0 37 45 37t110 1q72 895 72 1829q-126 5 -201 6q-46 1 -46 37q0 37 27 40q121 12 236 12q37 0 64 -7q37 -10 45 -53q39 -223 41 -437.5t2 -278.5q0 -530 -38 -1160q-3 -43 -40.5 -59.5t-69.5 -17.5t-47 -1z" />
    <glyph glyph-name="asciicircum" unicode="^" horiz-adv-x="815" 
d="M684 672q-8 0 -14 4q-90 61 -262 337q-171 -275 -263 -337q-6 -4 -14 -4q-15 0 -32.5 18.5t-18.5 37.5q0 13 11 28q134 187 260 430q11 20 18.5 28.5t24.5 8.5q50 0 71 -40q51 -99 123.5 -219t135.5 -208q11 -15 11 -27q0 -19 -18.5 -38t-32.5 -19z" />
    <glyph glyph-name="underscore" unicode="_" horiz-adv-x="880" 
d="M126 -293q-22 0 -34 23t-12 51q0 26 13.5 47.5t41.5 21.5h60q125 0 319 -3q266 -4 279 -35q7 -16 7 -35q0 -47 -46 -48q-99 -3 -279 -12q-207 -10 -349 -10z" />
    <glyph glyph-name="grave" unicode="`" horiz-adv-x="500" 
d="M371 999q-31 0 -90.5 36.5t-113.5 81.5q-87 73 -87 109q0 30 18 53.5t41 37.5t38 14q39 0 59 -17.5t116 -158.5l57 -83q11 -16 11 -29q0 -25 -27 -39q-9 -5 -22 -5z" />
    <glyph glyph-name="a" unicode="a" horiz-adv-x="926" 
d="M198 212q26 0 63 76t72.5 178.5t60 190.5t26.5 120q-7 12 -23 22.5t-34 10.5q-89 0 -145 -181q-50 -162 -50 -353q0 -64 30 -64zM638 7q-200 0 -225 409q-41 -139 -90 -229q-85 -154 -206 -154q-67 0 -104 34.5t-52.5 88.5t-15.5 110q0 76 11 167.5t35.5 181t65.5 164
t101.5 120t142.5 45.5q78 0 134 -73q7 29 21 48q34 45 124 45q63 0 89.5 -18t26.5 -59q0 -18 -3 -40q-5 -33 -16 -141q-25 -245 -25 -410q0 -29 2.5 -90.5t27.5 -61.5q46 0 132 195q63 144 112 302q9 28 39 28q25 0 38 -17q8 -11 8 -25q0 -16 -60 -188q-151 -432 -313 -432z
" />
    <glyph glyph-name="b" unicode="b" horiz-adv-x="857" 
d="M127 7q-71 0 -87 65q-42 165 -42 565q0 211 10.5 459.5t22.5 404.5q3 39 24.5 58.5t53.5 25t65 5.5q29 0 56.5 -4t45 -20t17.5 -52q0 -38 -6 -90q-45 -387 -68 -858l23 68q29 89 70.5 163.5t97 120.5t128.5 46q61 0 104 -56.5t43 -167.5q0 -89 -13 -188
q-27 -198 -100 -340q144 75 227 265q33 78 58 164q8 28 38 28q25 0 38 -17q8 -11 8 -25q0 -10 -34 -114q-117 -373 -441 -441q-62 -53 -140 -53q-53 0 -83 34.5t-30 80.5q0 54 47 54q22 0 60 -14q52 43 89 170q51 171 51 363q0 28 -8 46t-23 18q-26 0 -63 -79
q-72 -153 -132 -382q-20 -80 -25 -134q-3 -40 -12.5 -104.5t-69.5 -64.5z" />
    <glyph glyph-name="c" unicode="c" horiz-adv-x="680" 
d="M256 7q-156 0 -229 99.5t-73 274.5q0 91 25 192.5t74 190t121 144.5t166 56q88 0 134 -50.5t46 -124.5q0 -78 -35 -133q-22 -34 -60 -34q-47 0 -47 22q0 8 8 20q39 57 39 110q0 31 -15.5 50t-38.5 19q-74 0 -125 -169q-45 -148 -45 -308q0 -50 9.5 -104.5t34 -92.5
t70.5 -38q52 0 103 42q159 133 262 468q8 28 38 28q25 0 37 -17q8 -12 8 -26q0 -11 -34 -113q-63 -190 -171 -331q-136 -175 -302 -175z" />
    <glyph glyph-name="d" unicode="d" horiz-adv-x="913" 
d="M198 212q26 0 63 76t72.5 178.5t59.5 190.5t27 120q-7 12 -23 22.5t-34 10.5q-89 0 -145 -181q-50 -162 -50 -353q0 -64 30 -64zM625 7q-199 0 -211 400v12q-41 -141 -91 -232q-85 -154 -207 -154q-66 0 -103.5 34.5t-52.5 88.5t-15 110q0 76 11 167.5t35.5 181t65.5 164
t101.5 120t142.5 45.5q72 0 125 -62q21 348 42 579q3 39 25 59q33 30 117 30q29 0 56.5 -4t45 -20t17.5 -52q0 -38 -7 -79q-10 -58 -48 -510q-32 -373 -32 -573q0 -29 2 -98.5t25 -69.5q46 0 132 195q63 144 112 302q9 28 39 28q25 0 38 -17q8 -11 8 -25q0 -16 -60 -188
q-151 -432 -313 -432z" />
    <glyph glyph-name="e" unicode="e" horiz-adv-x="680" 
d="M257 7q-156 0 -229 99.5t-73 274.5q0 91 25 192.5t74 190t121 144.5t166 56q172 0 172 -193q0 -93 -37.5 -186t-107.5 -154.5t-167 -64.5q0 -50 9.5 -104.5t34.5 -92.5t70 -38q52 0 103 42q93 78 172 235q54 109 90 233q8 28 38 28q25 0 38 -17q8 -11 8 -25
q0 -10 -34 -114q-63 -190 -171 -331q-136 -175 -302 -175zM205 446q68 6 117.5 57t76.5 123q25 67 25 128q0 89 -52 89q-73 0 -124 -163q-35 -114 -43 -234z" />
    <glyph glyph-name="f" unicode="f" horiz-adv-x="521" 
d="M236 -518q30 0 48 44.5t26.5 104t8.5 104.5q0 128 -22 229q-19 81 -65 169l-26 -8q-14 -205 -14 -355t13 -219t31 -69zM213 -655q-143 0 -197 218q-42 170 -42 484q0 333 53 938q14 159 26 316q3 39 25 59q34 30 118 30q29 0 56.5 -4t45 -20t17.5 -52q0 -38 -6 -90
q-54 -463 -91 -916l29 -44q106 36 171 136q60 92 103 241q8 28 38 28q25 0 38 -17q8 -11 8 -25q0 -9 -28 -95q-38 -114 -107 -210q-73 -103 -167 -156q97 -195 97 -425q0 -396 -187 -396z" />
    <glyph glyph-name="g" unicode="g" horiz-adv-x="889" 
d="M180 204q31 0 61 49t56.5 123t47 153.5t33.5 142.5t15 89q-8 12 -24 22t-34 10q-86 0 -140 -181q-45 -154 -45 -307q0 -101 30 -101zM150 -637q-78 0 -126.5 46t-48.5 130q0 177 144 323q98 98 265 196q11 207 18 373l-16 -61q-86 -326 -282 -326q-80 0 -119.5 67
t-39.5 214q0 129 38.5 267t111 229.5t174.5 91.5q76 0 121 -49l29 -32q8 61 41 96.5t109 35.5q101 0 101 -72q0 -146 -7 -291q-13 -253 -23 -364q190 172 249 404q7 28 39 28q24 0 37 -17q8 -12 8 -26q0 -8 -2 -16q-26 -100 -78 -202q-84 -166 -266 -304q-42 -386 -179 -579
q-116 -162 -298 -162zM140 -513q26 0 50 16q96 62 149 257q23 88 35 180q-97 -64 -163 -128q-129 -126 -129 -261q0 -31 18.5 -47.5t39.5 -16.5z" />
    <glyph glyph-name="h" unicode="h" horiz-adv-x="969" 
d="M661 -13q-110 0 -164 126q-46 109 -46 278q0 77 4 135.5t4 122.5q0 80 -20 80q-36 0 -76.5 -80.5t-75.5 -190t-57.5 -209t-22.5 -137.5q0 -63 -23 -84t-57 -21q-71 0 -88 65q-36 141 -38.5 295.5t-2.5 216.5q0 356 33 777q5 71 78 84q32 5 65 5q29 0 56.5 -4t45 -20
t17.5 -52q0 -38 -6 -90q-48 -414 -67 -751q43 127 90 211q100 180 228 180q154 0 154 -247q0 -129 -6 -253q-5 -108 -5 -195q0 -105 23 -105q46 0 124 156q33 67 61 137q53 135 80 224q8 28 38 28q19 0 32.5 -12t13.5 -30q0 -8 -16 -58q-55 -173 -119 -320
q-115 -262 -257 -262z" />
    <glyph glyph-name="i" unicode="i" 
d="M224 7q-127 0 -183 165q-44 130 -44 327q0 359 45 420q33 45 123 45q64 0 90 -18t26 -59q0 -18 -3 -40q-4 -29 -13.5 -121.5t-18 -210t-8.5 -213.5q0 -158 29 -158q47 0 133 195q69 156 112 302q8 28 38 28q25 0 38 -17q8 -11 8 -26t-59 -187q-151 -432 -313 -432z
M171 1021q-25 0 -48.5 4.5t-38.5 23.5t-15 60q0 52 16.5 77.5t45 34t62.5 8.5q25 0 48.5 -4.5t38.5 -23.5t15 -60q0 -120 -124 -120z" />
    <glyph glyph-name="j" unicode="j" horiz-adv-x="494" 
d="M-113 -655q-97 0 -153 56.5t-56 137.5q0 167 111 301q69 83 217 199v4q0 305 -6 507q-4 157 -4 292q0 94 73 113q34 9 82 9q103 0 103 -79q3 -293 3 -385q0 -135 -4 -256q59 58 109 128q101 141 132 268q7 29 37 29q25 0 38 -17q8 -11 8 -25q0 -8 -3 -17
q-23 -72 -54 -145q-74 -175 -227 -311l-46 -40q-7 -123 -18 -230q-25 -233 -94 -370q-85 -169 -248 -169zM123 1021q-25 0 -48.5 4.5t-38.5 23.5t-15 60q0 52 16.5 77.5t45 34t61.5 8.5q25 0 49 -4.5t39 -23.5t15 -60q0 -120 -124 -120zM-144 -534q95 0 128 189
q16 96 20 260l-47 -42q-76 -69 -123.5 -147t-47.5 -175q0 -37 17.5 -61t52.5 -24z" />
    <glyph glyph-name="k" unicode="k" horiz-adv-x="739" 
d="M128 7q-71 0 -87 60q-42 152 -42 519q0 194 10 422.5t23 371.5q3 36 24.5 54t53.5 23.5t65 5.5q29 0 56 -4t45 -18.5t18 -47.5q0 -36 -6 -83q-38 -297 -61 -681q134 96 238 306q16 33 53 33q26 0 49 -14.5t23 -38.5q0 -63 -110 -184q-86 -95 -147 -140q13 -62 47 -147
t73.5 -152t67.5 -67q25 0 50 31q83 103 168 385q9 28 39 28q25 0 38 -17q8 -11 8 -25q0 -13 -52 -167q-129 -383 -256 -383q-101 0 -202 145q-68 97 -99 190q-4 -101 -4 -196q-2 -209 -83 -209z" />
    <glyph glyph-name="l" unicode="l" horiz-adv-x="498" 
d="M210 7q-162 0 -200 263q-13 92 -13 220q0 204 20 502l21 304q9 154 147 154q29 0 56 -4t45 -20t18 -52q0 -48 -7 -101q-18 -138 -30 -277q-40 -452 -40 -694q0 -10 0.5 -84t25.5 -74q47 0 132 195q72 163 113 302q9 28 38 28q25 0 38 -17q8 -11 8 -25q0 -19 -60 -188
q-154 -432 -312 -432z" />
    <glyph glyph-name="m" unicode="m" horiz-adv-x="1313" 
d="M1005 -33q-116 0 -163 102t-47 302q0 77 4 146q4 55 4 112l-1 46q-1 54 -19 54q-33 0 -61.5 -67t-51 -163t-37.5 -190q-7 -46 -18 -97t-33 -88t-60 -37q-91 0 -91 178l1 276q0 60 -9 104t-27 44q-36 0 -70 -74.5t-61.5 -176t-44 -194.5t-16.5 -133q0 -64 -22.5 -84
t-56.5 -20q-71 0 -88 63q-38 139 -38 486q0 195 9 288q4 38 20.5 57t44 25t60.5 6q29 0 56 -4t45 -19.5t18 -50.5q0 -37 -6 -77q-13 -91 -21 -185q110 280 254 280q54 0 84.5 -30.5t44.5 -78t17 -99.5q27 71 64 128.5t85 92.5t108 35t93.5 -33.5t47.5 -89.5t14 -124
q0 -129 -6 -264q-5 -117 -5 -213t22 -96q44 0 124 171q90 194 141 366q8 28 38 28q25 0 38 -17q8 -11 8 -25q0 -8 -3 -17q-111 -350 -201 -500q-86 -143 -188 -143z" />
    <glyph glyph-name="n" unicode="n" horiz-adv-x="965" 
d="M658 -13q-116 0 -163 104.5t-47 299.5q0 77 4 154q5 87 5 170q0 54 -21 54q-28 0 -60.5 -57.5t-62.5 -144.5t-54.5 -180t-39 -168.5t-14.5 -108.5q0 -63 -23 -83t-57 -20q-71 0 -88 63q-38 139 -38 486q0 195 9 288q4 38 21 57t44 25t60 6q29 0 56 -4t45 -19.5t18 -50.5
q0 -37 -6 -77q-14 -104 -23 -212q126 395 313 395q59 0 92.5 -33.5t47.5 -89.5t14 -124q0 -129 -6 -275q-5 -128 -5 -226q0 -92 23 -92q46 0 124 157t139 360q8 28 40 28q24 0 37 -17q8 -12 8 -26q0 -9 -2 -16q-105 -345 -201 -491q-86 -132 -189 -132z" />
    <glyph glyph-name="o" unicode="o" horiz-adv-x="766" 
d="M273 25q-81 0 -134 42q-147 115 -147 437q0 77 10.5 170t63.5 151q31 34 82 34q29 0 49 -6q52 131 168 131q204 0 204 -333q0 -144 -24 -274q135 1 201 202l19.5 62.5t39.5 27.5q24 0 37 -17q8 -12 8 -26q0 -13 -24 -85q-82 -251 -302 -253q-76 -263 -251 -263zM431 403
q21 114 21 233q0 100 -14 162q-21 90 -81 90q-34 0 -53 -34.5t-26.5 -82t-7.5 -87.5q0 -100 41 -168q45 -77 120 -113zM293 138q71 0 117 170q-125 46 -189 169q-5 -69 -5 -124q0 -59 6.5 -108t23.5 -78t47 -29z" />
    <glyph glyph-name="p" unicode="p" horiz-adv-x="866" 
d="M109 -619q-71 0 -87 65q-42 164 -42 564q0 211 10.5 460t22.5 404q3 40 24.5 59t53.5 25t65 6q29 0 56 -4t45 -20t18 -52q0 -39 -7 -90q-9 -76 -17 -158q111 324 296 324q60 0 103.5 -56.5t43.5 -167.5q0 -89 -13 -188q-27 -198 -100 -340q144 75 227 265q33 78 58 164
q8 28 38 28q25 0 38 -17q8 -11 8 -25q0 -10 -34 -114q-117 -373 -441 -441q-62 -53 -140 -53q-53 0 -84.5 29.5t-31.5 85.5q0 54 50 54q22 0 60 -14q52 43 89 170q51 171 51 363q0 28 -8.5 46t-22.5 18q-47 0 -135 -264q-78 -225 -94 -425q-20 -342 -20 -597
q0 -63 -23 -83.5t-57 -20.5z" />
    <glyph glyph-name="q" unicode="q" horiz-adv-x="943" 
d="M199 212q26 0 62.5 76t72 178.5t60 190.5t27.5 120q-22 33 -58 33q-88 0 -144 -181q-51 -162 -51 -353q0 -27 8 -45.5t23 -18.5zM636 -655q-143 0 -197 218q-41 166 -41 484q0 184 3 329q-106 -343 -284 -343q-66 0 -103.5 34.5t-53 88.5t-15.5 110q0 76 11 167.5
t35.5 181t66 164t101.5 120t142 45.5q79 0 137 -76q9 37 19 51q33 45 123 45q64 0 90 -18t26 -59q0 -18 -3 -40q-31 -222 -45 -451l-6 -88l30 -45q168 57 248 303q14 43 23 75q8 28 40 28q24 0 37 -17q8 -12 8 -26q0 -12 -14 -58q-40 -134 -120 -246q-74 -102 -168 -156
q98 -197 98 -425q0 -396 -188 -396zM660 -518q29 0 47 44.5t26.5 104t8.5 104.5q0 128 -22 229q-18 81 -65 169l-26 -8q-14 -205 -14 -355t13 -219t32 -69z" />
    <glyph glyph-name="r" unicode="r" horiz-adv-x="675" 
d="M388 7q-117 0 -175.5 88.5t-58.5 243.5q0 84 21 207t45 203q-50 14 -93 36q-23 -101 -46 -175q-9 -29 -38 -29q-25 0 -38 18q-8 11 -8 24q0 8 3 18q27 79 45 201q-69 63 -69 153v40q0 54 26 70.5t75 16.5q20 0 41 -3.5t34.5 -15.5t13.5 -37q0 -83 -18 -172
q56 -65 183 -92q73 -15 106 -42q22 -18 22 -62q0 -33 -15 -101q-47 -219 -47 -357q0 -96 35 -96q46 0 132 195q63 144 111 302q8 28 40 28q24 0 37 -17q8 -12 8 -26q0 -15 -59 -187q-151 -432 -313 -432z" />
    <glyph glyph-name="s" unicode="s" 
d="M208 -21q42 0 42 60t-28 125q-57 -51 -57 -117q0 -25 12 -46.5t31 -21.5zM203 -105q-64 0 -107.5 44t-43.5 111q0 105 94 181l31 24q-21 41 -46 82q-33 56 -63.5 114t-50.5 116t-20 116q0 138 75.5 206t176.5 68q18 0 40 -3.5t38 -13t16 -28.5q0 -43 -69 -49
q-87 -7 -87 -80q0 -66 26.5 -134t62.5 -140q34 -66 63 -137l50 44q74 69 111 185l12 40q8 28 40 28q25 0 37 -17q8 -12 8 -26q0 -9 -5 -25q-53 -162 -142 -251q-40 -40 -79 -73q25 -86 25 -173q0 -88 -51 -148.5t-142 -60.5z" />
    <glyph glyph-name="t" unicode="t" horiz-adv-x="497" 
d="M210 -13q-64 0 -104 39q-74 71 -95 236q-14 106 -14 237q0 175 21 499q-44 2 -86 6q-20 2 -26 23.5t-6 57.5q0 17 3 32.5t20 16.5q14 0 31 -2q36 -5 73 -9q3 56 9 116q3 39 25 59q34 31 118 31q28 0 54 -4.5t42.5 -20.5t16.5 -52q0 -38 -7 -90q-4 -25 -7 -56
q35 -1 114 -1q36 0 36 -39q0 -35 -21 -44q-43 -18 -140 -24q-40 -455 -40 -719q0 -155 26 -155q45 0 129 202q73 176 115 315q9 28 39 28q25 0 38 -17q8 -11 8 -25q0 -13 -50 -162q-160 -478 -322 -478z" />
    <glyph glyph-name="u" unicode="u" horiz-adv-x="972" 
d="M684 7q-66 0 -109.5 41t-69 109.5t-36.5 152.5q-19 -61 -49.5 -121t-77 -100.5t-116.5 -40.5q-83 0 -126.5 38.5t-66.5 107.5t-29.5 160.5t-6.5 197.5q0 290 42 347q33 45 113 45q64 0 90.5 -18t26.5 -59q0 -18 -3 -40q-41 -263 -41 -485q0 -69 12 -103.5t48 -34.5
q61 0 125.5 268t64.5 370q0 50 20.5 76t54.5 36t75 10q64 0 90 -18t26 -59q0 -18 -16 -142q-27 -262 -27 -443q0 -158 29 -158q46 0 132 195q63 144 113 302q8 28 38 28q25 0 38 -17q8 -11 8 -25q0 -15 -60 -188q-151 -432 -312 -432z" />
    <glyph glyph-name="v" unicode="v" horiz-adv-x="776" 
d="M525 845q0 19 -4 34t-14 15q-19 0 -33 -55.5t-14 -132.5t14 -144q17 61 29 115q22 105 22 168zM426.5 953q39.5 38 96.5 38q54 0 83.5 -39.5t29.5 -105.5q0 -63 -27 -185q-25 -114 -64 -231q24 -15 56 -15q62 0 104 58q34 46 71 168q8 28 38 28q25 0 37 -17q8 -12 8 -26
q0 -11 -15 -58q-34 -108 -77 -161q-67 -83 -169 -83q-45 0 -83 19q-124 -336 -233 -336q-107 0 -178 181q-41 103 -74 283q-49 259 -49 335q0 32 14.5 56t45 35.5t66.5 11.5q37 0 66 -6t47 -27t20 -65q10 -240 24 -381t27.5 -200.5t20.5 -59.5q16 0 52 78q32 70 67 175
q-76 119 -76 305q0 66 16 126.5t55.5 98.5z" />
    <glyph glyph-name="w" unicode="w" horiz-adv-x="1223" 
d="M269 -31q-100 0 -159.5 94.5t-85.5 276t-26 442.5q0 74 35 100.5t90 26.5q36 0 66 -6t48 -27t18 -65q0 -224 2.5 -379t14.5 -235.5t39 -80.5q45 0 80 228q27 178 30 350q1 29 5 62q13 93 129 93q36 0 65 -6q63 -13 67 -92q15 -343 37 -452q18 -89 51 -89q16 0 46 40
q36 48 69 141q-24 26 -44 62q-64 117 -64 275q0 86 20 157.5t59.5 114.5t97.5 43q44 0 68.5 -23t34.5 -60.5t10 -81.5q0 -240 -61 -457q18 -6 38 -6q61 0 103 58q34 46 71 168q8 28 38 28q25 0 38 -17q8 -11 8 -25q0 -7 -26 -86q-29 -87 -67 -134q-66 -83 -169 -83
q-33 0 -63 9q-48 -133 -114 -212q-63 -74 -138 -74q-54 0 -98 28q-85 54 -139 278q-18 -107 -48 -196q-66 -188 -176 -188zM925 513q36 162 36 364q0 9 -2 25.5t-6 30t-10 13.5q-20 0 -38 -70t-18 -170q0 -111 38 -193z" />
    <glyph glyph-name="x" unicode="x" horiz-adv-x="625" 
d="M348 -53q-110 0 -206 220l-23 52l-120 -212q-16 -27 -29.5 -34t-36.5 -7q-34 0 -34 44q0 21 171 348q-35 110 -61 235q-34 164 -34 217q0 51 27 74q31 26 125 26q36 0 65.5 -14t38.5 -82l17 -118l123 235q17 33 54 33q25 0 48.5 -14.5t23.5 -38.5q0 -12 -218 -404
q67 -387 97 -387q22 0 55 54q57 95 124 267q46 119 70 200q9 28 39 28q25 0 38 -17q8 -11 8 -26q0 -14 -34 -121q-81 -254 -171 -413q-82 -145 -157 -145z" />
    <glyph glyph-name="y" unicode="y" horiz-adv-x="959" 
d="M218 -637q-78 0 -126.5 46t-48.5 130q0 176 145 323q96 96 264 196l11 202q-14 -36 -32 -71q-70 -141 -194 -141q-83 0 -131.5 38.5t-71.5 107.5t-29.5 140.5t-6.5 177.5q0 331 42 387q34 45 124 45q63 0 89.5 -18t26.5 -59q0 -18 -3 -40q-40 -256 -40 -485
q0 -69 16.5 -113.5t52.5 -44.5t69 63.5t58 163.5q33 136 42 284q5 102 13 145q9 55 41 89.5t108 34.5q100 0 100 -70l-5 -213q-6 -250 -22 -442q193 176 249 402q7 28 37 28q25 0 38 -17q8 -11 8 -25q0 -9 -2 -17q-26 -100 -79 -202q-85 -167 -265 -304q-15 -127 -35 -221
q-47 -222 -145 -358q-116 -162 -298 -162zM208 -513q47 0 95 55q105 123 140 398q-95 -63 -163 -128q-129 -125 -129 -261q0 -31 18.5 -47.5t38.5 -16.5z" />
    <glyph glyph-name="z" unicode="z" horiz-adv-x="677" 
d="M70 -655q-97 0 -153 56.5t-56 137.5q0 167 111 301q77 92 252 226l72 56q-10 60 -37 99t-84 39q-10 0 -65 -6h-2q-22 0 -22 55q0 41 31 97.5t68 112.5q72 110 72 142q0 61 -131 124q-22 -101 -46 -175q-9 -29 -38 -29q-25 0 -37 18q-8 12 -8 25q0 8 3 17q26 79 45 201
q-70 63 -70 153v40q0 54 26 70.5t75 16.5q21 0 41.5 -3.5t34.5 -15.5t14 -37q0 -83 -18 -172q29 -30 70.5 -49.5t85.5 -35.5t81.5 -34t61 -43t23.5 -64q0 -30 -28 -72t-66.5 -86l-72.5 -80t-50 -56q129 0 209 -105q45 47 84 102q100 142 131 269q7 29 37 29q25 0 38 -17
q8 -11 8 -25q0 -8 -3 -17q-23 -72 -54 -145t-81 -146t-113 -134q29 -74 29 -163q0 -110 -35.5 -228.5t-99 -220t-149 -165t-184.5 -63.5zM39 -534q63 0 124.5 74.5t102 190t40.5 238.5q0 22 -1 43q-89 -70 -165 -139t-123.5 -147t-47.5 -175q0 -37 17.5 -61t52.5 -24z" />
    <glyph glyph-name="braceleft" unicode="{" horiz-adv-x="676" 
d="M554 -426q-323 0 -324 397v67q0 68 3 134q4 78 4 148q0 152 -50 207q-28 31 -82 31q-25 0 -25 35q0 12 4 25q6 20 21 20q54 0 82 31.5t39 85t11 122.5q0 70 -4 148q-3 66 -3 134q0 117 13 195q43 269 311 269q17 0 29.5 -12t12.5 -28q0 -17 -12.5 -28.5t-29.5 -11.5
q-55 0 -83.5 -31.5t-39.5 -85.5t-11 -96v-56q0 -58 3.5 -122t3.5 -130q0 -44 -2 -88q-7 -250 -147 -336q80 -48 112 -137t34.5 -165.5t2.5 -120.5q0 -66 -3.5 -130t-3.5 -122q0 -97 11 -152q24 -117 123 -117q17 0 29.5 -11.5t12.5 -28.5q0 -16 -12.5 -28t-29.5 -12z" />
    <glyph glyph-name="bar" unicode="|" horiz-adv-x="405" 
d="M208 -405q-105 0 -120 605q-8 297 -8 507q0 463 27 928q4 84 64 100q26 7 54 7q25 0 48 -5t37.5 -24t14.5 -62q0 -27 -7 -120q-32 -428 -38.5 -846.5t-6.5 -798.5v-171q0 -72 -18.5 -96t-46.5 -24z" />
    <glyph glyph-name="braceright" unicode="}" horiz-adv-x="676" 
d="M122 -426q-17 0 -29.5 12t-12.5 28q0 17 12.5 28.5t29.5 11.5q99 0 123 117q11 55 11 152q0 58 -3.5 122t-3.5 130q0 44 2.5 120.5t34.5 165.5t112 137q-141 86 -147 336q-2 44 -2 88q0 66 3.5 130t3.5 122v56t-11 96t-39.5 85.5t-83.5 31.5q-17 0 -29.5 11.5t-12.5 28.5
q0 16 12.5 28t29.5 12q267 0 311 -269q13 -78 13 -195q0 -68 -3 -134q-4 -78 -4 -148q0 -69 11 -122.5t39 -85t82 -31.5q15 0 21 -20q4 -13 4 -25q0 -35 -25 -35q-54 0 -82 -31q-50 -55 -50 -207q0 -70 4 -148q3 -66 3 -134v-67q-1 -397 -324 -397z" />
    <glyph glyph-name="asciitilde" unicode="~" horiz-adv-x="880" 
d="M603 470q-62 0 -108.5 22t-86.5 49q-35 23 -70 40.5t-75 17.5q-38 0 -57.5 -24.5t-32.5 -52.5q-10 -21 -21 -36.5t-29 -15.5q-43 0 -43 64q0 81 58 137t139 56q65 0 117 -24t96 -52q34 -22 65.5 -37.5t62.5 -15.5q26 0 43 12t28 30t20.5 37.5t20 34.5t26.5 15
q44 0 44 -64q0 -81 -58 -137t-139 -56z" />
    <glyph glyph-name="exclamdown" unicode="&#xa1;" horiz-adv-x="533" 
d="M316 504q71 0 88 -52q36 -113 38.5 -251.5t2.5 -194.5q0 -167 -9 -336q-11 -226 -24 -349q-3 -31 -24.5 -46t-53.5 -20t-65 -5q-29 0 -56 3.5t-45 16t-18 41.5q0 30 4 63q82 632 82 1047q0 50 23 66.5t57 16.5zM338 844q28 0 53.5 -5.5t42.5 -27t17 -69.5
q0 -59 -18.5 -88.5t-49.5 -39t-68 -9.5q-28 0 -53.5 5.5t-42.5 27t-17 68.5q0 138 136 138z" />
    <glyph glyph-name="cent" unicode="&#xa2;" horiz-adv-x="826" 
d="M497 964l49 192q10 39 46 39q11 0 24 -3q46 -15 46 -52q0 -14 -15 -65q-19 -62 -42 -147q8 -7 15 -14q46 -51 46 -125q0 -78 -35 -133q-22 -34 -60 -34q-47 0 -47 22q0 8 8 20q39 57 39 110q0 31 -15.5 50t-38.5 19q-74 0 -125 -169q-45 -148 -45 -308q0 -50 9.5 -104.5
t34 -92.5t70.5 -38q52 0 103 42q159 133 262 468q8 28 38 28q25 0 37 -17q8 -12 8 -26q0 -11 -34 -113q-63 -190 -171 -331q-136 -175 -302 -175q-11 0 -22 1l-46 -211q-11 -52 -37 -52q-5 0 -12 2q-30 10 -30 51q1 64 31 227q-71 24 -113 82q-73 99 -73 274q0 91 25 192.5
t74 190t121 144.5t166 56h11z" />
    <glyph glyph-name="sterling" unicode="&#xa3;" horiz-adv-x="820" 
d="M288 -28q-32 0 -70.5 13.5t-66.5 38.5t-28 61q0 17 10 35q91 168 94 309v38q0 52 -2 83h-126q-26 0 -37.5 18.5t-11.5 41.5q0 24 10.5 44t29.5 20q55 0 121 -2q-28 157 -28 247q0 143 79 223t234 80q119 0 168.5 -68t49.5 -139q0 -3 -1.5 -41.5t-46.5 -57.5
q-19 -8 -36 -8q-22 0 -22 17q0 7 3 16q4 16 4 38q0 36 -9 65q-21 66 -87 66q-56 0 -81 -73q-18 -55 -18 -118q0 -71 6 -152q4 -51 5 -104q130 -5 205 -7q40 -1 40 -42q0 -42 -23 -45q-78 -10 -220 -14l-1 -62q-1 -64 -32 -173.5t-112 -202.5q206 31 304 44q69 9 120 9
q32 0 45 -16.5t13 -36.5q0 -22 -14 -36t-61 -25q-330 -84 -407 -84z" />
    <glyph glyph-name="currency" unicode="&#xa4;" horiz-adv-x="854" 
d="M720 250q-21 0 -44 22l-98 94q-68 -48 -156 -48q-85 0 -150 44l-94 -90q-23 -22 -44 -22q-17 0 -32 15t-18.5 26.5t-3.5 16.5q0 15 111 136q-43 65 -43 148q0 80 40 144l-92 89q-16 17 -16 38q0 30 26 56q22 22 52 22q24 0 47 -23l85 -84q59 33 132 33q77 0 139 -37
l88 88q23 23 47 23q30 0 54 -23.5t24 -56.5q0 -19 -16 -35q-45 -47 -97 -96q36 -62 36 -138q0 -78 -39 -141q116 -127 116 -143q0 -5 -3.5 -16.5t-18 -26.5t-32.5 -15zM422 439q63 0 108 45t45 108q0 64 -45 108.5t-108 44.5t-108 -44.5t-45 -108.5q0 -63 45 -108t108 -45z
" />
    <glyph glyph-name="yen" unicode="&#xa5;" horiz-adv-x="732" 
d="M360 -7q-53 0 -65 48q-23 93 -30 246q-97 -3 -172 -3q-19 0 -29.5 20t-10.5 43q0 24 11.5 42.5t36.5 18.5l161 -1v65l-161 -1q-25 0 -36.5 18.5t-11.5 42.5q0 23 10.5 43t29.5 20l82 -1q-55 108 -89 304q-36 206 -36 252q0 14 4 31t25 30.5t68 13.5q73 0 103.5 -18.5
t30.5 -64.5v-96q0 -79 8 -178t27 -184t42 -85q19 0 92 247q63 214 84 318q5 27 19 44t62 17q30 0 52 -16q15 -11 15 -30q0 -8 -3 -18l-186 -536q-7 -23 -16 -42q99 -5 162 -6q40 -1 40 -42q0 -42 -23 -45q-78 -9 -221 -14l-4 -73q146 -5 225 -14q23 -3 23 -45q0 -41 -40 -42
q-78 -2 -213 -8q-5 -123 -5 -225q0 -46 -17.5 -61t-43.5 -15z" />
    <glyph glyph-name="section" unicode="&#xa7;" horiz-adv-x="902" 
d="M460 -231q-141 0 -206.5 77t-65.5 171q0 41 20 69t60 28q29 0 29 -18q0 -7 -2 -18q-4 -22 -4 -44q0 -32 15 -65.5t51 -56t99 -22.5q49 0 80.5 21t47 54t15.5 69q0 40 -29 79t-75.5 79.5t-102 82.5t-110 88.5t-100.5 99t-74 112t-28 129.5q0 78 41 154.5t125 122.5
q-116 123 -116 253q0 74 34.5 147t104 120t173.5 47q141 0 206.5 -77t65.5 -171q0 -41 -20 -69.5t-60 -28.5q-29 0 -29 19q0 7 2 18q4 21 4 44q0 32 -15 65.5t-51 56t-99 22.5q-49 0 -80.5 -21.5t-47 -54.5t-15.5 -68q0 -40 29 -79.5t75.5 -79.5t102 -82.5t110 -89
t100.5 -98.5t74 -112t28 -129q0 -78 -41 -155t-125 -123q116 -121 116 -253q0 -74 -34.5 -146.5t-104 -119.5t-173.5 -47zM552 430q52 17 74.5 55t22.5 79q0 46 -30.5 88.5t-79.5 84t-106 85.5q-42 31 -83 65q-52 -18 -74.5 -55.5t-22.5 -79.5q0 -46 30.5 -88t79.5 -84
t106 -85z" />
    <glyph glyph-name="dieresis" unicode="&#xa8;" horiz-adv-x="686" 
d="M183 1021q-25 0 -48.5 5t-39 23.5t-15.5 60.5q0 51 17 77t45 34.5t62 8.5q25 0 48.5 -5t39 -23.5t15.5 -60.5q0 -120 -124 -120zM482 1021q-25 0 -48.5 5t-38.5 23.5t-15 60.5q0 51 16.5 77t45 34.5t61.5 8.5q25 0 49 -5t39 -23.5t15 -60.5q0 -120 -124 -120z" />
    <glyph glyph-name="copyright" unicode="&#xa9;" horiz-adv-x="1246" 
d="M604 256q-124 0 -182.5 79.5t-58.5 219.5q0 97 35.5 185.5t104 144.5t169.5 56q70 0 106.5 -40.5t36.5 -98.5q0 -64 -27 -107q-17 -27 -50 -27q-36 0 -36 17q0 6 6 16q31 47 31 88q0 25 -12 40t-30 15q-69 0 -107 -116q-30 -93 -30 -185q0 -40 7.5 -83.5t27.5 -74.5
t56 -31q52 0 102 39q9 8 19 8q9 0 17 -5q24 -15 24 -40q0 -15 -15 -28q-87 -72 -194 -72zM613 44q134 0 244 75t175.5 200.5t65.5 278.5q0 154 -65.5 279.5t-175.5 200.5t-244 75t-244 -75t-175.5 -200.5t-65.5 -279.5q0 -153 65.5 -278.5t175.5 -200.5t244 -75zM613 -28
q-154 0 -280.5 84.5t-202 226.5t-75.5 315q0 174 75.5 316t202 226.5t280.5 84.5t280.5 -84.5t202 -226.5t75.5 -316q0 -173 -75.5 -315t-202 -226.5t-280.5 -84.5z" />
    <glyph glyph-name="guillemotleft" unicode="&#xab;" horiz-adv-x="771" 
d="M349 29q-24 0 -43 29l-183 286q-23 36 -23 71q0 29 15 57l158 287q11 20 34 20q25 0 49 -14q48 -27 48 -56q0 -21 -171 -280q171 -308 171 -348q0 -28 -28 -44q-14 -8 -27 -8zM616 29q-24 0 -43 29l-183 286q-23 36 -23 71q0 29 15 57l158 287q11 20 34 20q25 0 50 -14
q47 -27 47 -56q0 -21 -171 -280q171 -308 171 -348q0 -28 -28 -44q-14 -8 -27 -8z" />
    <glyph glyph-name="logicalnot" unicode="&#xac;" horiz-adv-x="920" 
d="M759 238q-20 0 -36 7q-33 14 -37 279v13q-134 -10 -530 -10q-29 1 -42.5 22.5t-13.5 47.5q0 27 12.5 50t33.5 23q142 0 349 -10q180 -8 279 -11q46 -1 46 -48q0 -23 -1 -38q-8 -180 -11 -278q-1 -47 -49 -47z" />
    <glyph glyph-name="registered" unicode="&#xae;" horiz-adv-x="1276" 
d="M497 256q-90 0 -95 263l-1 125q0 129 8 230q3 43 28.5 55t61.5 12q21 0 40.5 -3t32.5 -15t13 -39q0 -22 -3 -45q34 39 84 67t107 28q65 0 92.5 -32.5t27.5 -77.5q0 -46 -44 -116.5t-150 -130.5l61 -85q114 -159 114 -181q0 -13 -20 -19q-8 -3 -16 -3q-39 0 -148.5 144.5
t-109.5 159.5q0 10 31.5 18.5t63.5 39.5q89 86 89 176q0 19 -8 24t-20 5q-40 0 -100.5 -58t-67.5 -141q-13 -151 -13 -323q0 -78 -58 -78zM638 44q134 0 244 75t175.5 200.5t65.5 278.5q0 154 -65.5 279.5t-175.5 200.5t-244 75t-244 -75t-175.5 -200.5t-65.5 -279.5
q0 -153 65.5 -278.5t175.5 -200.5t244 -75zM638 -28q-154 0 -280.5 84.5t-202 226.5t-75.5 315q0 174 75.5 316t202 226.5t280.5 84.5t280.5 -84.5t202 -226.5t75.5 -316q0 -173 -75.5 -315t-202 -226.5t-280.5 -84.5z" />
    <glyph glyph-name="macron" unicode="&#xaf;" horiz-adv-x="810" 
d="M176 1073h-2q-22 0 -33 21t-11 48q0 73 39 73q117 0 290 -10q137 -8 217 -10q54 -2 54 -49q0 -48 -51 -55q-152 -17 -503 -18z" />
    <glyph glyph-name="degree" unicode="&#xb0;" horiz-adv-x="472" 
d="M220 746q-46 0 -87 23.5t-67 70.5t-26 118q0 61 22.5 122.5t68.5 103t117 41.5q87 0 135.5 -57.5t48.5 -162.5q0 -116 -57.5 -187.5t-154.5 -71.5zM246 822q36 0 69 49.5t33 146.5q0 122 -73 122q-48 0 -72 -59.5t-24 -144.5q0 -59 20 -86.5t47 -27.5z" />
    <glyph glyph-name="plusminus" unicode="&#xb1;" horiz-adv-x="920" 
d="M463 238q-20 0 -36 7q-33 14 -37 284q-142 -2 -234 -2q-29 1 -42.5 22.5t-13.5 47.5q0 27 12.5 50t33.5 23q104 0 242 -5l-1 238q0 29 22 42t50 13t51.5 -12t23.5 -34q0 -107 -6 -253q156 -7 246 -10q46 -1 46 -48q0 -19 -7 -35q-13 -31 -291 -35q-7 -157 -10 -246
q-1 -47 -49 -47zM156 0q-29 0 -42.5 21.5t-13.5 48.5t12.5 50t33.5 23q142 0 349 -10q180 -9 279 -11q46 -1 46 -49q0 -18 -7 -34q-13 -32 -279 -36q-242 -3 -378 -3z" />
    <glyph glyph-name="acute" unicode="&#xb4;" horiz-adv-x="500" 
d="M128 999q-12 0 -21 5q-27 14 -27 39q0 13 11 29l57 83q95 141 115.5 158.5t59.5 17.5q15 0 38 -14t41 -37.5t18 -53.5q0 -36 -87 -109q-55 -45 -114 -81.5t-91 -36.5z" />
    <glyph glyph-name="mu" unicode="&#xb5;" horiz-adv-x="983" 
d="M124 -405q-105 0 -120 605q-6 215 -6 352q0 290 42 347q33 45 123 45q64 0 90.5 -18t26.5 -59q0 -18 -3 -40q-41 -263 -41 -485q0 -69 17 -113.5t53 -44.5t68.5 63.5t57.5 163t39.5 214.5t14.5 217q0 50 20.5 76t54.5 36t75 10q64 0 90 -18t26 -59q0 -18 -16 -142
q-27 -262 -27 -443q0 -158 29 -158q46 0 132 195q63 144 113 302q8 28 38 28q25 0 38 -17q8 -11 8 -25q0 -15 -60 -188q-151 -432 -312 -432q-66 0 -109.5 41t-69 109.5t-36.5 152.5q-19 -61 -49.5 -121t-77 -100.5t-116.5 -40.5q-25 0 -48 4v-337q0 -72 -18.5 -96
t-46.5 -24z" />
    <glyph glyph-name="paragraph" unicode="&#xb6;" horiz-adv-x="978" 
d="M666 -239q-96 0 -110 510q-7 250 -7 427q0 366 21 733l-111 -3q-32 -396 -37 -681q-6 -329 -6 -763q0 -56 -16.5 -75t-42.5 -19q-96 0 -110 476q-7 234 -7 399q0 122 3 245q-193 98 -193 274q0 61 22.5 122.5t84 117t220.5 55.5q167 -2 385 -2q107 0 141.5 -17t34.5 -44
q0 -47 -167 -71l-4 -54q-30 -360 -36 -712.5t-6 -816.5q0 -60 -16.5 -80.5t-42.5 -20.5z" />
    <glyph glyph-name="periodcentered" unicode="&#xb7;" horiz-adv-x="508" 
d="M146 743q-23 0 -45 5t-36.5 23t-14.5 59q0 50 16 75t42 33.5t58 8.5q23 0 45 -5t36.5 -23t14.5 -59q0 -117 -116 -117z" />
    <glyph glyph-name="periodcentered" unicode="&#x2219;" horiz-adv-x="508" 
d="M146 743q-23 0 -45 5t-36.5 23t-14.5 59q0 50 16 75t42 33.5t58 8.5q23 0 45 -5t36.5 -23t14.5 -59q0 -117 -116 -117z" />
    <glyph glyph-name="cedilla" unicode="&#xb8;" horiz-adv-x="401" 
d="M183 -385q-32 0 -56 5q-47 11 -47 32q0 24 52 30q69 7 69 55q0 58 -57 129q-4 6 -4 15q0 23 18 44q33 38 47 76q19 52 37 52q31 0 31 -49q0 -41 -46 -100q94 -93 94 -169q0 -14 -3 -25q-25 -95 -135 -95z" />
    <glyph glyph-name="guillemotright" unicode="&#xbb;" horiz-adv-x="771" 
d="M155 29q-13 0 -27 8q-28 16 -28 44q0 40 171 348q-171 259 -171 280q0 29 47 56q25 14 50 14q23 0 34 -20l158 -287q15 -28 15 -57q0 -35 -23 -71l-183 -286q-19 -29 -43 -29zM422 29q-13 0 -27 8q-28 16 -28 44q0 40 171 348q-171 259 -171 280q0 29 48 56q24 14 49 14
q23 0 34 -20l158 -287q15 -28 15 -57q0 -35 -23 -71l-183 -286q-19 -29 -43 -29z" />
    <glyph glyph-name="onequarter" unicode="&#xbc;" horiz-adv-x="1192" 
d="M265 433q-66 0 -81 45q-26 72 -27.5 157.5t-1.5 121.5q0 145 6 216q-56 -60 -97 -60q-21 0 -40 14.5t-19 34.5q0 12 11 24q78 82 156 192q33 47 125 47q102 0 102 -56q0 -20 -5 -46q-22 -139 -36.5 -315t-14.5 -305q0 -70 -78 -70zM273 -28q-31 0 -31 38q0 17 6 37
q60 210 358 796q124 245 176 339q24 43 102 43q56 0 56 -21q0 -14 -23 -53q-98 -162 -304 -570q-181 -357 -274 -561q-22 -48 -66 -48zM970 0q-66 0 -81 44q-25 72 -26 133q-99 -17 -129 -17q-25 0 -55.5 9.5t-54 29.5t-23.5 48q0 32 131 239q80 125 138 232q5 10 12 26
t26 28.5t44 16t49 3.5q20 0 42.5 -2.5t41.5 -15.5t19 -38q0 -28 -4 -52q-29 -175 -42 -366h30q35 0 49.5 -17t14.5 -34q0 -19 -14.5 -35.5t-56.5 -21.5l-30 -3q-3 -68 -3 -137q0 -39 -23.5 -54.5t-54.5 -15.5zM785 287q33 5 76 10l-1 22v93z" />
    <glyph glyph-name="onehalf" unicode="&#xbd;" horiz-adv-x="1252" 
d="M265 433q-66 0 -81 45q-26 72 -27.5 157.5t-1.5 121.5q0 145 6 216q-56 -60 -97 -60q-21 0 -40 14.5t-19 34.5q0 12 11 24q78 82 156 192q33 47 125 47q102 0 102 -56q0 -20 -5 -46q-22 -139 -36.5 -315t-14.5 -305q0 -70 -78 -70zM273 -28q-31 0 -31 38q0 17 6 37
q60 210 358 796q124 245 176 339q24 43 102 43q56 0 56 -21q0 -14 -23 -53q-98 -162 -304 -570q-181 -357 -274 -561q-22 -48 -66 -48zM862 0q-26 0 -55.5 9.5t-53.5 29.5t-24 49q0 22 73 143l72 125q85 153 85 232q0 95 -38 95q-19 0 -32 -29q-5 -11 -5 -32q0 -11 2.5 -17
t2.5 -13q0 -30 -40 -30q-80 0 -80 84q0 59 45.5 101.5t134.5 42.5q99 0 157.5 -54.5t58.5 -147.5q0 -101 -97 -258q-33 -52 -130 -195q28 4 72 11t71.5 10t57.5 3q63 0 63 -52q0 -20 -15 -33.5t-54 -23.5q-214 -50 -271 -50z" />
    <glyph glyph-name="threequarters" unicode="&#xbe;" horiz-adv-x="1197" 
d="M173 432q-30 0 -62.5 8.5t-57 24.5t-24.5 36q0 29 44 32q48 5 86.5 24t61.5 54t23 89q0 18 -5.5 38t-15 30t-24.5 10q-6 0 -16 -4.5t-21 -4.5q-22 0 -41 17t-19 40q0 18 36 43q74 48 74 152q0 34 -11.5 64t-27.5 30q-36 0 -36 -58q0 -13 1 -16q3 -10 3 -17q0 -30 -40 -30
q-74 0 -74 70q0 60 45.5 109.5t139.5 49.5q92 0 140 -49.5t48 -128.5q0 -113 -84 -174q23 -4 69 -51t46 -128q0 -62 -30.5 -123t-89 -99t-138.5 -38zM298 -28q-31 0 -31 38q0 17 6 37q60 210 358 796q124 245 176 339q24 43 102 43q56 0 56 -21q0 -14 -23 -53
q-98 -162 -304 -570q-181 -357 -274 -561q-22 -48 -66 -48zM975 0q-66 0 -81 44q-25 72 -27 133q-98 -17 -128 -17q-26 0 -56 9.5t-53.5 29.5t-23.5 48q0 32 131 239q80 125 138 232q5 10 12 26t26 28.5t44 16t49 3.5q20 0 42.5 -2.5t41 -15.5t18.5 -38q0 -28 -3 -52
q-29 -175 -42 -366h30q34 0 49 -17t15 -34q0 -19 -14.5 -35.5t-56.5 -21.5l-30 -3q-3 -68 -3 -137q0 -39 -23.5 -54.5t-54.5 -15.5zM790 287q33 5 76 10l-1 22v93z" />
    <glyph glyph-name="questiondown" unicode="&#xbf;" horiz-adv-x="740" 
d="M425 504q29 0 44 -27q27 -46 27 -140q0 -120 -39 -209.5t-89 -169.5q-34 -54 -64 -111q-67 -130 -67 -261q0 -74 24 -122t62.5 -71t84.5 -23q95 0 143.5 65t48.5 147q0 119 -52 209q-10 17 -10 27q0 28 61 28q70 0 113 -92q39 -84 39 -191q0 -81 -42 -156t-122 -123.5
t-194 -48.5q-110 0 -199.5 37t-141.5 112.5t-52 191.5q0 178 97 336q42 68 84 126q39 52 84 123q91 143 91 260q0 83 69 83zM427 844q28 0 53.5 -5.5t42.5 -27t17 -69.5q0 -59 -18.5 -88.5t-49.5 -39t-68 -9.5q-28 0 -53.5 5.5t-42.5 27t-17 68.5q0 138 136 138z" />
    <glyph glyph-name="Agrave" unicode="&#xc0;" horiz-adv-x="1123" 
d="M794 1750q-31 0 -90.5 36.5t-113.5 81.5q-87 73 -87 109q0 30 18 53.5t41 37.5t38 14q39 0 59 -17.5t116 -158.5l57 -83q11 -16 11 -29q0 -25 -27 -39q-9 -5 -22 -5zM825 -243q-71 0 -88 72q-46 202 -47 374t-1 236q-226 -20 -303 -35q-18 -4 -35 -4q-35 0 -35 69
q0 55 24 73q42 32 351 35q3 165 12 354q14 282 14 407q-1 88 -14 152q-9 47 -28 47q-32 0 -92 -44q-88 -65 -152 -208q-106 -243 -125 -619q-6 -126 -6 -253q0 -186 8 -376q0 -99 -78 -99q-71 0 -89 73q-28 110 -34.5 211.5t-6.5 276.5q0 398 104 689q109 308 325 433
q120 69 223 69q232 0 232 -301q0 -114 -6 -201q-6 -106 -47 -624q28 -5 50 -12q28 -9 28 -52q0 -48 -46 -48h-40q-18 -289 -18 -578q0 -70 -23 -93.5t-57 -23.5z" />
    <glyph glyph-name="Aacute" unicode="&#xc1;" horiz-adv-x="1123" 
d="M731 1739q-13 0 -22 5q-27 14 -27 39q0 13 11 29l57 83q96 141 116 158.5t59 17.5q15 0 38 -14t41 -37.5t18 -53.5q0 -36 -87 -109q-54 -45 -113.5 -81.5t-90.5 -36.5zM825 -243q-71 0 -88 72q-46 202 -47 374t-1 236q-226 -20 -303 -35q-18 -4 -35 -4q-35 0 -35 69
q0 55 24 73q42 32 351 35q3 165 12 354q14 282 14 407q-1 88 -14 152q-9 47 -28 47q-32 0 -92 -44q-88 -65 -152 -208q-106 -243 -125 -619q-6 -126 -6 -253q0 -186 8 -376q0 -99 -78 -99q-71 0 -89 73q-28 110 -34.5 211.5t-6.5 276.5q0 398 104 689q109 308 325 433
q120 69 223 69q232 0 232 -301q0 -114 -6 -201q-6 -106 -47 -624q28 -5 50 -12q28 -9 28 -52q0 -48 -46 -48h-40q-18 -289 -18 -578q0 -70 -23 -93.5t-57 -23.5z" />
    <glyph glyph-name="Acircumflex" unicode="&#xc2;" horiz-adv-x="1123" 
d="M933 1729q-51 0 -225 158q-168 -158 -227 -158q-28 0 -28 31q0 16 11 32q123 188 150 220q44 49 93 49q50 0 92 -49q45 -54 152 -220q12 -16 12 -29q0 -34 -30 -34zM825 -243q-71 0 -88 72q-46 202 -47 374t-1 236q-226 -20 -303 -35q-18 -4 -35 -4q-35 0 -35 69
q0 55 24 73q42 32 351 35q3 165 12 354q14 282 14 407q-1 88 -14 152q-9 47 -28 47q-32 0 -92 -44q-88 -65 -152 -208q-106 -243 -125 -619q-6 -126 -6 -253q0 -186 8 -376q0 -99 -78 -99q-71 0 -89 73q-28 110 -34.5 211.5t-6.5 276.5q0 398 104 689q109 308 325 433
q120 69 223 69q232 0 232 -301q0 -114 -6 -201q-6 -106 -47 -624q28 -5 50 -12q28 -9 28 -52q0 -48 -46 -48h-40q-18 -289 -18 -578q0 -70 -23 -93.5t-57 -23.5z" />
    <glyph glyph-name="Atilde" unicode="&#xc3;" horiz-adv-x="1123" 
d="M484 1722q-26 0 -26 65q0 61 36 108q39 51 97 51q46 0 130 -42.5t111 -42.5q31 0 44.5 22t19 39t13 30.5t18.5 13.5q33 0 33 -66q0 -61 -37 -109.5t-99 -48.5q-50 0 -128 42q-81 43 -110 43q-42 0 -62 -59q-14 -46 -40 -46zM825 -243q-71 0 -88 72q-46 202 -47 374
t-1 236q-226 -20 -303 -35q-18 -4 -35 -4q-35 0 -35 69q0 55 24 73q42 32 351 35q3 165 12 354q14 282 14 407q-1 88 -14 152q-9 47 -28 47q-32 0 -92 -44q-88 -65 -152 -208q-106 -243 -125 -619q-6 -126 -6 -253q0 -186 8 -376q0 -99 -78 -99q-71 0 -89 73
q-28 110 -34.5 211.5t-6.5 276.5q0 398 104 689q109 308 325 433q120 69 223 69q232 0 232 -301q0 -114 -6 -201q-6 -106 -47 -624q28 -5 50 -12q28 -9 28 -52q0 -48 -46 -48h-40q-18 -289 -18 -578q0 -70 -23 -93.5t-57 -23.5z" />
    <glyph glyph-name="Adieresis" unicode="&#xc4;" horiz-adv-x="1123" 
d="M610 1747q-25 0 -48.5 5t-39 23.5t-15.5 60.5q0 51 17 77t45 34.5t62 8.5q25 0 48.5 -5t39 -23.5t15.5 -60.5q0 -120 -124 -120zM910 1747q-25 0 -48.5 5t-39 23.5t-15.5 60.5q0 51 17 77t45 34.5t62 8.5q25 0 48.5 -5t39 -23.5t15.5 -60.5q0 -120 -124 -120zM825 -243
q-71 0 -88 72q-46 202 -47 374t-1 236q-226 -20 -303 -35q-18 -4 -35 -4q-35 0 -35 69q0 55 24 73q42 32 351 35q3 165 12 354q14 282 14 407q-1 88 -14 152q-9 47 -28 47q-32 0 -92 -44q-88 -65 -152 -208q-106 -243 -125 -619q-6 -126 -6 -253q0 -186 8 -376
q0 -99 -78 -99q-71 0 -89 73q-28 110 -34.5 211.5t-6.5 276.5q0 398 104 689q109 308 325 433q120 69 223 69q232 0 232 -301q0 -114 -6 -201q-6 -106 -47 -624q28 -5 50 -12q28 -9 28 -52q0 -48 -46 -48h-40q-18 -289 -18 -578q0 -70 -23 -93.5t-57 -23.5z" />
    <glyph glyph-name="Aring" unicode="&#xc5;" horiz-adv-x="1123" 
d="M736 1726q40 0 68.5 33.5t28.5 80.5t-28.5 80.5t-68.5 33.5t-68 -33.5t-28 -80.5t28 -80.5t68 -33.5zM825 -243q-71 0 -88 72q-46 202 -47 374t-1 236q-226 -20 -303 -35q-18 -4 -35 -4q-35 0 -35 69q0 55 24 73q42 32 351 35q3 165 12 354q13 263 13 390q0 80 -7 131
q-9 67 -62 67q-29 0 -66 -27q-87 -65 -150 -207q-105 -236 -125 -619q-6 -126 -6 -253q0 -52 5 -383q0 -92 -75 -92q-71 0 -89 73q-28 110 -34.5 211.5t-6.5 276.5q0 167 22 337q48 368 205 596q112 162 283 228q-95 69 -95 180q0 88 60.5 150.5t146.5 62.5
q85 0 145.5 -62.5t60.5 -150.5q0 -98 -78 -167q134 -55 134 -284q0 -114 -5 -201q-7 -106 -48 -624q28 -5 50 -12q28 -9 28 -52q0 -48 -46 -48h-40q-18 -289 -18 -578q0 -70 -23 -93.5t-57 -23.5z" />
    <glyph glyph-name="AE" unicode="&#xc6;" horiz-adv-x="1666" 
d="M931 569q50 60 118 118q-56 3 -107 21zM825 -243q-71 0 -88 72q-46 202 -47 374t-1 236q-226 -20 -303 -35q-18 -4 -35 -4q-35 0 -35 69q0 55 24 73q42 32 351 35q3 165 12 354q14 282 14 407q0 60 -7 110q-9 71 -64 71q-27 0 -61 -25q-89 -64 -154 -209
q-105 -236 -125 -619q-6 -126 -6 -253q0 -186 8 -376q0 -99 -78 -99q-71 0 -89 73q-28 110 -34.5 211.5t-6.5 276.5q0 167 22 337t72 323t132.5 272.5t202.5 189t223 69.5q147 0 201 -121q110 81 252 81q146 0 231 -72.5t85 -224.5q0 -65 -22 -133.5t-63 -114.5
q-44 -50 -105 -50t-61 28q0 10 10 27q41 64 63.5 135t22.5 129q0 63 -29 106.5t-90 43.5q-102 0 -185.5 -96t-83.5 -260q0 -153 36 -264t111 -111q80 0 160 51q23 15 42 15q22 0 35.5 -17.5t13.5 -38.5q0 -34 -36 -54q-72 -41 -138 -120.5t-109 -175.5t-43 -182
q0 -55 9.5 -101t37.5 -72.5t85 -26.5q137 0 270 155q26 30 48 30q17 0 31 -17q18 -21 18 -43q0 -21 -15 -42q-185 -247 -411 -247q-138 0 -218 62v-95q0 -70 -23 -93.5t-57 -23.5z" />
    <glyph glyph-name="Ccedilla" unicode="&#xc7;" horiz-adv-x="1079" 
d="M517 -551q-32 0 -56 5q-47 11 -47 32q0 24 52 30q69 7 69 55q0 58 -57 129q-5 6 -5 15q0 23 17.5 43t29.5 39q-183 15 -286 168q-134 196 -134 647q0 203 44 420q51 258 168 425q136 193 351 193q145 0 230.5 -72.5t85.5 -224.5q0 -65 -22 -133.5t-63.5 -115.5
t-101.5 -47q-49 0 -49 39q0 20 13 44q68 132 68 234q0 63 -29 106.5t-90 43.5q-138 0 -221 -215q-70 -179 -98 -439q-22 -194 -22 -348q0 -277 68.5 -420t188.5 -143q113 0 222 157q41 59 72 59q14 0 26 -11q19 -17 19 -44q0 -48 -79 -151q-121 -157 -284 -172
q-11 -27 -36 -59q94 -93 94 -169q0 -14 -3 -25q-25 -95 -135 -95z" />
    <glyph glyph-name="Egrave" unicode="&#xc8;" horiz-adv-x="1013" 
d="M605 1701q-31 0 -90.5 36.5t-113.5 81.5q-88 73 -88 109q0 30 18 53.5t41.5 37.5t38.5 14q39 0 59 -17.5t115 -158.5l58 -83q11 -16 11 -29q0 -25 -28 -39q-9 -5 -21 -5zM489 -93q-176 0 -256 101q-68 84 -68 218q0 249 250 461q-86 5 -160 44t-120.5 119.5t-46.5 210.5
q0 164 62.5 297.5t171.5 212.5t249 79q146 0 231 -72.5t85 -224.5q0 -65 -22 -133.5t-62 -114.5q-45 -50 -106 -50t-61 28q0 10 11 27q40 64 62.5 135t22.5 129q0 63 -29 106.5t-90 43.5q-153 0 -231 -156q-62 -123 -62 -254q0 -321 171 -321q80 0 160 51q23 15 42 15
q22 0 35.5 -17.5t13.5 -38.5q0 -34 -36 -54q-72 -41 -138 -120.5t-109 -175.5t-43 -182q0 -55 9.5 -101t37.5 -72.5t85 -26.5q135 0 268 155q26 30 48 30q17 0 31 -17q18 -21 18 -43q0 -21 -15 -42q-184 -247 -409 -247z" />
    <glyph glyph-name="Eacute" unicode="&#xc9;" horiz-adv-x="1013" 
d="M538 1687q-13 0 -22 5q-27 14 -27 39q0 13 11 29l57 83q96 141 116 158.5t59 17.5q15 0 38 -14t41 -37.5t18 -53.5q0 -36 -87 -109q-55 -45 -114 -81.5t-90 -36.5zM489 -93q-176 0 -256 101q-68 84 -68 218q0 249 250 461q-86 5 -160 44t-120.5 119.5t-46.5 210.5
q0 164 62.5 297.5t171.5 212.5t249 79q146 0 231 -72.5t85 -224.5q0 -65 -22 -133.5t-62 -114.5q-45 -50 -106 -50t-61 28q0 10 11 27q40 64 62.5 135t22.5 129q0 63 -29 106.5t-90 43.5q-153 0 -231 -156q-62 -123 -62 -254q0 -321 171 -321q80 0 160 51q23 15 42 15
q22 0 35.5 -17.5t13.5 -38.5q0 -34 -36 -54q-72 -41 -138 -120.5t-109 -175.5t-43 -182q0 -55 9.5 -101t37.5 -72.5t85 -26.5q135 0 268 155q26 30 48 30q17 0 31 -17q18 -21 18 -43q0 -21 -15 -42q-184 -247 -409 -247z" />
    <glyph glyph-name="Ecircumflex" unicode="&#xca;" horiz-adv-x="1013" 
d="M798 1682q-51 0 -225 158q-168 -158 -228 -158q-28 0 -28 31q0 16 11 32q123 188 151 220q43 49 93 49t92 -49q45 -54 152 -220q11 -16 11 -29q0 -34 -29 -34zM489 -93q-176 0 -256 101q-68 84 -68 218q0 249 250 461q-86 5 -160 44t-120.5 119.5t-46.5 210.5
q0 164 62.5 297.5t171.5 212.5t249 79q146 0 231 -72.5t85 -224.5q0 -65 -22 -133.5t-62 -114.5q-45 -50 -106 -50t-61 28q0 10 11 27q40 64 62.5 135t22.5 129q0 63 -29 106.5t-90 43.5q-153 0 -231 -156q-62 -123 -62 -254q0 -321 171 -321q80 0 160 51q23 15 42 15
q22 0 35.5 -17.5t13.5 -38.5q0 -34 -36 -54q-72 -41 -138 -120.5t-109 -175.5t-43 -182q0 -55 9.5 -101t37.5 -72.5t85 -26.5q135 0 268 155q26 30 48 30q17 0 31 -17q18 -21 18 -43q0 -21 -15 -42q-184 -247 -409 -247z" />
    <glyph glyph-name="Edieresis" unicode="&#xcb;" horiz-adv-x="1013" 
d="M421 1704q-25 0 -48.5 5t-39 23.5t-15.5 60.5q0 51 17 77t45 34.5t62 8.5q25 0 48.5 -5t39 -23.5t15.5 -60.5q0 -120 -124 -120zM721 1704q-25 0 -49 5t-39 23.5t-15 60.5q0 51 17 77t45 34.5t62 8.5q25 0 48.5 -5t38.5 -23.5t15 -60.5q0 -120 -123 -120zM489 -93
q-176 0 -256 101q-68 84 -68 218q0 249 250 461q-86 5 -160 44t-120.5 119.5t-46.5 210.5q0 164 62.5 297.5t171.5 212.5t249 79q146 0 231 -72.5t85 -224.5q0 -65 -22 -133.5t-62 -114.5q-45 -50 -106 -50t-61 28q0 10 11 27q40 64 62.5 135t22.5 129q0 63 -29 106.5
t-90 43.5q-153 0 -231 -156q-62 -123 -62 -254q0 -321 171 -321q80 0 160 51q23 15 42 15q22 0 35.5 -17.5t13.5 -38.5q0 -34 -36 -54q-72 -41 -138 -120.5t-109 -175.5t-43 -182q0 -55 9.5 -101t37.5 -72.5t85 -26.5q135 0 268 155q26 30 48 30q17 0 31 -17q18 -21 18 -43
q0 -21 -15 -42q-184 -247 -409 -247z" />
    <glyph glyph-name="Igrave" unicode="&#xcc;" horiz-adv-x="542" 
d="M265 -64q-70 0 -87 68q-37 150 -39 336t-2 265q0 458 33 894q6 73 78 87q31 6 64 6q29 0 56.5 -4t45 -21t17.5 -54q0 -41 -6 -95q-34 -308 -57 -697.5t-23 -674.5q0 -66 -23 -88t-57 -22zM349 1673q-32 0 -91 36.5t-114 81.5q-87 73 -87 109q0 30 18 53.5t41 37.5t38 14
q40 0 60 -17.5t115 -158.5l57 -83q11 -16 11 -29q0 -25 -27 -39q-9 -5 -21 -5z" />
    <glyph glyph-name="Iacute" unicode="&#xcd;" horiz-adv-x="542" 
d="M265 -64q-70 0 -87 68q-37 150 -39 336t-2 265q0 458 33 894q6 73 78 87q31 6 64 6q29 0 56.5 -4t45 -21t17.5 -54q0 -41 -6 -95q-34 -308 -57 -697.5t-23 -674.5q0 -66 -23 -88t-57 -22zM219 1652q-12 0 -21 5q-28 14 -28 39q0 13 11 29l58 83q95 141 115 158.5t60 17.5
q15 0 38 -14t41 -37.5t18 -53.5q0 -36 -87 -109q-55 -45 -114 -81.5t-91 -36.5z" />
    <glyph glyph-name="Icircumflex" unicode="&#xce;" horiz-adv-x="542" 
d="M265 -64q-70 0 -87 68q-37 150 -39 336t-2 265q0 458 33 894q6 73 78 87q31 6 64 6q29 0 56.5 -4t45 -21t17.5 -54q0 -41 -6 -95q-34 -308 -57 -697.5t-23 -674.5q0 -66 -23 -88t-57 -22zM536 1648q-52 0 -226 158q-167 -158 -227 -158q-28 0 -28 31q0 16 11 32
q123 188 151 220q43 49 92 49q51 0 92 -49q45 -54 153 -220q11 -16 11 -29q0 -34 -29 -34z" />
    <glyph glyph-name="Idieresis" unicode="&#xcf;" horiz-adv-x="542" 
d="M265 -64q-70 0 -87 68q-37 150 -39 336t-2 265q0 458 33 894q6 73 78 87q31 6 64 6q29 0 56.5 -4t45 -21t17.5 -54q0 -41 -6 -95q-34 -308 -57 -697.5t-23 -674.5q0 -66 -23 -88t-57 -22zM141 1687q-25 0 -49 5t-39 23.5t-15 60.5q0 51 17 77t45 34.5t62 8.5
q25 0 48.5 -5t38.5 -23.5t15 -60.5q0 -120 -123 -120zM440 1687q-25 0 -48.5 5t-39 23.5t-15.5 60.5q0 51 17 77t45.5 34.5t61.5 8.5q25 0 49 -5t39 -23.5t15 -60.5q0 -120 -124 -120z" />
    <glyph glyph-name="Eth" unicode="&#xd0;" horiz-adv-x="1260" 
d="M151 760q2 192 9 385q12 314 24 486q3 44 24.5 65t53.5 27.5t65 6.5q29 0 56.5 -4.5t45 -22t17.5 -57.5q0 -43 -8 -100l-5 -56q150 180 329 180q148 0 227.5 -77.5t109 -219t29.5 -331.5q0 -614 -146 -1004q-102 -274 -286 -384q-98 -59 -227 -59q-102 0 -161 56t-59 132
q0 52 30 107t95.5 102.5t170.5 78.5q13 3 23 3q20 0 30 -13t10 -29q0 -39 -41 -54q-107 -35 -156.5 -90.5t-49.5 -102.5q0 -29 20 -49t56 -20q158 0 262 227q91 198 132 524q37 288 37 590q0 470 -177 470q-127 0 -280 -285q-20 -254 -32 -484q43 0 90 -1q266 -4 279 -35
q7 -16 7 -35q0 -47 -46 -48q-99 -3 -279 -12q-29 -1 -57 -3q-13 -285 -13 -529q0 -70 -23 -93t-57 -23q-71 0 -89 72q-35 159 -37 353q-2 135 -3 214q-37 -1 -70 -1q-22 0 -34 23t-12 51q0 26 13.5 47.5t41.5 21.5h60h1z" />
    <glyph glyph-name="Ntilde" unicode="&#xd1;" horiz-adv-x="1150" 
d="M844 -405q-70 0 -87 65q-52 195 -56 354.5t-4 226.5q0 339 50 854q4 39 10 84q3 18 3 27q0 13 -5 13q-9 0 -29 -36q-94 -168 -166 -361q-90 -238 -144.5 -472.5t-54.5 -363.5q0 -20 -1.5 -32t-1.5 -22q-3 -68 -26 -91t-57 -23q-70 0 -87 71q-37 156 -39.5 347t-2.5 267
q0 230 9 462q12 309 24 478q3 43 24.5 64t53.5 27.5t65 6.5q29 0 56.5 -4.5t45 -22t17.5 -56.5q0 -42 -6 -98q-34 -320 -57 -723q101 384 228 613q133 240 271 240q72 0 109.5 -35.5t45 -86t7.5 -89.5q0 -43 -6 -94q-44 -373 -76.5 -740.5t-32.5 -744.5q0 -63 -23 -84
t-57 -21zM427 1621q-26 0 -26 65q0 61 36 108q39 51 97 51q46 0 130 -42.5t111 -42.5q31 0 44.5 22t19 39t13 30.5t18.5 13.5q33 0 33 -66q0 -61 -37 -109.5t-99 -48.5q-50 0 -128 42q-81 43 -110 43q-42 0 -62 -59q-14 -46 -40 -46z" />
    <glyph glyph-name="Ograve" unicode="&#xd2;" horiz-adv-x="1237" 
d="M647 45q73 0 131 77q111 157 157 498q21 157 21 336q0 131 -17 236q-27 167 -113 239q-47 39 -121 39t-129.5 -44t-86 -112t-30.5 -141q0 -49 11 -95q20 -93 101 -136q32 -17 32 -34q0 -24 -14 -39t-29 -15q-14 0 -41 15q-93 53 -134 148q-35 -224 -35 -412
q0 -172 41 -297.5t108.5 -194t147.5 -68.5zM588 -107q-213 0 -348 176q-154 200 -154 619q0 87 13 202q28 263 124 462q36 62 104 62q43 0 77 -21q22 43 53 81q113 139 281 139q381 0 381 -661q0 -145 -17 -295.5t-55 -287t-99.5 -243.5t-150.5 -170t-209 -63zM715 1700
q-31 0 -90.5 36.5t-113.5 81.5q-87 73 -87 109q0 30 18 53.5t41 37.5t38 14q39 0 59 -17.5t116 -158.5l57 -83q11 -16 11 -29q0 -25 -27 -39q-9 -5 -22 -5z" />
    <glyph glyph-name="Oacute" unicode="&#xd3;" horiz-adv-x="1237" 
d="M647 45q73 0 131 77q111 157 157 498q21 157 21 336q0 131 -17 236q-27 167 -113 239q-47 39 -121 39t-129.5 -44t-86 -112t-30.5 -141q0 -49 11 -95q20 -93 101 -136q32 -17 32 -34q0 -24 -14 -39t-29 -15q-14 0 -41 15q-93 53 -134 148q-35 -224 -35 -412
q0 -172 41 -297.5t108.5 -194t147.5 -68.5zM588 -107q-213 0 -348 176q-154 200 -154 619q0 87 13 202q28 263 124 462q36 62 104 62q43 0 77 -21q22 43 53 81q113 139 281 139q381 0 381 -661q0 -145 -17 -295.5t-55 -287t-99.5 -243.5t-150.5 -170t-209 -63zM688 1684
q-13 0 -22 5q-27 14 -27 39q0 13 11 29l57 83q96 141 116 158.5t59 17.5q15 0 38 -14t41 -37.5t18 -53.5q0 -36 -87 -109q-54 -45 -113.5 -81.5t-90.5 -36.5z" />
    <glyph glyph-name="Ocircumflex" unicode="&#xd4;" horiz-adv-x="1237" 
d="M647 45q73 0 131 77q111 157 157 498q21 157 21 336q0 131 -17 236q-27 167 -113 239q-47 39 -121 39t-129.5 -44t-86 -112t-30.5 -141q0 -49 11 -95q20 -93 101 -136q32 -17 32 -34q0 -24 -14 -39t-29 -15q-14 0 -41 15q-93 53 -134 148q-35 -224 -35 -412
q0 -172 41 -297.5t108.5 -194t147.5 -68.5zM588 -107q-213 0 -348 176q-154 200 -154 619q0 87 13 202q28 263 124 462q36 62 104 62q43 0 77 -21q22 43 53 81q113 139 281 139q381 0 381 -661q0 -145 -17 -295.5t-55 -287t-99.5 -243.5t-150.5 -170t-209 -63zM919 1663
q-51 0 -225 158q-168 -158 -227 -158q-28 0 -28 31q0 16 11 32q123 188 150 220q44 49 93 49q50 0 92 -49q45 -54 152 -220q12 -16 12 -29q0 -34 -30 -34z" />
    <glyph glyph-name="Otilde" unicode="&#xd5;" horiz-adv-x="1237" 
d="M647 45q73 0 131 77q111 157 157 498q21 157 21 336q0 131 -17 236q-27 167 -113 239q-47 39 -121 39t-129.5 -44t-86 -112t-30.5 -141q0 -49 11 -95q20 -93 101 -136q32 -17 32 -34q0 -24 -14 -39t-29 -15q-14 0 -41 15q-93 53 -134 148q-35 -224 -35 -412
q0 -172 41 -297.5t108.5 -194t147.5 -68.5zM588 -107q-213 0 -348 176q-154 200 -154 619q0 87 13 202q28 263 124 462q36 62 104 62q43 0 77 -21q22 43 53 81q113 139 281 139q381 0 381 -661q0 -145 -17 -295.5t-55 -287t-99.5 -243.5t-150.5 -170t-209 -63zM491 1685
q-26 0 -26 65q0 61 36 108q39 51 97 51q46 0 130 -42.5t111 -42.5q31 0 44.5 22t19 39t13 30.5t18.5 13.5q33 0 33 -66q0 -61 -37 -109.5t-99 -48.5q-50 0 -128 42q-81 43 -110 43q-42 0 -62 -59q-14 -46 -40 -46z" />
    <glyph glyph-name="Odieresis" unicode="&#xd6;" horiz-adv-x="1237" 
d="M647 45q73 0 131 77q111 157 157 498q21 157 21 336q0 131 -17 236q-27 167 -113 239q-47 39 -121 39t-129.5 -44t-86 -112t-30.5 -141q0 -49 11 -95q20 -93 101 -136q32 -17 32 -34q0 -24 -14 -39t-29 -15q-14 0 -41 15q-93 53 -134 148q-35 -224 -35 -412
q0 -172 41 -297.5t108.5 -194t147.5 -68.5zM588 -107q-213 0 -348 176q-154 200 -154 619q0 87 13 202q28 263 124 462q36 62 104 62q43 0 77 -21q22 43 53 81q113 139 281 139q381 0 381 -661q0 -145 -17 -295.5t-55 -287t-99.5 -243.5t-150.5 -170t-209 -63zM571 1674
q-25 0 -48.5 5t-39 23.5t-15.5 60.5q0 51 17 77t45 34.5t62 8.5q25 0 48.5 -5t39 -23.5t15.5 -60.5q0 -120 -124 -120zM871 1674q-25 0 -48.5 5t-39 23.5t-15.5 60.5q0 51 17 77t45 34.5t62 8.5q25 0 48.5 -5t39 -23.5t15.5 -60.5q0 -120 -124 -120z" />
    <glyph glyph-name="multiply" unicode="&#xd7;" horiz-adv-x="894" 
d="M740 250q-21 0 -44 22l-249 237l-249 -237q-23 -22 -44 -22q-17 0 -32 15t-18.5 26.5t-3.5 16.5q0 22 254 288l-237 230q-17 16 -17 37q0 30 26 56q22 22 52 22q24 0 47 -23l222 -225l222 225q23 23 47 23q30 0 54 -23.5t24 -56.5q0 -19 -16 -35l-238 -230
q128 -128 247 -269q7 -9 7 -19q0 -5 -3.5 -16.5t-18 -26.5t-32.5 -15z" />
    <glyph glyph-name="Oslash" unicode="&#xd8;" horiz-adv-x="1237" 
d="M556 70q43 -25 91 -25q73 0 131 77q111 157 157 498q21 157 21 336q0 131 -17 236q-24 150 -96 223q-29 -112 -68 -290q-141 -634 -219 -1055zM738 1468q-16 2 -33 2q-74 0 -129.5 -44t-86 -112t-30.5 -141q0 -49 11 -95q20 -93 101 -136q32 -17 32 -34q0 -24 -14 -39
t-29 -15q-14 0 -41 15q-93 53 -134 148q-35 -224 -35 -412q0 -172 41 -297q35 -108 89 -173q25 198 113 643q84 420 145 690zM588 -107q-213 0 -348 176q-154 200 -154 619q0 87 13 202q28 263 124 462q36 62 104 62q43 0 77 -21q22 43 53 81q113 139 281 139
q381 0 381 -661q0 -145 -17 -295.5t-55 -287t-99.5 -243.5t-150.5 -170t-209 -63z" />
    <glyph glyph-name="Ugrave" unicode="&#xd9;" horiz-adv-x="1225" 
d="M922 -325q-71 0 -89 80q-28 132 -42.5 328t-14.5 334v34q-74 -284 -127.5 -439.5t-110.5 -214.5t-146 -59q-147 0 -208 228q-48 179 -48 460q0 173 12.5 359t48.5 515q12 108 17 164q7 71 93 84q37 5 70 5q29 0 56.5 -4t45 -20t17.5 -52q0 -38 -12.5 -137t-22.5 -193
q-74 -664 -74 -1006q0 -246 49 -246q81 0 208 554q112 491 207 1152q9 69 92 83q35 6 68 6q29 0 56.5 -4t45 -20t17.5 -52q0 -51 -6 -101q-94 -812 -112 -1275q-10 -242 -10 -434q0 -129 -80 -129zM698 1718q-31 0 -90.5 36.5t-113.5 81.5q-87 73 -87 109q0 30 18 53.5
t41 37.5t38 14q39 0 59 -17.5t116 -158.5l57 -83q11 -16 11 -29q0 -25 -27 -39q-9 -5 -22 -5z" />
    <glyph glyph-name="Uacute" unicode="&#xda;" horiz-adv-x="1225" 
d="M922 -325q-71 0 -89 80q-28 132 -42.5 328t-14.5 334v34q-74 -284 -127.5 -439.5t-110.5 -214.5t-146 -59q-147 0 -208 228q-48 179 -48 460q0 173 12.5 359t48.5 515q12 108 17 164q7 71 93 84q37 5 70 5q29 0 56.5 -4t45 -20t17.5 -52q0 -38 -12.5 -137t-22.5 -193
q-74 -664 -74 -1006q0 -246 49 -246q81 0 208 554q112 491 207 1152q9 69 92 83q35 6 68 6q29 0 56.5 -4t45 -20t17.5 -52q0 -51 -6 -101q-94 -812 -112 -1275q-10 -242 -10 -434q0 -129 -80 -129zM640 1728q-12 0 -21 5q-27 14 -27 39q0 13 11 29l57 83q95 141 115.5 158.5
t59.5 17.5q15 0 38 -14t41 -37.5t18 -53.5q0 -36 -87 -109q-55 -45 -114 -81.5t-91 -36.5z" />
    <glyph glyph-name="Ucircumflex" unicode="&#xdb;" horiz-adv-x="1225" 
d="M922 -325q-71 0 -89 80q-28 132 -42.5 328t-14.5 334v34q-74 -284 -127.5 -439.5t-110.5 -214.5t-146 -59q-147 0 -208 228q-48 179 -48 460q0 173 12.5 359t48.5 515q12 108 17 164q7 71 93 84q37 5 70 5q29 0 56.5 -4t45 -20t17.5 -52q0 -38 -12.5 -137t-22.5 -193
q-74 -664 -74 -1006q0 -246 49 -246q81 0 208 554q112 491 207 1152q9 69 92 83q35 6 68 6q29 0 56.5 -4t45 -20t17.5 -52q0 -51 -6 -101q-94 -812 -112 -1275q-10 -242 -10 -434q0 -129 -80 -129zM859 1759q-51 0 -225 158q-168 -158 -228 -158q-28 0 -28 31q0 16 11 32
q123 188 151 220q43 49 93 49t91 -49q45 -54 153 -220q11 -16 11 -29q0 -34 -29 -34z" />
    <glyph glyph-name="Udieresis" unicode="&#xdc;" horiz-adv-x="1225" 
d="M922 -325q-71 0 -89 80q-28 132 -42.5 328t-14.5 334v34q-74 -284 -127.5 -439.5t-110.5 -214.5t-146 -59q-147 0 -208 228q-48 179 -48 460q0 173 12.5 359t48.5 515q12 108 17 164q7 71 93 84q37 5 70 5q29 0 56.5 -4t45 -20t17.5 -52q0 -38 -12.5 -137t-22.5 -193
q-74 -664 -74 -1006q0 -246 49 -246q81 0 208 554q112 491 207 1152q9 69 92 83q35 6 68 6q29 0 56.5 -4t45 -20t17.5 -52q0 -51 -6 -101q-94 -812 -112 -1275q-10 -242 -10 -434q0 -129 -80 -129zM473 1774q-25 0 -48.5 5t-39 23.5t-15.5 60.5q0 51 17 77t45 34.5t62 8.5
q25 0 48.5 -5t39 -23.5t15.5 -60.5q0 -120 -124 -120zM772 1774q-24 0 -48 5t-39 23.5t-15 60.5q0 51 17 77t45 34.5t62 8.5q25 0 48.5 -5t38.5 -23.5t15 -60.5q0 -120 -124 -120z" />
    <glyph glyph-name="Yacute" unicode="&#xdd;" horiz-adv-x="876" 
d="M474 -107q-71 0 -88 61q-29 103 -35 259t-6 329q-167 102 -250 646q-29 193 -29 229q0 17 4.5 39.5t33 40t90.5 17.5q95 0 135 -24.5t40 -83.5v-104q0 -115 11 -252t36 -248.5t55 -111.5q2 0 38.5 83t98 285.5t138.5 552.5q8 36 26.5 58.5t81.5 22.5q40 0 69 -21
q19 -14 19 -39q0 -11 -5 -25q-75 -215 -111 -332q-173 -567 -226 -661q-11 -20 -25 -36q-21 -337 -21 -586q0 -59 -23 -79t-57 -20zM439 1667q-12 0 -21 5q-27 14 -27 39q0 13 10 29l58 83q95 141 115 158.5t60 17.5q15 0 38 -14t41 -37.5t18 -53.5q0 -36 -87 -109
q-55 -45 -114 -81.5t-91 -36.5z" />
    <glyph glyph-name="Thorn" unicode="&#xde;" horiz-adv-x="1028" 
d="M289 -495q-70 0 -87 81q-37 180 -39 402.5t-2 316.5q0 549 33 1271q6 89 78 105q31 7 64 7q29 0 56.5 -5t45 -25t17.5 -65q0 -44 -18 -457q78 122 183 193q81 55 172 55q226 0 226 -348q0 -71 -34.5 -185.5t-113 -241t-209.5 -233.5q-116 -94 -279 -148
q-13 -332 -13 -592q0 -52 -10.5 -80.5t-28.5 -39.5t-41 -11zM389 373q110 54 187 146q100 118 149 262.5t49 287.5q0 109 -25 148q-15 24 -45 24q-48 0 -117 -69t-121 -162q-36 -64 -41 -117q-24 -246 -36 -520z" />
    <glyph glyph-name="germandbls" unicode="&#xdf;" horiz-adv-x="834" 
d="M534 -21q38 4 38 60q0 60 -28 125q-57 -51 -57 -107q0 -40 18 -64q9 -14 29 -14zM479 1225q0 88 -14 130.5t-44 42.5q-91 0 -146 -482q-32 -306 -57 -608q-26 -388 -26 -538q0 -314 -78 -314q-71 0 -98 107q-42 170 -42 484t47 869q54 620 365 620q195 0 195 -314
q0 -74 -36 -220t-36 -219q0 -66 26.5 -134t62.5 -140q34 -66 63 -137l50 44q74 69 111 185l12 40q8 28 40 28q25 0 37 -17q8 -12 8 -26q0 -9 -5 -25q-53 -162 -142 -251q-40 -40 -79 -73q25 -86 25 -173q0 -88 -51 -148.5t-142 -60.5q-64 0 -107.5 44t-43.5 111
q0 105 94 181l31 24q-21 41 -46 82q-33 56 -63.5 114t-50.5 116t-20 116q0 74 80 256t80 286z" />
    <glyph glyph-name="agrave" unicode="&#xe0;" horiz-adv-x="926" 
d="M198 212q26 0 63 76t72.5 178.5t60 190.5t26.5 120q-7 12 -23 22.5t-34 10.5q-89 0 -145 -181q-50 -162 -50 -353q0 -64 30 -64zM638 7q-200 0 -225 409q-41 -139 -90 -229q-85 -154 -206 -154q-67 0 -104 34.5t-52.5 88.5t-15.5 110q0 76 11 167.5t35.5 181t65.5 164
t101.5 120t142.5 45.5q78 0 134 -73q7 29 21 48q34 45 124 45q63 0 89.5 -18t26.5 -59q0 -18 -3 -40q-5 -33 -16 -141q-25 -245 -25 -410q0 -29 2.5 -90.5t27.5 -61.5q46 0 132 195q63 144 112 302q9 28 39 28q25 0 38 -17q8 -11 8 -25q0 -16 -60 -188q-151 -432 -313 -432z
M430 999q-32 0 -91 36.5t-114 81.5q-87 73 -87 109q0 30 18 53.5t41 37.5t38 14q40 0 60 -17.5t115 -158.5l58 -83q10 -16 10 -29q0 -25 -27 -39q-9 -5 -21 -5z" />
    <glyph glyph-name="aacute" unicode="&#xe1;" horiz-adv-x="926" 
d="M198 212q26 0 63 76t72.5 178.5t60 190.5t26.5 120q-7 12 -23 22.5t-34 10.5q-89 0 -145 -181q-50 -162 -50 -353q0 -64 30 -64zM638 7q-200 0 -225 409q-41 -139 -90 -229q-85 -154 -206 -154q-67 0 -104 34.5t-52.5 88.5t-15.5 110q0 76 11 167.5t35.5 181t65.5 164
t101.5 120t142.5 45.5q78 0 134 -73q7 29 21 48q34 45 124 45q63 0 89.5 -18t26.5 -59q0 -18 -3 -40q-5 -33 -16 -141q-25 -245 -25 -410q0 -29 2.5 -90.5t27.5 -61.5q46 0 132 195q63 144 112 302q9 28 39 28q25 0 38 -17q8 -11 8 -25q0 -16 -60 -188q-151 -432 -313 -432z
M379 999q-12 0 -21 5q-27 14 -27 39q0 13 10 29l58 83q95 141 115 158.5t60 17.5q15 0 38 -14t41 -37.5t18 -53.5q0 -36 -87 -109q-55 -45 -114 -81.5t-91 -36.5z" />
    <glyph glyph-name="acircumflex" unicode="&#xe2;" horiz-adv-x="926" 
d="M198 212q26 0 63 76t72.5 178.5t60 190.5t26.5 120q-7 12 -23 22.5t-34 10.5q-89 0 -145 -181q-50 -162 -50 -353q0 -64 30 -64zM638 7q-200 0 -225 409q-41 -139 -90 -229q-85 -154 -206 -154q-67 0 -104 34.5t-52.5 88.5t-15.5 110q0 76 11 167.5t35.5 181t65.5 164
t101.5 120t142.5 45.5q78 0 134 -73q7 29 21 48q34 45 124 45q63 0 89.5 -18t26.5 -59q0 -18 -3 -40q-5 -33 -16 -141q-25 -245 -25 -410q0 -29 2.5 -90.5t27.5 -61.5q46 0 132 195q63 144 112 302q9 28 39 28q25 0 38 -17q8 -11 8 -25q0 -16 -60 -188q-151 -432 -313 -432z
M637 999q-51 0 -225 158q-168 -158 -228 -158q-28 0 -28 31q0 16 11 32q123 188 151 220q43 49 92 49q51 0 92 -49q45 -54 153 -220q11 -16 11 -29q0 -34 -29 -34z" />
    <glyph glyph-name="atilde" unicode="&#xe3;" horiz-adv-x="926" 
d="M198 212q26 0 63 76t72.5 178.5t60 190.5t26.5 120q-7 12 -23 22.5t-34 10.5q-89 0 -145 -181q-50 -162 -50 -353q0 -64 30 -64zM638 7q-200 0 -225 409q-41 -139 -90 -229q-85 -154 -206 -154q-67 0 -104 34.5t-52.5 88.5t-15.5 110q0 76 11 167.5t35.5 181t65.5 164
t101.5 120t142.5 45.5q78 0 134 -73q7 29 21 48q34 45 124 45q63 0 89.5 -18t26.5 -59q0 -18 -3 -40q-5 -33 -16 -141q-25 -245 -25 -410q0 -29 2.5 -90.5t27.5 -61.5q46 0 132 195q63 144 112 302q9 28 39 28q25 0 38 -17q8 -11 8 -25q0 -16 -60 -188q-151 -432 -313 -432z
M162 1006q-26 0 -26 65q0 61 36 108q39 51 97 51q46 0 130 -42.5t111 -42.5q31 0 44.5 22t19 39t13 30.5t18.5 13.5q33 0 33 -66q0 -61 -37 -109.5t-99 -48.5q-50 0 -128 42q-81 43 -110 43q-42 0 -61 -59q-15 -46 -41 -46z" />
    <glyph glyph-name="adieresis" unicode="&#xe4;" horiz-adv-x="926" 
d="M198 212q26 0 63 76t72.5 178.5t60 190.5t26.5 120q-7 12 -23 22.5t-34 10.5q-89 0 -145 -181q-50 -162 -50 -353q0 -64 30 -64zM638 7q-200 0 -225 409q-41 -139 -90 -229q-85 -154 -206 -154q-67 0 -104 34.5t-52.5 88.5t-15.5 110q0 76 11 167.5t35.5 181t65.5 164
t101.5 120t142.5 45.5q78 0 134 -73q7 29 21 48q34 45 124 45q63 0 89.5 -18t26.5 -59q0 -18 -3 -40q-5 -33 -16 -141q-25 -245 -25 -410q0 -29 2.5 -90.5t27.5 -61.5q46 0 132 195q63 144 112 302q9 28 39 28q25 0 38 -17q8 -11 8 -25q0 -16 -60 -188q-151 -432 -313 -432z
M258 1021q-25 0 -49 5t-39 23.5t-15 60.5q0 51 17 77t45 34.5t62 8.5q25 0 48.5 -5t38.5 -23.5t15 -60.5q0 -120 -123 -120zM557 1021q-25 0 -48.5 5t-38.5 23.5t-15 60.5q0 51 16.5 77t45 34.5t61.5 8.5q25 0 49 -5t39 -23.5t15 -60.5q0 -120 -124 -120z" />
    <glyph glyph-name="aring" unicode="&#xe5;" horiz-adv-x="926" 
d="M198 212q26 0 63 76t72.5 178.5t60 190.5t26.5 120q-7 12 -23 22.5t-34 10.5q-89 0 -145 -181q-50 -162 -50 -353q0 -64 30 -64zM638 7q-200 0 -225 409q-41 -139 -90 -229q-85 -154 -206 -154q-67 0 -104 34.5t-52.5 88.5t-15.5 110q0 76 11 167.5t35.5 181t65.5 164
t101.5 120t142.5 45.5q78 0 134 -73q7 29 21 48q34 45 124 45q63 0 89.5 -18t26.5 -59q0 -18 -3 -40q-5 -33 -16 -141q-25 -245 -25 -410q0 -29 2.5 -90.5t27.5 -61.5q46 0 132 195q63 144 112 302q9 28 39 28q25 0 38 -17q8 -11 8 -25q0 -16 -60 -188q-151 -432 -313 -432z
M389 991q-85 0 -145.5 62.5t-60.5 150.5t60.5 150.5t145.5 62.5t145.5 -62.5t60.5 -150.5t-60.5 -150.5t-145.5 -62.5zM404 1090q40 0 68.5 33.5t28.5 80.5t-28.5 80.5t-68.5 33.5t-68.5 -33.5t-28.5 -80.5t28.5 -80.5t68.5 -33.5z" />
    <glyph glyph-name="ae" unicode="&#xe6;" horiz-adv-x="1136" 
d="M198 212q26 0 63 76t72.5 178.5t60 190.5t26.5 120q-7 12 -23 22.5t-34 10.5q-89 0 -145 -181q-50 -162 -50 -353q0 -64 30 -64zM661 446q68 6 117.5 57t76.5 123q25 67 25 128q0 89 -52 89q-73 0 -124 -163q-35 -114 -43 -234zM713 7q-156 0 -229 99.5t-73 274.5l1 31
q-41 -136 -89 -225q-85 -154 -206 -154q-67 0 -104 34.5t-52.5 88.5t-15.5 110q0 76 11 167.5t35.5 181t65.5 164t101.5 120t142.5 45.5q123 0 237 -135q108 155 259 155q172 0 172 -193q0 -93 -37.5 -186t-107.5 -154.5t-167 -64.5q0 -50 9.5 -104.5t34.5 -92.5t70 -38
q52 0 102 42q94 78 172 235q55 109 91 233q8 28 38 28q25 0 38 -17q8 -11 8 -25q0 -10 -34 -114q-63 -190 -172 -331q-135 -175 -301 -175z" />
    <glyph glyph-name="ccedilla" unicode="&#xe7;" horiz-adv-x="680" 
d="M229 8q-136 8 -202 99q-73 99 -73 274q0 91 25 192.5t74 190t121 144.5t166 56q88 0 134 -50.5t46 -124.5q0 -78 -35 -133q-22 -34 -60 -34q-47 0 -47 22q0 8 8 20q39 57 39 110q0 31 -15.5 50t-38.5 19q-74 0 -125 -169q-45 -148 -45 -308q0 -50 9.5 -104.5t34 -92.5
t70.5 -38q52 0 103 42q159 133 262 468q8 28 38 28q25 0 37 -17q8 -12 8 -26q0 -11 -34 -113q-63 -190 -171 -331q-114 -147 -249 -170q-11 -26 -35 -56q94 -93 94 -169q0 -14 -3 -25q-25 -95 -135 -95q-32 0 -56 5q-47 11 -47 32q0 24 52 30q69 7 69 55q0 58 -57 129
q-4 6 -4 15q0 23 18 44q13 15 24 31z" />
    <glyph glyph-name="egrave" unicode="&#xe8;" horiz-adv-x="680" 
d="M257 7q-156 0 -229 99.5t-73 274.5q0 91 25 192.5t74 190t121 144.5t166 56q172 0 172 -193q0 -93 -37.5 -186t-107.5 -154.5t-167 -64.5q0 -50 9.5 -104.5t34.5 -92.5t70 -38q52 0 103 42q93 78 172 235q54 109 90 233q8 28 38 28q25 0 38 -17q8 -11 8 -25
q0 -10 -34 -114q-63 -190 -171 -331q-136 -175 -302 -175zM205 446q68 6 117.5 57t76.5 123q25 67 25 128q0 89 -52 89q-73 0 -124 -163q-35 -114 -43 -234zM367 999q-31 0 -90.5 36.5t-113.5 81.5q-87 73 -87 109q0 30 18 53.5t41 37.5t38 14q39 0 59 -17.5t116 -158.5
l57 -83q11 -16 11 -29q0 -25 -27 -39q-9 -5 -22 -5z" />
    <glyph glyph-name="eacute" unicode="&#xe9;" horiz-adv-x="680" 
d="M257 7q-156 0 -229 99.5t-73 274.5q0 91 25 192.5t74 190t121 144.5t166 56q172 0 172 -193q0 -93 -37.5 -186t-107.5 -154.5t-167 -64.5q0 -50 9.5 -104.5t34.5 -92.5t70 -38q52 0 103 42q93 78 172 235q54 109 90 233q8 28 38 28q25 0 38 -17q8 -11 8 -25
q0 -10 -34 -114q-63 -190 -171 -331q-136 -175 -302 -175zM205 446q68 6 117.5 57t76.5 123q25 67 25 128q0 89 -52 89q-73 0 -124 -163q-35 -114 -43 -234zM271 999q-13 0 -22 5q-27 14 -27 39q0 13 11 29l57 83q96 141 116 158.5t59 17.5q15 0 38 -14t41 -37.5t18 -53.5
q0 -36 -87 -109q-54 -45 -113.5 -81.5t-90.5 -36.5z" />
    <glyph glyph-name="ecircumflex" unicode="&#xea;" horiz-adv-x="680" 
d="M257 7q-156 0 -229 99.5t-73 274.5q0 91 25 192.5t74 190t121 144.5t166 56q172 0 172 -193q0 -93 -37.5 -186t-107.5 -154.5t-167 -64.5q0 -50 9.5 -104.5t34.5 -92.5t70 -38q52 0 103 42q93 78 172 235q54 109 90 233q8 28 38 28q25 0 38 -17q8 -11 8 -25
q0 -10 -34 -114q-63 -190 -171 -331q-136 -175 -302 -175zM205 446q68 6 117.5 57t76.5 123q25 67 25 128q0 89 -52 89q-73 0 -124 -163q-35 -114 -43 -234zM549 999q-51 0 -225 158q-168 -158 -227 -158q-28 0 -28 31q0 16 11 32q123 188 150 220q44 49 93 49q50 0 92 -49
q45 -54 152 -220q12 -16 12 -29q0 -34 -30 -34z" />
    <glyph glyph-name="edieresis" unicode="&#xeb;" horiz-adv-x="680" 
d="M257 7q-156 0 -229 99.5t-73 274.5q0 91 25 192.5t74 190t121 144.5t166 56q172 0 172 -193q0 -93 -37.5 -186t-107.5 -154.5t-167 -64.5q0 -50 9.5 -104.5t34.5 -92.5t70 -38q52 0 103 42q93 78 172 235q54 109 90 233q8 28 38 28q25 0 38 -17q8 -11 8 -25
q0 -10 -34 -114q-63 -190 -171 -331q-136 -175 -302 -175zM205 446q68 6 117.5 57t76.5 123q25 67 25 128q0 89 -52 89q-73 0 -124 -163q-35 -114 -43 -234zM166 1021q-25 0 -48.5 5t-39 23.5t-15.5 60.5q0 51 17 77t45 34.5t62 8.5q25 0 48.5 -5t39 -23.5t15.5 -60.5
q0 -120 -124 -120zM466 1021q-25 0 -48.5 5t-39 23.5t-15.5 60.5q0 51 17 77t45 34.5t62 8.5q25 0 48.5 -5t39 -23.5t15.5 -60.5q0 -120 -124 -120z" />
    <glyph glyph-name="igrave" unicode="&#xec;" 
d="M224 7q-127 0 -183 165q-44 130 -44 327q0 359 45 420q33 45 123 45q64 0 90 -18t26 -59q0 -18 -3 -40q-4 -29 -13.5 -121.5t-18 -210t-8.5 -213.5q0 -158 29 -158q47 0 133 195q69 156 112 302q8 28 38 28q25 0 38 -17q8 -11 8 -26t-59 -187q-151 -432 -313 -432z
M238 999q-31 0 -90.5 36.5t-113.5 81.5q-87 73 -87 109q0 30 18 53.5t41 37.5t38 14q39 0 59 -17.5t116 -158.5l57 -83q11 -16 11 -29q0 -25 -27 -39q-9 -5 -22 -5z" />
    <glyph glyph-name="iacute" unicode="&#xed;" 
d="M224 7q-127 0 -183 165q-44 130 -44 327q0 359 45 420q33 45 123 45q64 0 90 -18t26 -59q0 -18 -3 -40q-4 -29 -13.5 -121.5t-18 -210t-8.5 -213.5q0 -158 29 -158q47 0 133 195q69 156 112 302q8 28 38 28q25 0 38 -17q8 -11 8 -26t-59 -187q-151 -432 -313 -432z
M103 999q-13 0 -22 5q-27 14 -27 39q0 13 11 29l57 83q96 141 116 158.5t59 17.5q15 0 38 -14t41.5 -37.5t18.5 -53.5q0 -36 -88 -109q-54 -45 -113.5 -81.5t-90.5 -36.5z" />
    <glyph glyph-name="icircumflex" unicode="&#xee;" 
d="M224 7q-127 0 -183 165q-44 130 -44 327q0 359 45 420q33 45 123 45q64 0 90 -18t26 -59q0 -18 -3 -40q-4 -29 -13.5 -121.5t-18 -210t-8.5 -213.5q0 -158 29 -158q47 0 133 195q69 156 112 302q8 28 38 28q25 0 38 -17q8 -11 8 -26t-59 -187q-151 -432 -313 -432z
M393 999q-51 0 -225 158q-168 -158 -227 -158q-28 0 -28 31q0 16 11 32q123 188 150 220q44 49 93 49q50 0 92 -49q45 -54 152 -220q12 -16 12 -29q0 -34 -30 -34z" />
    <glyph glyph-name="idieresis" unicode="&#xef;" 
d="M224 7q-127 0 -183 165q-44 130 -44 327q0 359 45 420q33 45 123 45q64 0 90 -18t26 -59q0 -18 -3 -40q-4 -29 -13.5 -121.5t-18 -210t-8.5 -213.5q0 -158 29 -158q47 0 133 195q69 156 112 302q8 28 38 28q25 0 38 -17q8 -11 8 -26t-59 -187q-151 -432 -313 -432z
M-14 1021q-25 0 -48.5 5t-39 23.5t-15.5 60.5q0 51 17 77t45 34.5t62 8.5q25 0 48.5 -5t39 -23.5t15.5 -60.5q0 -120 -124 -120zM286 1021q-25 0 -48.5 5t-39 23.5t-15.5 60.5q0 51 17 77t45 34.5t62 8.5q25 0 48.5 -5t39 -23.5t15.5 -60.5q0 -120 -124 -120z" />
    <glyph glyph-name="eth" unicode="&#xf0;" horiz-adv-x="913" 
d="M198 212q26 0 63 76t72.5 178.5t59.5 190.5t27 120q-7 12 -23 22.5t-34 10.5q-89 0 -145 -181q-50 -162 -50 -353q0 -64 30 -64zM697 1155q-10 -110 -23 -270q-32 -373 -32 -573q0 -29 2 -98.5t25 -69.5q46 0 132 195q63 144 112 302q9 28 39 28q25 0 38 -17q8 -11 8 -25
q0 -16 -60 -188q-151 -432 -313 -432q-199 0 -211 400v12q-41 -141 -91 -232q-85 -154 -207 -154q-66 0 -103.5 34.5t-52.5 88.5t-15 110q0 76 11 167.5t35.5 181t65.5 164t101.5 120t142.5 45.5q72 0 125 -62l17 264q-73 -1 -157 -1h-2q-22 0 -33 21t-11 48q0 73 39 73
q75 0 174 -4l15 178q3 39 25 59q33 30 117 30q29 0 56.5 -4t45 -20t17.5 -52q0 -38 -7 -79q-4 -25 -14 -125q44 -2 78 -3q54 -2 54 -49q0 -48 -51 -55q-39 -4 -92 -8z" />
    <glyph glyph-name="ntilde" unicode="&#xf1;" horiz-adv-x="965" 
d="M658 -13q-116 0 -163 104.5t-47 299.5q0 77 4 154q5 87 5 170q0 54 -21 54q-28 0 -60.5 -57.5t-62.5 -144.5t-54.5 -180t-39 -168.5t-14.5 -108.5q0 -63 -23 -83t-57 -20q-71 0 -88 63q-38 139 -38 486q0 195 9 288q4 38 21 57t44 25t60 6q29 0 56 -4t45 -19.5t18 -50.5
q0 -37 -6 -77q-14 -104 -23 -212q126 395 313 395q59 0 92.5 -33.5t47.5 -89.5t14 -124q0 -129 -6 -275q-5 -128 -5 -226q0 -92 23 -92q46 0 124 157t139 360q8 28 40 28q24 0 37 -17q8 -12 8 -26q0 -9 -2 -16q-105 -345 -201 -491q-86 -132 -189 -132zM138 1006
q-26 0 -26 65q0 61 36 108q39 51 97 51q46 0 130 -42.5t111 -42.5q31 0 44.5 22t19 39t13 30.5t18.5 13.5q33 0 33 -66q0 -61 -37 -109.5t-99 -48.5q-50 0 -128 42q-81 43 -110 43q-42 0 -62 -59q-14 -46 -40 -46z" />
    <glyph glyph-name="ograve" unicode="&#xf2;" horiz-adv-x="766" 
d="M273 25q-81 0 -134 42q-147 115 -147 437q0 77 10.5 170t63.5 151q31 34 82 34q29 0 49 -6q52 131 168 131q204 0 204 -333q0 -144 -24 -274q135 1 201 202l19.5 62.5t39.5 27.5q24 0 37 -17q8 -12 8 -26q0 -13 -24 -85q-82 -251 -302 -253q-76 -263 -251 -263zM431 403
q21 114 21 233q0 100 -14 162q-21 90 -81 90q-34 0 -53 -34.5t-26.5 -82t-7.5 -87.5q0 -100 41 -168q45 -77 120 -113zM293 138q71 0 117 170q-125 46 -189 169q-5 -69 -5 -124q0 -59 6.5 -108t23.5 -78t47 -29zM366 1044q-32 0 -91 36.5t-114 81.5q-87 73 -87 109
q0 30 18 53.5t41 37.5t38 14q40 0 60 -17.5t115 -158.5l58 -83q10 -16 10 -29q0 -25 -27 -39q-9 -5 -21 -5z" />
    <glyph glyph-name="oacute" unicode="&#xf3;" horiz-adv-x="766" 
d="M273 25q-81 0 -134 42q-147 115 -147 437q0 77 10.5 170t63.5 151q31 34 82 34q29 0 49 -6q52 131 168 131q204 0 204 -333q0 -144 -24 -274q135 1 201 202l19.5 62.5t39.5 27.5q24 0 37 -17q8 -12 8 -26q0 -13 -24 -85q-82 -251 -302 -253q-76 -263 -251 -263zM431 403
q21 114 21 233q0 100 -14 162q-21 90 -81 90q-34 0 -53 -34.5t-26.5 -82t-7.5 -87.5q0 -100 41 -168q45 -77 120 -113zM293 138q71 0 117 170q-125 46 -189 169q-5 -69 -5 -124q0 -59 6.5 -108t23.5 -78t47 -29zM338 1035q-12 0 -21 5q-27 14 -27 39q0 13 10 29l58 83
q95 141 115 158.5t60 17.5q15 0 38 -14t41 -37.5t18 -53.5q0 -36 -87 -109q-55 -45 -114 -81.5t-91 -36.5z" />
    <glyph glyph-name="ocircumflex" unicode="&#xf4;" horiz-adv-x="766" 
d="M273 25q-81 0 -134 42q-147 115 -147 437q0 77 10.5 170t63.5 151q31 34 82 34q29 0 49 -6q52 131 168 131q204 0 204 -333q0 -144 -24 -274q135 1 201 202l19.5 62.5t39.5 27.5q24 0 37 -17q8 -12 8 -26q0 -13 -24 -85q-82 -251 -302 -253q-76 -263 -251 -263zM431 403
q21 114 21 233q0 100 -14 162q-21 90 -81 90q-34 0 -53 -34.5t-26.5 -82t-7.5 -87.5q0 -100 41 -168q45 -77 120 -113zM293 138q71 0 117 170q-125 46 -189 169q-5 -69 -5 -124q0 -59 6.5 -108t23.5 -78t47 -29zM563 999q-51 0 -225 158q-168 -158 -228 -158q-28 0 -28 31
q0 16 11 32q123 188 151 220q43 49 92 49q51 0 92 -49q45 -54 153 -220q11 -16 11 -29q0 -34 -29 -34z" />
    <glyph glyph-name="otilde" unicode="&#xf5;" horiz-adv-x="766" 
d="M273 25q-81 0 -134 42q-147 115 -147 437q0 77 10.5 170t63.5 151q31 34 82 34q29 0 49 -6q52 131 168 131q204 0 204 -333q0 -144 -24 -274q135 1 201 202l19.5 62.5t39.5 27.5q24 0 37 -17q8 -12 8 -26q0 -13 -24 -85q-82 -251 -302 -253q-76 -263 -251 -263zM431 403
q21 114 21 233q0 100 -14 162q-21 90 -81 90q-34 0 -53 -34.5t-26.5 -82t-7.5 -87.5q0 -100 41 -168q45 -77 120 -113zM293 138q71 0 117 170q-125 46 -189 169q-5 -69 -5 -124q0 -59 6.5 -108t23.5 -78t47 -29zM136 1006q-26 0 -26 65q0 61 36 108q39 51 97 51
q46 0 130 -42.5t111 -42.5q31 0 44.5 22t19 39t13 30.5t18.5 13.5q33 0 33 -66q0 -61 -37 -109.5t-99 -48.5q-50 0 -128 42q-81 43 -110 43q-42 0 -61 -59q-15 -46 -41 -46z" />
    <glyph glyph-name="odieresis" unicode="&#xf6;" horiz-adv-x="766" 
d="M273 25q-81 0 -134 42q-147 115 -147 437q0 77 10.5 170t63.5 151q31 34 82 34q29 0 49 -6q52 131 168 131q204 0 204 -333q0 -144 -24 -274q135 1 201 202l19.5 62.5t39.5 27.5q24 0 37 -17q8 -12 8 -26q0 -13 -24 -85q-82 -251 -302 -253q-76 -263 -251 -263zM431 403
q21 114 21 233q0 100 -14 162q-21 90 -81 90q-34 0 -53 -34.5t-26.5 -82t-7.5 -87.5q0 -100 41 -168q45 -77 120 -113zM293 138q71 0 117 170q-125 46 -189 169q-5 -69 -5 -124q0 -59 6.5 -108t23.5 -78t47 -29zM186 1021q-25 0 -49 5t-39 23.5t-15 60.5q0 51 17 77t45 34.5
t62 8.5q25 0 48.5 -5t38.5 -23.5t15 -60.5q0 -120 -123 -120zM485 1021q-25 0 -48.5 5t-38.5 23.5t-15 60.5q0 51 16.5 77t45 34.5t61.5 8.5q25 0 49 -5t39 -23.5t15 -60.5q0 -120 -124 -120z" />
    <glyph glyph-name="divide" unicode="&#xf7;" horiz-adv-x="920" 
d="M156 527q-29 1 -42.5 22.5t-13.5 47.5q0 27 12.5 50t33.5 23q142 0 349 -10q180 -8 279 -11q46 -1 46 -48q0 -19 -7 -35q-13 -31 -279 -35q-242 -4 -378 -4zM448 202q-27 0 -53 5.5t-43 27t-17 68.5q0 60 19 89.5t49.5 39t68.5 9.5q27 0 53 -5.5t43 -27t17 -69.5
q0 -137 -137 -137zM448 757q-27 0 -53 5.5t-43 27t-17 68.5q0 60 19 89.5t49.5 39t68.5 9.5q27 0 53 -5.5t43 -27t17 -69.5q0 -137 -137 -137z" />
    <glyph glyph-name="oslash" unicode="&#xf8;" horiz-adv-x="766" 
d="M260 417q-22 27 -39 60q-5 -69 -5 -124q0 -44 4 -82q17 66 40 146zM296 544l101 331q-17 13 -40 13q-34 0 -53 -34.5t-26.5 -82t-7.5 -87.5q0 -80 26 -140zM520 898q49 -84 49 -247q0 -144 -24 -274q135 1 201 202l19.5 62.5t39.5 27.5q24 0 37 -17q8 -12 8 -26
q0 -13 -24 -85q-82 -251 -302 -253q-76 -263 -251 -263q-13 0 -25 1l-10 -35q-10 -39 -35 -39q-5 0 -11 1q-29 8 -29 36v2q0 21 6 57q-16 8 -30 19q-147 115 -147 437q0 77 10.5 170t63.5 151q31 34 82 34q29 0 49 -6q52 131 168 131q35 0 65 -10l12 36q10 30 44 30
q11 0 23 -3q44 -11 44 -39q0 -10 -14 -49zM279 140q7 -2 14 -2q71 0 117 170q-38 14 -70 35zM371 443q27 -24 60 -40q21 114 21 233q0 31 -1 58z" />
    <glyph glyph-name="ugrave" unicode="&#xf9;" horiz-adv-x="972" 
d="M684 7q-66 0 -109.5 41t-69 109.5t-36.5 152.5q-19 -61 -49.5 -121t-77 -100.5t-116.5 -40.5q-83 0 -126.5 38.5t-66.5 107.5t-29.5 160.5t-6.5 197.5q0 290 42 347q33 45 113 45q64 0 90.5 -18t26.5 -59q0 -18 -3 -40q-41 -263 -41 -485q0 -69 12 -103.5t48 -34.5
q61 0 125.5 268t64.5 370q0 50 20.5 76t54.5 36t75 10q64 0 90 -18t26 -59q0 -18 -16 -142q-27 -262 -27 -443q0 -158 29 -158q46 0 132 195q63 144 113 302q8 28 38 28q25 0 38 -17q8 -11 8 -25q0 -15 -60 -188q-151 -432 -312 -432zM429 999q-31 0 -90.5 36.5t-113.5 81.5
q-87 73 -87 109q0 30 18 53.5t41 37.5t38 14q39 0 59 -17.5t116 -158.5l57 -83q11 -16 11 -29q0 -25 -27 -39q-9 -5 -22 -5z" />
    <glyph glyph-name="uacute" unicode="&#xfa;" horiz-adv-x="972" 
d="M684 7q-66 0 -109.5 41t-69 109.5t-36.5 152.5q-19 -61 -49.5 -121t-77 -100.5t-116.5 -40.5q-83 0 -126.5 38.5t-66.5 107.5t-29.5 160.5t-6.5 197.5q0 290 42 347q33 45 113 45q64 0 90.5 -18t26.5 -59q0 -18 -3 -40q-41 -263 -41 -485q0 -69 12 -103.5t48 -34.5
q61 0 125.5 268t64.5 370q0 50 20.5 76t54.5 36t75 10q64 0 90 -18t26 -59q0 -18 -16 -142q-27 -262 -27 -443q0 -158 29 -158q46 0 132 195q63 144 113 302q8 28 38 28q25 0 38 -17q8 -11 8 -25q0 -15 -60 -188q-151 -432 -312 -432zM351 999q-13 0 -22 5q-27 14 -27 39
q0 13 11 29l57 83q96 141 116 158.5t59 17.5q15 0 38 -14t41 -37.5t18 -53.5q0 -36 -87 -109q-54 -45 -113.5 -81.5t-90.5 -36.5z" />
    <glyph glyph-name="ucircumflex" unicode="&#xfb;" horiz-adv-x="972" 
d="M684 7q-66 0 -109.5 41t-69 109.5t-36.5 152.5q-19 -61 -49.5 -121t-77 -100.5t-116.5 -40.5q-83 0 -126.5 38.5t-66.5 107.5t-29.5 160.5t-6.5 197.5q0 290 42 347q33 45 113 45q64 0 90.5 -18t26.5 -59q0 -18 -3 -40q-41 -263 -41 -485q0 -69 12 -103.5t48 -34.5
q61 0 125.5 268t64.5 370q0 50 20.5 76t54.5 36t75 10q64 0 90 -18t26 -59q0 -18 -16 -142q-27 -262 -27 -443q0 -158 29 -158q46 0 132 195q63 144 113 302q8 28 38 28q25 0 38 -17q8 -11 8 -25q0 -15 -60 -188q-151 -432 -312 -432zM585 999q-51 0 -225 158
q-168 -158 -227 -158q-28 0 -28 31q0 16 11 32q123 188 150 220q44 49 93 49q50 0 92 -49q45 -54 152 -220q12 -16 12 -29q0 -34 -30 -34z" />
    <glyph glyph-name="udieresis" unicode="&#xfc;" horiz-adv-x="972" 
d="M684 7q-66 0 -109.5 41t-69 109.5t-36.5 152.5q-19 -61 -49.5 -121t-77 -100.5t-116.5 -40.5q-83 0 -126.5 38.5t-66.5 107.5t-29.5 160.5t-6.5 197.5q0 290 42 347q33 45 113 45q64 0 90.5 -18t26.5 -59q0 -18 -3 -40q-41 -263 -41 -485q0 -69 12 -103.5t48 -34.5
q61 0 125.5 268t64.5 370q0 50 20.5 76t54.5 36t75 10q64 0 90 -18t26 -59q0 -18 -16 -142q-27 -262 -27 -443q0 -158 29 -158q46 0 132 195q63 144 113 302q8 28 38 28q25 0 38 -17q8 -11 8 -25q0 -15 -60 -188q-151 -432 -312 -432zM232 1021q-25 0 -48.5 5t-39 23.5
t-15.5 60.5q0 51 17 77t45 34.5t62 8.5q25 0 48.5 -5t39 -23.5t15.5 -60.5q0 -120 -124 -120zM532 1021q-25 0 -48.5 5t-39 23.5t-15.5 60.5q0 51 17 77t45 34.5t62 8.5q25 0 48.5 -5t39 -23.5t15.5 -60.5q0 -120 -124 -120z" />
    <glyph glyph-name="yacute" unicode="&#xfd;" horiz-adv-x="959" 
d="M352 999q-12 0 -21 5q-27 14 -27 39q0 13 10 29l58 83q95 141 115 158.5t60 17.5q15 0 38 -14t41 -37.5t18 -53.5q0 -36 -87 -109q-55 -45 -114 -81.5t-91 -36.5zM218 -637q-78 0 -126.5 46t-48.5 130q0 176 145 323q96 96 264 196l11 202q-14 -36 -32 -71
q-70 -141 -194 -141q-83 0 -131.5 38.5t-71.5 107.5t-29.5 140.5t-6.5 177.5q0 331 42 387q34 45 124 45q63 0 89.5 -18t26.5 -59q0 -18 -3 -40q-40 -256 -40 -485q0 -69 16.5 -113.5t52.5 -44.5t69 63.5t58 163.5q33 136 42 284q5 102 13 145q9 55 41 89.5t108 34.5
q100 0 100 -70l-5 -213q-6 -250 -22 -442q193 176 249 402q7 28 37 28q25 0 38 -17q8 -11 8 -25q0 -9 -2 -17q-26 -100 -79 -202q-85 -167 -265 -304q-15 -127 -35 -221q-47 -222 -145 -358q-116 -162 -298 -162zM208 -513q47 0 95 55q105 123 140 398q-95 -63 -163 -128
q-129 -125 -129 -261q0 -31 18.5 -47.5t38.5 -16.5z" />
    <glyph glyph-name="thorn" unicode="&#xfe;" horiz-adv-x="866" 
d="M109 -619q-71 0 -87 65q-42 164 -42 564q0 211 11 460q9 241 28 522q11 152 20.5 305t147.5 153q29 0 56 -4t45 -20t18 -52q0 -48 -7 -101q-18 -138 -28.5 -282t-30.5 -395q110 368 307 368q60 0 103.5 -56.5t43.5 -167.5q0 -89 -13 -188q-27 -198 -100 -340
q144 75 227 265q33 78 58 164q8 28 38 28q25 0 38 -17q8 -11 8 -25q0 -10 -34 -114q-117 -373 -441 -441q-62 -53 -140 -53q-53 0 -84.5 29.5t-31.5 85.5q0 54 50 54q22 0 60 -14q52 43 89 170q51 171 51 363q0 28 -8.5 46t-22.5 18q-47 0 -135 -264q-78 -225 -94 -425
q-20 -342 -20 -597q0 -63 -23 -83.5t-57 -20.5z" />
    <glyph glyph-name="ydieresis" unicode="&#xff;" horiz-adv-x="959" 
d="M240 1021q-25 0 -49 5t-39 23.5t-15 60.5q0 51 17 77t45 34.5t62 8.5q25 0 48.5 -5t38.5 -23.5t15 -60.5q0 -120 -123 -120zM539 1021q-25 0 -48.5 5t-38.5 23.5t-15 60.5q0 51 16.5 77t45 34.5t61.5 8.5q25 0 49 -5t39 -23.5t15 -60.5q0 -120 -124 -120zM218 -637
q-78 0 -126.5 46t-48.5 130q0 176 145 323q96 96 264 196l11 202q-14 -36 -32 -71q-70 -141 -194 -141q-83 0 -131.5 38.5t-71.5 107.5t-29.5 140.5t-6.5 177.5q0 331 42 387q34 45 124 45q63 0 89.5 -18t26.5 -59q0 -18 -3 -40q-40 -256 -40 -485q0 -69 16.5 -113.5
t52.5 -44.5t69 63.5t58 163.5q33 136 42 284q5 102 13 145q9 55 41 89.5t108 34.5q100 0 100 -70l-5 -213q-6 -250 -22 -442q193 176 249 402q7 28 37 28q25 0 38 -17q8 -11 8 -25q0 -9 -2 -17q-26 -100 -79 -202q-85 -167 -265 -304q-15 -127 -35 -221q-47 -222 -145 -358
q-116 -162 -298 -162zM208 -513q47 0 95 55q105 123 140 398q-95 -63 -163 -128q-129 -125 -129 -261q0 -31 18.5 -47.5t38.5 -16.5z" />
    <glyph glyph-name="dotlessi" unicode="&#x131;" 
d="M224 7q-127 0 -183 165q-44 130 -44 327q0 359 45 420q33 45 123 45q64 0 90 -18t26 -59q0 -18 -3 -40q-4 -29 -13.5 -121.5t-18 -210t-8.5 -213.5q0 -158 29 -158q47 0 133 195q69 156 112 302q8 28 38 28q25 0 38 -17q8 -11 8 -26t-59 -187q-151 -432 -313 -432z" />
    <glyph glyph-name="circumflex" unicode="&#x2c6;" horiz-adv-x="667" 
d="M561 999q-51 0 -225 158q-168 -158 -228 -158q-28 0 -28 31q0 16 11 32q123 188 151 220q43 49 92 49q51 0 92 -49q45 -54 153 -220q11 -16 11 -29q0 -34 -29 -34z" />
    <glyph glyph-name="caron" unicode="&#x2c7;" horiz-adv-x="667" 
d="M561 1331q29 0 29 -34q0 -13 -11 -29q-108 -166 -153 -220q-41 -49 -92 -49q-49 0 -92 49q-28 32 -151 220q-11 16 -11 32q0 31 28 31q60 0 228 -158q174 158 225 158z" />
    <glyph glyph-name="uni02C9" unicode="&#x2c9;" horiz-adv-x="670" 
d="M89.5 1020.5q-9.5 21.5 -9.5 48.5q0 35 8.5 54t24.5 19q100 0 247 -10q116 -8 184 -11q46 -1 46 -49t-43 -55q-130 -17 -427 -18q-21 0 -30.5 21.5z" />
    <glyph glyph-name="breve" unicode="&#x2d8;" horiz-adv-x="670" 
d="M335 999q-102 0 -178.5 68.5t-76.5 132.5q0 41 28 41q14 0 75 -50q60 -50 152 -50t152 50q61 50 75 50q28 0 28 -41q0 -64 -76.5 -132.5t-178.5 -68.5z" />
    <glyph glyph-name="dotaccent" unicode="&#x2d9;" horiz-adv-x="387" 
d="M183 1021q-25 0 -48.5 5t-39 23.5t-15.5 60.5q0 51 17 77t45 34.5t62 8.5q25 0 48.5 -5t39 -23.5t15.5 -60.5q0 -120 -124 -120z" />
    <glyph glyph-name="ring" unicode="&#x2da;" horiz-adv-x="572" 
d="M286 898q-85 0 -145.5 62.5t-60.5 150.5t60.5 150.5t145.5 62.5q86 0 146 -62.5t60 -150.5t-60 -150.5t-146 -62.5zM301 997q40 0 68.5 33.5t28.5 80.5t-28.5 80.5t-68.5 33.5t-68 -33.5t-28 -80.5t28 -80.5t68 -33.5z" />
    <glyph glyph-name="ogonek" unicode="&#x2db;" horiz-adv-x="401" 
d="M218 -385q-51 0 -86.5 22.5t-48.5 72.5q-3 11 -3 25q0 76 83.5 158t95 121t31.5 39q31 0 31 -49q0 -36 -60.5 -118.5t-60.5 -148.5q0 -48 69 -55q52 -6 52 -30q0 -21 -47 -32q-24 -5 -56 -5z" />
    <glyph glyph-name="tilde" unicode="&#x2dc;" horiz-adv-x="670" 
d="M110 1006q-26 0 -26 65q0 61 36 108q39 51 97 51q46 0 130 -42.5t111 -42.5q31 0 44.5 22t19 39t13 30.5t18.5 13.5q33 0 33 -66q0 -61 -37 -109.5t-99 -48.5q-50 0 -128 42q-81 43 -110 43q-42 0 -61 -59q-15 -46 -41 -46z" />
    <glyph glyph-name="hungarumlaut" unicode="&#x2dd;" horiz-adv-x="1024" 
d="M-42 999q-13 0 -22 5q-27 14 -27 39q0 13 11 29l57 83q96 141 116 158.5t59 17.5q15 0 38 -14t41 -37.5t18 -53.5q0 -36 -87 -109q-54 -45 -113.5 -81.5t-90.5 -36.5zM298 999q-12 0 -21 5q-28 14 -28 39q0 13 11 29l58 83q95 141 115 158.5t60 17.5q15 0 38 -14
t41 -37.5t18 -53.5q0 -36 -87 -109q-55 -45 -114 -81.5t-91 -36.5z" />
    <glyph glyph-name="endash" unicode="&#x2013;" horiz-adv-x="1412" 
d="M152.5 449.5q-22.5 21.5 -22.5 47.5q0 35 20.5 54t57.5 19q235 0 582 -10q273 -8 435 -10q107 -2 107 -49q0 -48 -102 -55q-305 -17 -1007 -18q-48 0 -70.5 21.5z" />
    <glyph glyph-name="emdash" unicode="&#x2014;" horiz-adv-x="2001" 
d="M198 428q-35 0 -51.5 21.5t-16.5 47.5q0 35 15 54t42 19q171 0 873 -9t797 -11q64 -2 64 -49q0 -48 -60 -55q-181 -17 -752.5 -17t-910.5 -1z" />
    <glyph glyph-name="quoteleft" unicode="&#x2018;" horiz-adv-x="328" 
d="M233 1591q23 0 37 -12q8 -7 8 -17q0 -9 -6 -18q-18 -27 -38 -68q-50 -102 -50 -191q0 -20 2 -28q4 -17 23 -19q65 -10 65 -98q0 -56 -18.5 -84.5t-49.5 -37.5t-68 -9q-68 0 -90.5 38t-22.5 109q0 53 18.5 126.5t48.5 143.5t67 117.5t74 47.5z" />
    <glyph glyph-name="quoteright" unicode="&#x2019;" horiz-adv-x="328" 
d="M70 1009q-23 0 -37 12q-8 7 -8 17q0 9 6 18q18 27 38 68q50 103 50 191q0 20 -2 29q-4 16 -22 19q-66 9 -66 97q0 56 18.5 84.5t49.5 37.5t68 9q68 0 90.5 -38t22.5 -109q0 -53 -18.5 -126.5t-48.5 -143.5t-67 -117.5t-74 -47.5z" />
    <glyph glyph-name="quotesinglbase" unicode="&#x201a;" horiz-adv-x="403" 
d="M95 -346q-23 0 -37 12q-8 7 -8 17q0 9 6 18q18 27 38 68q50 103 50 191q0 20 -2 29q-4 16 -23 19q-65 9 -65 97q0 56 18.5 84.5t49.5 37.5t68 9q68 0 90.5 -38t22.5 -109q0 -53 -18.5 -126.5t-48.5 -143.5t-67 -117.5t-74 -47.5z" />
    <glyph glyph-name="quotedblleft" unicode="&#x201c;" horiz-adv-x="682" 
d="M233 1591q23 0 37 -12q8 -7 8 -17q0 -9 -6 -18q-18 -27 -38 -68q-50 -102 -50 -191q0 -20 2 -28q4 -17 23 -19q65 -10 65 -98q0 -56 -18.5 -84.5t-49.5 -37.5t-68 -9q-68 0 -90.5 38t-22.5 109q0 53 18.5 126.5t48.5 143.5t67 117.5t74 47.5zM587 1591q23 0 37 -12
q8 -7 8 -17q0 -9 -6 -18q-18 -27 -38 -68q-50 -102 -50 -191q0 -20 2 -28q4 -17 23 -19q65 -10 65 -98q0 -56 -18.5 -84.5t-49.5 -37.5t-68 -9q-68 0 -90.5 38t-22.5 109q0 53 18.5 126.5t48.5 143.5t67 117.5t74 47.5z" />
    <glyph glyph-name="quotedblright" unicode="&#x201d;" horiz-adv-x="682" 
d="M70 1009q-23 0 -37 12q-8 7 -8 17q0 9 6 18q18 27 38 68q50 103 50 191q0 20 -2 29q-4 16 -22 19q-66 9 -66 97q0 56 18.5 84.5t49.5 37.5t68 9q68 0 90.5 -38t22.5 -109q0 -53 -18.5 -126.5t-48.5 -143.5t-67 -117.5t-74 -47.5zM424 1009q-23 0 -37 12q-8 7 -8 17
q0 9 6 18q18 27 38 68q50 103 50 191q0 20 -2 29q-4 16 -23 19q-65 9 -65 97q0 56 18.5 84.5t49.5 37.5t68 9q68 0 90.5 -38t22.5 -109q0 -53 -18.5 -126.5t-48.5 -143.5t-67 -117.5t-74 -47.5z" />
    <glyph glyph-name="quotedblbase" unicode="&#x201e;" horiz-adv-x="682" 
d="M70 -291q-23 0 -37 12q-8 7 -8 17q0 9 6 18q18 27 38 68q50 103 50 191q0 20 -2 29q-4 16 -22 19q-66 9 -66 97q0 56 18.5 84.5t49.5 37.5t68 9q68 0 90.5 -38t22.5 -109q0 -53 -18.5 -126.5t-48.5 -143.5t-67 -117.5t-74 -47.5zM424 -291q-23 0 -37 12q-8 7 -8 17
q0 9 6 18q18 27 38 68q50 103 50 191q0 20 -2 29q-4 16 -23 19q-65 9 -65 97q0 56 18.5 84.5t49.5 37.5t68 9q68 0 90.5 -38t22.5 -109q0 -53 -18.5 -126.5t-48.5 -143.5t-67 -117.5t-74 -47.5z" />
    <glyph glyph-name="dagger" unicode="&#x2020;" horiz-adv-x="971" 
d="M581 1218q-14 -269 -18 -533q-7 -419 -7 -799v-171q0 -72 -18.5 -96t-46.5 -24q-106 0 -120 605q-8 297 -8 507q0 254 8 509q-152 -2 -254 -2q-35 1 -51 27t-16 58q0 33 15 60.5t41 27.5q117 0 271 -6q5 127 12 254q5 84 64 100q27 7 55 7q25 0 48 -5t37.5 -24t14.5 -62
q0 -27 -7 -120q-6 -80 -11 -159q174 -7 275 -10q56 -1 56 -59q0 -23 -8 -42q-16 -38 -332 -43z" />
    <glyph glyph-name="daggerdbl" unicode="&#x2021;" horiz-adv-x="971" 
d="M364 918q5 358 25 717q5 84 64 100q27 7 55 7q25 0 48 -5t37.5 -24t14.5 -62q0 -27 -7 -120q-23 -314 -33 -622q189 -9 297 -11q56 -2 56 -59q0 -23 -8 -42q-16 -38 -338 -43h-11q-1 -35 -1 -69l-2 -100q127 1 222 1h72t50 -26t16 -58q0 -33 -15 -61t-41 -28
q-130 0 -306 8q-3 -277 -3 -535v-171q0 -72 -18.5 -96t-46.5 -24q-106 0 -120 605q-3 122 -5 229q-163 8 -260 10q-56 1 -56 59q0 22 8 42q15 36 306 42q-1 66 -1 125v44q-146 -1 -246 -1q-35 0 -51 26t-16 59t15 60.5t41 27.5q112 0 258 -5z" />
    <glyph glyph-name="bullet" unicode="&#x2022;" horiz-adv-x="794" 
d="M397 441q-123 0 -210 90t-87 217t87 217t210 90t210 -90t87 -217t-87 -217t-210 -90z" />
    <glyph glyph-name="ellipsis" unicode="&#x2026;" horiz-adv-x="2048" 
d="M163 -3q-27 0 -53 5.5t-43 27t-17 69.5q0 59 18.5 88.5t49.5 39t68 9.5q28 0 54 -5.5t42.5 -26.5t16.5 -69q0 -138 -136 -138zM846 -3q-27 0 -53 5.5t-43 27t-17 69.5q0 59 18.5 88.5t49.5 39t68 9.5q28 0 54 -5.5t42.5 -26.5t16.5 -69q0 -138 -136 -138zM1529 -3
q-27 0 -53 5.5t-43 27t-17 69.5q0 59 18.5 88.5t49.5 39t68 9.5q28 0 54 -5.5t42.5 -26.5t16.5 -69q0 -138 -136 -138z" />
    <glyph glyph-name="guilsinglleft" unicode="&#x2039;" horiz-adv-x="504" 
d="M349 29q-24 0 -43 29l-183 286q-23 36 -23 71q0 29 15 57l158 287q11 20 34 20q25 0 49 -14q48 -27 48 -56q0 -21 -171 -280q171 -308 171 -348q0 -28 -28 -44q-14 -8 -27 -8z" />
    <glyph glyph-name="guilsinglright" unicode="&#x203a;" horiz-adv-x="504" 
d="M155 29q-13 0 -27 8q-28 16 -28 44q0 40 171 348q-171 259 -171 280q0 29 47 56q25 14 50 14q23 0 34 -20l158 -287q15 -28 15 -57q0 -35 -23 -71l-183 -286q-19 -29 -43 -29z" />
    <glyph glyph-name="fraction" unicode="&#x2044;" horiz-adv-x="298" 
d="M-169 -28q-31 0 -31 38q0 17 6 37q60 210 358 796q124 245 176 339q24 43 102 43q56 0 56 -21q0 -14 -23 -53q-98 -162 -304 -570q-181 -357 -274 -561q-22 -48 -66 -48z" />
    <glyph glyph-name="fraction" unicode="&#x2215;" horiz-adv-x="298" 
d="M-169 -28q-31 0 -31 38q0 17 6 37q60 210 358 796q124 245 176 339q24 43 102 43q56 0 56 -21q0 -14 -23 -53q-98 -162 -304 -570q-181 -357 -274 -561q-22 -48 -66 -48z" />
    <glyph glyph-name="lira" unicode="&#x20a4;" horiz-adv-x="820" 
d="M288 -28q-32 0 -70.5 13.5t-66.5 38.5t-28 61q0 17 10 35q92 169 95 311q-76 -2 -137 -2q-19 0 -30 20t-11 44q0 23 12 41.5t37 18.5l127 -1q-3 47 -9 93l-118 -1q-25 0 -37 18.5t-12 41.5q0 24 11 44t30 20l106 -1q-14 92 -14 152q0 143 79 223t234 80q113 0 165.5 -68
t52.5 -139q-1 -107 -84 -107q-22 0 -22 17q0 7 3 16q5 19 5 47q-1 28 -10 56t-30 47t-57 19q-56 0 -80 -73q-19 -55 -19 -118q0 -75 7 -161q133 -6 210 -8q40 -1 40 -42q0 -42 -23 -45q-78 -9 -222 -14l1 -101q143 -5 221 -14q23 -3 23 -45q0 -41 -40 -42q-77 -2 -210 -8
q-7 -50 -27 -119q-31 -110 -112 -203q206 31 304 44q69 9 120 9q32 0 45 -16.5t13 -36.5q0 -22 -14 -36t-61 -26q-330 -83 -407 -83z" />
    <glyph glyph-name="Euro" unicode="&#x20ac;" horiz-adv-x="784" 
d="M484 -28q-108 0 -178 54q-123 93 -137 404l-94 -1q-19 0 -29.5 20t-10.5 44q0 23 11.5 41.5t35 19t44.5 0.5l41 -1q1 47 5 91h-90q-24 0 -35.5 18.5t-11.5 41.5q0 24 10.5 44t29.5 20q51 0 112 -2q23 128 70 233q102 226 291 226q49 0 93 -25t71.5 -70.5t27.5 -104.5
q0 -95 -47 -111q-19 -6 -36 -6q-22 0 -22 18q0 6 2 15q5 18 5 37q0 58 -28 96q-20 26 -49 26q-47 0 -79 -60q-51 -96 -73 -282q132 -6 208 -8q40 -1 40 -42q0 -42 -23 -45q-82 -10 -237 -15q-4 -55 -6 -99q159 -5 243 -15q23 -3 23 -45q0 -41 -40 -42q-82 -2 -229 -8
q0 -344 111 -344q51 0 95 103q17 38 41 38q17 0 34 -8q39 -18 39 -41q0 -19 -20 -58q-80 -157 -208 -157z" />
    <glyph glyph-name="trademark" unicode="&#x2122;" horiz-adv-x="1244" 
d="M1046 749q-32 0 -40 27q-21 76 -22 140.5t-1 80.5q0 151 21 367q2 17 2 26q0 6 -2 6q-1 0 -5 -6q-46 -68 -81 -150q-85 -202 -85 -376q0 -42 -36 -42q-60 0 -60 220q0 169 23 404q3 31 3 43q0 9 -3 9q-4 0 -11 -10q-39 -58 -72 -136q-84 -196 -84 -435q0 -47 -36 -47
q-55 0 -56 168l-1 106q0 175 13 354q-68 -3 -151 -17q16 -8 16 -30q0 -18 -3 -42q-15 -137 -25.5 -310.5t-10.5 -300.5q0 -49 -36 -49q-54 0 -56 180l-1 118q0 204 15 397q1 12 5 20q-72 -13 -110 -22.5t-54 -9.5q-24 0 -24 39q0 30 23 34q281 45 418 45q67 0 82 -3
t23 -10.5t8 -23.5q0 -17 -3 -40q-7 -62 -13 -129q37 109 81 179q60 96 122 96q32 0 49 -14t20.5 -34.5t3.5 -35.5q0 -17 -3 -38q-21 -159 -34 -272q38 111 85 186q59 96 122 96q32 0 49 -14t20 -34t3 -35q0 -18 -3 -39q-19 -149 -34 -296t-15 -298q0 -42 -36 -42z" />
    <glyph glyph-name="minus" unicode="&#x2212;" horiz-adv-x="920" 
d="M156 527q-29 1 -42.5 22.5t-13.5 47.5q0 27 12.5 50t33.5 23q142 0 349 -10q180 -8 279 -11q46 -1 46 -48q0 -19 -7 -35q-13 -31 -279 -35q-242 -4 -378 -4z" />
    <glyph glyph-name="approxequal" unicode="&#x2248;" horiz-adv-x="880" 
d="M603 482q-62 0 -108.5 22t-86.5 49q-35 23 -70 40t-75 17q-38 0 -57.5 -24t-32.5 -52q-10 -21 -21 -36.5t-29 -15.5q-43 0 -43 64q0 81 58 136.5t139 55.5q65 0 117 -24t96 -52q34 -21 65.5 -36.5t62.5 -15.5q26 0 43 12t28 29.5t20.5 37.5t20 34.5t26.5 14.5
q44 0 44 -63q0 -82 -58 -137.5t-139 -55.5zM603 226q-62 0 -108.5 22t-86.5 49q-35 23 -70 40t-75 17q-38 0 -57.5 -24t-32.5 -52q-10 -22 -21 -37t-29 -15q-43 0 -43 63q0 82 58 137.5t139 55.5q65 0 117 -24t96 -52q34 -21 65.5 -36.5t62.5 -15.5q26 0 43 12t28 29.5
t20.5 37t20 34.5t26.5 15q44 0 44 -64q0 -81 -58 -136.5t-139 -55.5z" />
    <glyph glyph-name="lessequal" unicode="&#x2264;" horiz-adv-x="920" 
d="M771 215q-22 0 -294 130l-349 165q-28 13 -28 56q0 37 230 158l75 40q308 171 335 171q33 0 56.5 -35.5t23.5 -76.5q0 -42 -308 -164q-114 -46 -224 -97q224 -104 452 -230l53.5 -29t26.5 -35q0 -18 -14 -35.5t-35 -17.5zM156 0q-29 0 -42.5 21.5t-13.5 48.5t12.5 50
t33.5 23q142 0 349 -10q180 -9 279 -11q46 -1 46 -49q0 -18 -7 -34q-13 -32 -279 -36q-242 -3 -378 -3z" />
    <glyph glyph-name="greaterequal" unicode="&#x2265;" horiz-adv-x="920" 
d="M149 215q-21 0 -35 17.5t-14 35.5q0 21 26.5 35l53.5 29q228 126 452 230q-110 51 -224 97q-308 122 -308 164q0 41 23.5 76.5t56.5 35.5q27 0 335 -171l75 -40q230 -121 230 -158q0 -43 -28 -56l-349 -165q-272 -130 -294 -130zM156 0q-29 0 -42.5 21.5t-13.5 48.5
t12.5 50t33.5 23q142 0 349 -10q180 -9 279 -11q46 -1 46 -49q0 -18 -7 -34q-13 -32 -279 -36q-242 -3 -378 -3z" />
    <glyph glyph-name="uni00B9" unicode="&#xb9;" horiz-adv-x="442" 
d="M265 433q-66 0 -81 45q-26 72 -27.5 157.5t-1.5 121.5q0 145 6 216q-56 -60 -97 -60q-21 0 -40 14.5t-19 34.5q0 12 11 24q78 82 156 192q33 47 125 47q102 0 102 -56q0 -20 -5 -46q-22 -139 -36.5 -315t-14.5 -305q0 -70 -78 -70z" />
    <glyph glyph-name="uni00B2" unicode="&#xb2;" 
d="M152 432q-26 0 -55.5 9.5t-53.5 29.5t-24 49q0 22 73 143l72 125q85 153 85 232q0 95 -38 95q-19 0 -32 -29q-5 -11 -5 -32q0 -11 2.5 -17t2.5 -13q0 -30 -40 -30q-80 0 -80 84q0 59 45.5 101.5t134.5 42.5q99 0 157.5 -54.5t58.5 -147.5q0 -101 -97 -258
q-33 -52 -130 -195q28 4 72 11t71.5 10t57.5 3q63 0 63 -52q0 -20 -15 -33.5t-54 -23.5q-214 -50 -271 -50z" />
    <glyph glyph-name="uni00B3" unicode="&#xb3;" horiz-adv-x="467" 
d="M173 432q-30 0 -62.5 8.5t-57 24.5t-24.5 36q0 29 44 32q48 5 86.5 24t61.5 54t23 89q0 18 -5.5 38t-15 30t-24.5 10q-6 0 -16 -4.5t-21 -4.5q-22 0 -41 17t-19 40q0 18 36 43q74 48 74 152q0 34 -11.5 64t-27.5 30q-36 0 -36 -58q0 -13 1 -16q3 -10 3 -17q0 -30 -40 -30
q-74 0 -74 70q0 60 45.5 109.5t139.5 49.5q92 0 140 -49.5t48 -128.5q0 -113 -84 -174q23 -4 69 -51t46 -128q0 -62 -30.5 -123t-89 -99t-138.5 -38z" />
    <glyph glyph-name="uniE007" unicode="&#xe007;" horiz-adv-x="933" 
d="M205 252q26 0 63 70q70 133 133 341q19 64 22 120q-21 27 -53 27q-90 0 -145 -161q-50 -147 -50 -333q0 -64 30 -64zM645 7q-194 0 -224 430q-107 -364 -297 -364q-67 0 -104 34.5t-52.5 88.5t-15.5 110q0 76 11 163.5t35.5 171t65.5 152t101.5 110t142.5 41.5
q71 0 124 -60l4 38q12 92 79 113q31 9 72 9q63 0 89.5 -18t26.5 -59q0 -18 -3 -40q-5 -33 -16 -154t-18 -246t-7 -212q0 -171 30 -171q46 0 132 195q63 144 112 302q9 28 39 28q25 0 35.5 -14t10.5 -28q0 -9 -16 -58q-60 -180 -102 -278q-124 -284 -255 -284z" />
    <glyph glyph-name="uniE008" unicode="&#xe008;" horiz-adv-x="854" 
d="M307 280q36 14 65 54q43 61 66 160t23 213q0 28 -8 46t-23 18q-47 0 -135 -264q-35 -104 -60 -197q23 -27 72 -30zM491 192q-71 -53 -164 -53q-66 0 -118 56q-1 -7 -1 -83q0 -63 -23 -84t-57 -21q-71 0 -88 65q-36 141 -38.5 292.5t-2.5 211.5q0 344 33 765q5 71 78 84
q32 5 65 5q29 0 56.5 -4t45 -20t17.5 -52q0 -38 -6 -90q-44 -377 -64 -685q40 130 90 219q92 166 225 166q61 0 104 -56.5t43 -167.5q0 -235 -81 -400q183 84 249 301q8 28 38 28q21 0 33.5 -13.5t12.5 -29.5q0 -13 -5 -30q-96 -327 -442 -404z" />
    <glyph glyph-name="uniE009" unicode="&#xe009;" horiz-adv-x="694" 
d="M271 67q-156 0 -229 99.5t-73 274.5q0 194 99 333q108 150 287 150q88 0 134 -50.5t46 -124.5q0 -78 -35 -133q-22 -34 -60 -34q-47 0 -47 22q0 7 8 20q39 57 39 110q0 31 -15.5 50t-38.5 19q-86 0 -132 -146q-38 -119 -38 -231q0 -50 9.5 -104.5t34 -92.5t70.5 -38
q97 0 197 117q90 105 130 220q23 67 37 113q8 28 39 28q17 0 31 -9.5t14 -33.5q0 -12 -14 -58q-109 -346 -326 -461q-76 -40 -167 -40z" />
    <glyph glyph-name="uniE00A" unicode="&#xe00a;" horiz-adv-x="925" 
d="M210 292q26 0 63 58q75 117 132 286q24 70 26 103q-7 11 -22.5 21t-33.5 10q-63 0 -106.5 -55.5t-66 -149.5t-22.5 -209q0 -64 30 -64zM637 27q-199 0 -211 382v13q-37 -104 -83 -176q-87 -133 -215 -133q-66 0 -103.5 34.5t-52.5 88.5t-15 110q0 222 75 374
q91 184 281 184q72 0 125 -62q15 215 42 539q6 71 78 84q31 5 64 5q29 0 56.5 -4t45 -20t17.5 -52q0 -35 -8 -107q-79 -678 -79 -972q0 -151 27 -151q47 0 132 186q67 146 112 291q9 28 39 28q18 0 32 -11t14 -31q0 -10 -12 -45q-55 -166 -102 -272q-125 -283 -259 -283z
" />
    <glyph glyph-name="uniE00B" unicode="&#xe00b;" horiz-adv-x="675" 
d="M252 47q-147 0 -224.5 89.5t-77.5 244.5q0 91 25 186.5t74 176t121 130.5t166 50q182 0 182 -193q0 -140 -88 -230.5t-234 -94.5q0 -50 9.5 -104.5t34.5 -92.5t70 -38q97 0 197 127q86 109 130 230q24 67 38 113q8 28 38 28q25 0 35.5 -14t10.5 -28q0 -8 -16 -58
q-110 -357 -324 -479q-76 -43 -167 -43zM200 486q103 8 162 74q56 63 56 154q0 89 -51 89q-77 0 -124 -125q-37 -97 -43 -192z" />
    <glyph glyph-name="uniE00C" unicode="&#xe00c;" horiz-adv-x="508" 
d="M236 -410q25 0 47.5 45.5t22.5 99.5q0 128 -22 229q-19 81 -65 169l-26 -8q-14 -205 -14 -355q0 -180 57 -180zM221 -519q-56 0 -103.5 29t-82.5 97.5t-44 183.5q-9 104 -9 252q0 388 60 1378q4 70 76 83q32 6 65 6q29 0 56.5 -4t45 -20t17.5 -52q0 -38 -6 -90
q-39 -365 -91 -1036l29 -44q106 36 171 136q60 92 103 241q8 28 38 28q25 0 35.5 -14t10.5 -28q0 -9 -28 -95q-38 -114 -107 -210q-73 -103 -167 -156q97 -195 97 -425q0 -135 -47.5 -197.5t-118.5 -62.5z" />
    <glyph glyph-name="uniE00D" unicode="&#xe00d;" horiz-adv-x="915" 
d="M208 324q38 0 75 55.5t67 132t49 146.5t22 103q-8 12 -24 22t-34 10q-88 0 -139 -121q-46 -108 -46 -247q0 -101 30 -101zM216 -557q-47 0 -87 21t-64 60t-24 95q0 159 102 261q47 47 109 86t158 93q8 143 17 404q-94 -301 -294 -301q-80 0 -120 68t-40 215
q0 129 38.5 237t111.5 171t175 63q72 0 121 -51l18 -20q1 60 9 114.5t40.5 89.5t108.5 35q103 0 103 -80q0 -21 -2 -81q-14 -474 -31 -687q190 171 250 405q7 28 39 28q24 0 34.5 -14.5t10.5 -28.5q0 -8 -2 -16q-26 -100 -78 -202q-84 -166 -266 -304q-16 -153 -39 -257
q-88 -404 -398 -404zM206 -433q94 0 145 135q38 100 51 245q-74 -45 -110 -69q-64 -44 -104 -102t-40 -145q0 -31 18.5 -47.5t39.5 -16.5z" />
    <glyph glyph-name="uniE00E" unicode="&#xe00e;" horiz-adv-x="971" 
d="M662 -13q-109 0 -163 126q-46 109 -46 278q0 75 4 183.5t4 220.5q0 54 -20 54q-29 0 -61 -60.5t-62.5 -151.5t-55 -188t-39 -175.5t-14.5 -109.5q0 -61 -23 -81t-57 -20q-70 0 -87 63q-42 159 -42 552q0 207 10.5 451.5t22.5 394.5q3 38 24.5 56.5t53.5 24t65 5.5
q29 0 56.5 -4t45 -19.5t17.5 -49.5q0 -37 -4 -77q-53 -496 -71 -881q45 154 92 254q100 211 228 211q154 0 154 -247q0 -129 -6 -318q-5 -157 -5 -250q0 -105 23 -105q24 0 57 45q62 83 128 248q53 135 80 224q8 28 38 28q25 0 38 -17q8 -11 8 -25q0 -8 -3 -17
q-110 -348 -201 -490q-85 -133 -189 -133z" />
    <glyph glyph-name="uniE00F" unicode="&#xe00f;" horiz-adv-x="518" 
d="M230 47q-229 0 -231 469l-1 161q0 81 30 122q33 45 123 45q64 0 90 -18t26 -59q0 -18 -3 -40q-6 -42 -13 -161.5t-7 -263.5q0 -69 6.5 -93.5t22.5 -24.5q48 0 133 176q73 151 112 281q8 28 38 28q25 0 35.5 -14.5t10.5 -28.5q0 -13 -5 -30q-54 -157 -102 -265
q-128 -284 -265 -284zM140 930q-25 0 -48.5 5t-39 23.5t-15.5 60.5q0 51 17 77t45 34.5t62 8.5q25 0 48.5 -5t39 -23.5t15.5 -60.5q0 -120 -124 -120z" />
    <glyph glyph-name="uniE010" unicode="&#xe010;" horiz-adv-x="498" 
d="M-203 -557q-78 0 -126.5 46t-48.5 130q0 160 103 261q47 47 108 85q65 41 159 94q7 124 7 285q0 42 -1 76q-1 41 -1 85q0 162 10 233q8 56 40.5 91t108.5 35q61 0 86 -26q15 -15 15 -52q-3 -232 -3 -292q0 -128 -9 -261q19 17 35 34q167 170 218 374q7 28 37 28
q25 0 35.5 -14t10.5 -28q0 -8 -5 -29q-17 -72 -77 -190q-86 -170 -265 -304q-31 -306 -111 -461q-102 -200 -326 -200zM138 951q-25 0 -48.5 4.5t-39 23.5t-15.5 60q0 52 17 77.5t45 34t62 8.5q25 0 48.5 -4.5t39 -23.5t15.5 -60q0 -120 -124 -120zM-213 -433q158 0 196 380
q-58 -34 -110 -69q-64 -44 -103.5 -102t-39.5 -145q0 -31 18.5 -47.5t38.5 -16.5z" />
    <glyph glyph-name="uniE011" unicode="&#xe011;" horiz-adv-x="739" 
d="M107 -42q-51 0 -68 65q-36 140 -38.5 312t-2.5 241q0 207 9 416q11 279 24 431q3 39 24.5 58t53.5 24.5t65 5.5q29 0 56 -4t45 -19.5t18 -50.5q0 -38 -6 -89q-39 -325 -61 -719q135 96 238 306q16 33 53 33q26 0 49 -14.5t23 -38.5q0 -63 -110 -184q-86 -95 -147 -140
q13 -60 47 -126t73.5 -113t67.5 -47q122 0 219 336q8 28 38 28q25 0 38 -17q8 -11 8 -25q0 -13 -53 -167q-36 -105 -98 -194q-75 -109 -157 -109q-103 0 -201 104q-86 90 -97 159q-5 -123 -17 -292.5t-93 -169.5z" />
    <glyph glyph-name="uniE012" unicode="&#xe012;" horiz-adv-x="498" 
d="M221 47q-204 0 -219 332q-4 68 -4 122q0 255 20 571l26 369q6 71 77 84q32 5 65 5q29 0 56 -4t45 -20t18 -52q0 -48 -6 -101q-36 -298 -59 -652q-12 -188 -12 -319q0 -198 26 -198q55 0 177 286q44 96 67 171q10 28 39 28q25 0 35.5 -14t10.5 -28q0 -16 -44 -134
q-13 -36 -27 -69q-160 -377 -291 -377z" />
    <glyph glyph-name="uniE013" unicode="&#xe013;" horiz-adv-x="1313" 
d="M125 7q-71 0 -88 63q-38 139 -38 486q0 195 9 288q4 38 20.5 57t44 25t60.5 6q29 0 56 -4t45 -19.5t18 -50.5q0 -37 -5 -77q-12 -89 -21 -181q18 44 38 86q94 190 215 190q134 0 146 -208q27 71 64 128.5t85 92.5t108 35q155 0 155 -247q0 -17 -5 -76q-18 -188 -18 -278
q0 -139 34 -139q37 0 90 65q93 114 175 392q8 28 38 28q25 0 35.5 -14t10.5 -28q0 -8 -16 -58q-75 -235 -141 -350q-98 -172 -235 -172q-87 0 -141 62q-69 79 -69 262q0 77 4 146q3 44 3 89v69q-1 54 -19 54q-33 0 -61.5 -67t-51 -163t-37.5 -190q-7 -46 -18 -97t-33 -88
t-60 -37q-91 0 -91 276l1 178q0 60 -9 104t-27 44q-36 0 -70 -74.5t-61.5 -176t-44 -194.5t-16.5 -133q0 -64 -22.5 -84t-56.5 -20z" />
    <glyph glyph-name="uniE014" unicode="&#xe014;" horiz-adv-x="965" 
d="M658 -93q-116 0 -163 104.5t-47 299.5q0 78 4 120q5 48 5 124q0 54 -21 54q-36 0 -76 -62t-75.5 -148.5t-57.5 -167t-22 -121.5q0 -63 -23 -83t-57 -20q-71 0 -88 63q-38 139 -38 486q0 195 9 288q4 38 21 57t44 25t60 6q29 0 56 -4t45 -19.5t18 -50.5q0 -37 -5 -77
q-20 -149 -30 -304q128 327 319 327q154 0 154 -247q0 -129 -6 -232q-5 -95 -5 -189q0 -92 23 -92q35 0 101 161q117 284 162 436q8 28 40 28q21 0 33 -12.5t12 -30.5q0 -28 -79 -239q-88 -242 -140 -336q-81 -144 -173 -144z" />
    <glyph glyph-name="uniE015" unicode="&#xe015;" horiz-adv-x="762" 
d="M270 81q-81 0 -134 36q-147 100 -147 379q0 66 10.5 147t63.5 130q31 30 82 30q23 0 40 -3q50 156 177 156q204 0 204 -333q0 -138 -25 -246q136 0 202 202q11 34 19 62q9 28 40 28q19 0 32 -11q13 -12 13 -32q0 -13 -24 -85q-83 -253 -306 -253h-3q-79 -207 -244 -207z
M426 399q23 102 23 210q0 100 -14 161q-21 90 -81 90q-34 0 -53 -34.5t-26.5 -82t-7.5 -87.5q0 -196 159 -257zM290 178q66 0 111 129q-22 7 -44 17q-88 39 -140 134q-4 -51 -4 -93q0 -51 6.5 -93.5t23.5 -68t47 -25.5z" />
    <glyph glyph-name="uniE016" unicode="&#xe016;" horiz-adv-x="868" 
d="M341 290q24 16 45 44q43 61 65.5 160t22.5 213q0 28 -8 46t-23 18q-46 0 -144 -264q-34 -92 -61 -177q25 -37 103 -40zM505 192q-71 -53 -164 -53q-50 0 -85 26q-21 15 -38 35q-23 -405 -23 -675q0 -63 -23 -83.5t-57 -20.5q-71 0 -87 65q-37 145 -39.5 332t-2.5 262
q0 226 9 454q12 304 24 460q3 40 24.5 59t53.5 25t65 6q29 0 56 -4t45 -20t18 -52q0 -39 -6 -90q-16 -128 -28 -275q123 321 306 321q60 0 103.5 -56.5t43.5 -167.5q0 -235 -81 -400q183 84 249 301q8 28 38 28q21 0 33.5 -13.5t12.5 -29.5q0 -13 -5 -30q-96 -327 -442 -404
z" />
    <glyph glyph-name="uniE017" unicode="&#xe017;" horiz-adv-x="948" 
d="M204 251q26 0 63 72q69 138 132 350q17 60 21 120q-23 24 -52 24q-88 0 -144 -171q-51 -154 -51 -334q0 -26 8 -43.5t23 -17.5zM665 -518q29 0 47 44.5t26.5 104t8.5 104.5q0 128 -22 229q-18 81 -65 169l-26 -8q-14 -205 -14 -355t13 -219t32 -69zM641 -655
q-143 0 -197 218q-41 166 -41 484q0 199 3 358q-107 -324 -284 -324q-66 0 -103.5 33t-53 84t-15.5 104q0 72 11 158.5t35.5 171.5t66 155.5t101.5 113.5t142 43q50 0 85 -24q20 -14 38 -32q13 124 33 151q33 45 123 45q64 0 90 -18t26 -59q0 -18 -3 -40q-26 -204 -39 -469
q-6 -108 -12 -190l29 -44q106 36 171 136q58 89 101 241q8 28 43 28q21 0 31.5 -12.5t10.5 -30.5q0 -12 -14 -58q-40 -134 -120 -246q-74 -102 -168 -156q98 -197 98 -425q0 -396 -188 -396z" />
    <glyph glyph-name="uniE018" unicode="&#xe018;" horiz-adv-x="675" 
d="M348 -113q-230 0 -230 324q0 208 102 538q-50 14 -93 36q-42 -185 -61 -197q-11 -7 -23 -7q-25 0 -35.5 14.5t-10.5 27.5q0 8 3 18q27 79 45 201q-69 63 -69 153v40q0 54 26 70.5t75 16.5q20 0 41 -3.5t34.5 -15.5t13.5 -37q0 -83 -18 -172q55 -63 180 -91
q131 -29 131 -110q0 -29 -36 -160q-17 -61 -28 -114q-38 -189 -38 -299q0 -96 35 -96q45 0 152 256q82 196 131 361q8 28 40 28q20 0 32.5 -12.5t12.5 -30.5q0 -9 -16 -58q-64 -196 -118 -326q-147 -355 -278 -355z" />
    <glyph glyph-name="uniE019" unicode="&#xe019;" horiz-adv-x="541" 
d="M212 -225q-43 0 -82 20t-64 63.5t-25 111.5q0 62 30 111q37 62 135 144l-54 93q-41 66 -78.5 136t-62.5 146t-25 163q0 131 77.5 202.5t194.5 71.5q38 0 60 -3.5t38 -13t16 -28.5q0 -43 -69 -47q-43 -3 -73 -30t-30 -75q0 -81 32.5 -169.5t75.5 -182.5q29 -64 56 -131
l49 49q81 80 116 195l12 40q8 28 40 28q22 0 33.5 -13.5t11.5 -29.5q0 -12 -15 -54q-52 -142 -137 -235q-38 -42 -75 -78q33 -107 33 -195q0 -74 -18 -140.5t-71.5 -107.5t-130.5 -41zM220 -137q22 0 40.5 16t25 39.5t6.5 45.5q0 78 -38 168q-58 -53 -78.5 -85t-20.5 -85
q0 -99 65 -99z" />
    <glyph glyph-name="uniE01A" unicode="&#xe01a;" horiz-adv-x="513" 
d="M185 -113q-66 0 -105 67.5t-58 179t-22 209.5t-3 160q0 266 36 662q-100 -1 -213 -1q-77 0 -132 2q-41 1 -53.5 22.5t-12.5 54.5q0 17 7 32q9 21 63 21q27 0 53 -1q147 -7 299 -9l7 73q6 71 78 84q32 6 65 6q28 0 54 -4.5t42.5 -20.5t16.5 -52q0 -37 -7 -88q49 0 372 4
q62 0 62 -39q0 -31 -42 -41q-120 -26 -404 -37q-67 -634 -67 -954q0 -173 27 -173q42 0 135.5 239.5t129.5 357.5q8 28 38 28q22 0 34 -12.5t12 -29.5q0 -8 -16 -58q-72 -221 -117 -342q-126 -340 -279 -340z" />
    <glyph glyph-name="uniE01B" unicode="&#xe01b;" horiz-adv-x="983" 
d="M695 7q-115 0 -169 120q-41 89 -46 219q-18 -60 -51.5 -114t-81.5 -89t-110 -35q-89 0 -141.5 52t-75 151.5t-22.5 240.5q0 145 16 270q12 93 77 113q31 9 72 9q64 0 90.5 -18t26.5 -59q0 -24 -8 -67q-36 -191 -36 -378q0 -69 17 -113.5t53 -44.5t68.5 57t57.5 149
t39.5 201t14.5 211q0 50 20.5 76t54.5 36t75 10q64 0 90 -18t26 -59q0 -18 -4.5 -45t-14.5 -138q-24 -269 -24 -442q0 -158 29 -158q46 0 132 195q63 144 113 302q8 28 38 28q25 0 35.5 -14t10.5 -28q0 -8 -17 -58q-59 -180 -101 -278q-124 -284 -254 -284z" />
    <glyph glyph-name="uniE01C" unicode="&#xe01c;" horiz-adv-x="771" 
d="M318 -73q-107 0 -196 228q-51 129 -90 320q-55 268 -55 351q0 32 14.5 56t45 35.5t66.5 11.5q37 0 66 -6t47 -27t20 -65q11 -242 34.5 -407t47 -249.5t30.5 -84.5q31 0 101 327q-21 32 -39 76q-59 146 -59 315q0 86 20 162.5t59.5 124.5t96.5 48q54 0 83.5 -39.5
t29.5 -105.5q0 -75 -17 -206q-25 -181 -68 -364q19 -13 42 -13q62 0 104 58q34 46 70 168q9 28 39 28q25 0 37 -17q8 -12 8 -26q0 -11 -12 -48t-21 -61q-27 -70 -59 -110q-67 -83 -169 -83q-33 0 -62 14q-109 -411 -214 -411zM479 573q50 273 50 424q0 9 -2 20.5t-6 20
t-10 8.5q-19 0 -37 -80t-18 -180q0 -116 23 -213z" />
    <glyph glyph-name="uniE01D" unicode="&#xe01d;" horiz-adv-x="1222" 
d="M729 -33q-72 0 -126 73q-68 91 -118 326q-63 -277 -217 -277q-271 0 -271 673q0 74 35 100.5t90 26.5q36 0 66 -6t48 -27t18 -65q0 -224 2.5 -344t14.5 -165.5t39 -45.5q32 0 58 79q33 105 47 279q6 78 21.5 166.5t117.5 88.5q36 0 65 -6t47 -27.5t20 -64.5
q10 -239 23 -375.5t29.5 -191t35.5 -54.5q16 0 46 58q40 77 74 207q-27 32 -49 78q-64 132 -64 295q0 86 20 157.5t59.5 114.5t97.5 43q44 0 68.5 -23t34.5 -60.5t10 -81.5q0 -239 -61 -495q18 -8 38 -8q61 0 103 58q34 46 71 168q8 28 38 28q25 0 38 -17q8 -11 8 -25
q0 -7 -26 -86q-29 -87 -67 -134q-66 -83 -169 -83q-30 0 -58 9q-22 -77 -50 -144q-92 -222 -207 -222zM925 530q35 187 35 387q0 9 -2 25.5t-6 30t-10 13.5q-20 0 -38 -70t-18 -170q0 -117 39 -216z" />
    <glyph glyph-name="uniE01E" unicode="&#xe01e;" horiz-adv-x="679" 
d="M-14 -154q-34 0 -34 44q0 22 192 389q-62 98 -104 216q-37 104 -49 199q-3 20 -3 36q0 51 27 74q31 26 125 26q36 0 65.5 -14t38 -81t43.5 -186l137 262q17 33 54 33q25 0 48.5 -14.5t23.5 -38.5q0 -12 -214 -396q62 -172 112 -172q31 0 62 39q89 112 169 379q8 28 38 28
q25 0 38 -17q8 -11 8 -26q0 -14 -35 -121q-44 -131 -127 -261q-101 -157 -200 -157q-92 0 -182 96q-127 -229 -167 -296q-16 -27 -29.5 -34t-36.5 -7z" />
    <glyph glyph-name="uniE01F" unicode="&#xe01f;" horiz-adv-x="958" 
d="M258 -557q-47 0 -87 21t-64 60t-24 95q0 161 102 261q47 47 108 86q53 33 159 93l12 244q-82 -175 -227 -175q-107 0 -173 106t-66 318q0 192 16 320q11 92 78 113q31 9 72 9q63 0 89.5 -18t26.5 -59q0 -18 -7 -65q-38 -239 -38 -377q0 -211 71 -211q44 0 82 73
q70 135 85 361q5 76 14 140q8 56 40.5 91t109.5 35q102 0 102 -73q0 -84 -4 -180q-14 -325 -26 -474q193 181 249 404q7 28 37 28q25 0 35.5 -14.5t10.5 -28.5q0 -8 -2 -16q-26 -100 -78 -202q-85 -167 -265 -304q-17 -150 -40 -257q-88 -404 -398 -404zM247 -433
q159 0 197 379q-78 -45 -111 -68q-63 -44 -103 -102t-40 -145q0 -31 18.5 -47.5t38.5 -16.5z" />
    <glyph glyph-name="uniE020" unicode="&#xe020;" horiz-adv-x="677" 
d="M178 -460q-63 0 -117 23t-87 67.5t-33 108.5q0 76 37.5 131.5t96 101t126.5 88.5q49 31 94 64q-10 59 -35 96q-28 40 -85 40q-8 0 -32 -3t-34 -3q-23 0 -23 55q0 41 31 112t68 145q72 142 72 175q-64 10 -131 44q-40 -184 -61 -197q-11 -7 -23 -7q-25 0 -35 14.5
t-10 28.5q0 8 3 17q26 79 45 201q-33 32 -56 90.5t-23 116.5q0 118 106 118q49 0 70.5 -18.5t21.5 -70.5q0 -30 -6 -103q-4 -47 -10 -81q32 -32 78.5 -43t95.5 -15q40 -3 73.5 -10t54 -24.5t20.5 -53.5q0 -39 -45.5 -118t-96.5 -152.5t-75 -103.5q129 0 208 -104
q47 48 84 101q101 142 132 269q7 29 37 29q25 0 35.5 -14t10.5 -28q0 -8 -3 -17q-56 -175 -137 -291q-48 -70 -112 -133q30 -74 30 -164q0 -126 -32.5 -217.5t-85.5 -150t-116.5 -86.5t-125.5 -28zM145 -342q36 0 73.5 31t62.5 99.5t25 180.5q0 25 -1 49l-35 -24
q-140 -89 -189 -154q-32 -41 -32 -89q0 -42 28.5 -67.5t67.5 -25.5z" />
    <glyph glyph-name="uniE021" unicode="&#xe021;" horiz-adv-x="836" 
d="M198 212q26 0 63 76t72.5 178.5t60 190.5t26.5 120q-7 12 -23 22.5t-34 10.5q-89 0 -145 -181q-50 -162 -50 -353q0 -64 30 -64zM413 416q-41 -139 -90 -229q-85 -154 -206 -154q-67 0 -104 34.5t-52.5 88.5t-15.5 110q0 76 11 167.5t35.5 181t65.5 164t101.5 120
t142.5 45.5q78 0 134 -73q7 29 21 48q34 45 124 45q63 0 89.5 -18t26.5 -59q0 -18 -3 -40q-5 -33 -16 -141q-19 -182 -23 -320q-1 -44 -1 -84q0 -96 11 -176t11 -98q0 -23 -11.5 -37t-37.5 -14q-104 0 -170 195q-31 91 -43 244z" />
    <glyph glyph-name="uniE022" unicode="&#xe022;" horiz-adv-x="805" 
d="M247 144q104 0 162 200q51 171 51 363q0 28 -8 46t-23 18q-26 0 -63 -79q-72 -153 -132 -382q-21 -83 -27 -157q20 -9 40 -9zM127 7q-71 0 -87 65q-42 165 -42 565q0 211 10.5 459.5t22.5 404.5q3 39 24.5 58.5t53.5 25t65 5.5q29 0 56.5 -4t45 -20t17.5 -52
q0 -38 -6 -90q-45 -387 -68 -858l23 68q29 89 70.5 163.5t97 120.5t128.5 46q61 0 104 -56.5t43 -167.5q0 -89 -13 -188q-27 -198 -100 -340q-99 -193 -246 -193q-53 0 -103 40q-14 11 -25 25l-1 -12q-10 -65 -70 -65z" />
    <glyph glyph-name="uniE023" unicode="&#xe023;" horiz-adv-x="620" 
d="M266 -43q-136 0 -224 101t-88 323q0 91 25 192.5t74 190t121 144.5t166 56q88 0 134 -50.5t46 -124.5q0 -78 -35 -133q-22 -34 -60 -34q-47 0 -47 22q0 8 8 20q39 57 39 110q0 31 -15.5 50t-38.5 19q-74 0 -125 -169q-45 -148 -45 -308q0 -284 152 -284q40 0 103 30
q32 15 47 15q16 0 16 -15q0 -47 -70 -101t-183 -54z" />
    <glyph glyph-name="uniE024" unicode="&#xe024;" horiz-adv-x="829" 
d="M198 212q26 0 63 76t72.5 178.5t59.5 190.5t27 120q-7 12 -23 22.5t-34 10.5q-89 0 -145 -181q-50 -162 -50 -353q0 -64 30 -64zM616 -53q-104 0 -170 195q-34 102 -42 245q-37 -120 -81 -200q-85 -154 -207 -154q-66 0 -103.5 34.5t-52.5 88.5t-15 110q0 76 11 167.5
t35.5 181t65.5 164t101.5 120t142.5 45.5q72 0 125 -62q21 418 42 649q3 39 25 59q33 30 117 30q29 0 56.5 -4t45 -20t17.5 -52q0 -38 -7 -79q-10 -58 -48 -580q-31 -374 -31 -613q0 -96 11 -176t11 -98q0 -51 -49 -51z" />
    <glyph glyph-name="uniE025" unicode="&#xe025;" horiz-adv-x="621" 
d="M205 446q68 6 117.5 57t76.5 123q25 67 25 128q0 89 -52 89q-73 0 -124 -163q-35 -114 -43 -234zM268 -43q-136 0 -224.5 101.5t-88.5 322.5q0 91 25 192.5t74 190t121 144.5t166 56q172 0 172 -193q0 -93 -37.5 -186t-107.5 -154.5t-167 -64.5q3 -85 14 -135
q30 -149 140 -149q40 0 103 30q32 15 47 15q16 0 16 -15q0 -47 -70 -101t-183 -54z" />
    <glyph glyph-name="uniE026" unicode="&#xe026;" horiz-adv-x="415" 
d="M220 -397q-104 0 -170 195q-52 147 -52 647q0 308 22 554q-34 0 -83 5q-20 2 -26 23.5t-6 57.5q0 17 3 32.5t20 16.5q14 0 31 -2q48 -7 76 -9q76 496 366 496q88 0 134 -50.5t46 -124.5q0 -78 -35 -133q-22 -34 -60 -34q-47 0 -47 22q0 8 8 20q39 57 39 110
q0 31 -15.5 50t-38.5 19q-108 0 -147 -392q26 -1 112 -1q36 0 36 -39q0 -35 -21 -44q-43 -18 -91 -21l-46 -2q-29 -324 -29 -593q0 -544 11.5 -639t11.5 -113q0 -51 -49 -51z" />
    <glyph glyph-name="uniE027" unicode="&#xe027;" horiz-adv-x="810" 
d="M180 204q31 0 61 49t56.5 123t47 153.5t33.5 142.5t15 89q-8 12 -24 22t-34 10q-86 0 -140 -181q-45 -154 -45 -307q0 -101 30 -101zM140 -443q26 0 50 16q96 62 161 307q-125 -3 -197 -72.5t-72 -156.5q0 -61 18.5 -77.5t39.5 -16.5zM160 -567q-88 0 -136.5 56
t-48.5 150q0 147 105 244t289 97q15 98 33 451l-16 -61q-86 -326 -282 -326q-80 0 -119.5 67t-39.5 214q0 129 38.5 267t111 229.5t174.5 91.5q76 0 121 -49l29 -32q8 61 41 96.5t109 35.5q101 0 101 -72q0 -348 -43 -788q-10 -95 -29 -178q33 -18 62 -40q119 -95 119 -214
q0 -52 -50 -52q-39 0 -49 50q-11 77 -110 153q-128 -390 -410 -390z" />
    <glyph glyph-name="uniE028" unicode="&#xe028;" horiz-adv-x="844" 
d="M645 -23q-76 0 -129 125.5t-53 288.5q0 75 -1 183.5t-1 220.5q0 54 -20 54q-29 0 -61 -60.5t-62.5 -151.5t-55 -188t-39 -175.5t-14.5 -109.5q0 -61 -23 -81t-57 -20q-70 0 -87 63q-42 159 -42 552q0 207 10.5 451.5t22.5 394.5q3 38 24.5 56.5t53.5 24t65 5.5
q29 0 56.5 -4t45 -19.5t17.5 -49.5q0 -37 -4 -77q-53 -496 -71 -881q45 154 92 254q100 211 228 211q154 0 154 -247q0 -129 -6 -318q-4 -121 -4 -202q0 -82 5 -156.5t5 -92.5q0 -51 -49 -51z" />
    <glyph glyph-name="uniE029" unicode="&#xe029;" horiz-adv-x="421" 
d="M211 -23q-104 0 -170 195q-44 130 -44 327q0 359 45 420q33 45 123 45q64 0 90 -18t26 -59q0 -18 -3 -40q-4 -29 -13.5 -121.5t-18 -210t-8.5 -213.5t11 -176t11 -98q0 -23 -11.5 -37t-37.5 -14zM171 1021q-25 0 -48.5 4.5t-38.5 23.5t-15 60q0 52 16.5 77.5t45 34
t62.5 8.5q25 0 48.5 -4.5t38.5 -23.5t15 -60q0 -120 -124 -120z" />
    <glyph glyph-name="uniE02A" unicode="&#xe02a;" horiz-adv-x="407" 
d="M123 1021q-25 0 -48.5 4.5t-38.5 23.5t-15 60q0 52 16.5 77.5t45 34t61.5 8.5q25 0 49 -4.5t39 -23.5t15 -60q0 -120 -124 -120zM-123 -531q99 0 121 313q-68 -17 -110 -61q-69 -71 -69 -158q0 -58 16.5 -76t41.5 -18zM-113 -655q-78 0 -126.5 56t-48.5 150
q0 147 100 244q76 74 191 91l3 153q0 307 -6 511q-4 157 -4 292q0 94 73 113q34 9 82 9q103 0 103 -79q3 -293 3 -385q0 -364 -29 -624q98 -22 169 -78q119 -95 119 -214q0 -52 -50 -52q-39 0 -49 50q-10 71 -94 141q-45 37 -109 54q-27 -159 -79 -263q-85 -169 -248 -169z
" />
    <glyph glyph-name="uniE02B" unicode="&#xe02b;" horiz-adv-x="690" 
d="M128 -23q-71 0 -87 60q-42 152 -42 519q0 194 10 422.5t23 371.5q3 36 24.5 54t53.5 23.5t65 5.5q29 0 56 -4t45 -18.5t18 -47.5q0 -36 -6 -83q-38 -297 -61 -681q134 96 238 306q16 33 53 33q26 0 49 -14.5t23 -38.5q0 -63 -110 -184q-86 -95 -147 -140q13 -62 47 -147
t74 -152q15 -25 100 -152q7 -10 7 -22q0 -41 -45 -41q-101 0 -202 145q-68 97 -99 190q-4 -101 -4 -196q-2 -209 -83 -209z" />
    <glyph glyph-name="uniE02C" unicode="&#xe02c;" horiz-adv-x="404" 
d="M195 -163q-93 0 -145.5 186t-52.5 467q0 204 20 502q11 152 20.5 305t147.5 153q29 0 56 -4t45 -20t18 -52q0 -48 -7 -101q-18 -138 -30 -277q-44 -496 -44 -816q0 -89 6 -146q10 -106 10 -130q0 -67 -44 -67z" />
    <glyph glyph-name="uniE02D" unicode="&#xe02d;" horiz-adv-x="1187" 
d="M985 -57q-97 0 -159 195q-17 56 -24 183q-4 81 -4 138q0 33 1 58q4 55 4 112l-1 46q-1 54 -19 54q-33 0 -61.5 -67t-51 -163t-37.5 -190q-7 -46 -18 -97t-33 -88t-60 -37q-91 0 -91 178l1 276q0 60 -9 104t-27 44q-36 0 -70 -74.5t-61.5 -176t-44 -194.5t-16.5 -133
q0 -64 -22.5 -84t-56.5 -20q-71 0 -88 63q-38 139 -38 486q0 195 9 288q4 38 20.5 57t44 25t60.5 6q29 0 56 -4t45 -19.5t18 -50.5q0 -37 -6 -77q-13 -91 -21 -185q110 280 254 280q54 0 84.5 -30.5t44.5 -78t17 -99.5q27 71 64 128.5t85 92.5t108 35t93.5 -33.5t47.5 -89.5
t14 -124q0 -62 -8 -248q-5 -115 -5 -203q0 -55 3 -134.5t3 -97.5q0 -51 -45 -51z" />
    <glyph glyph-name="uniE02E" unicode="&#xe02e;" horiz-adv-x="840" 
d="M634 -67q-97 0 -158 195q-26 82 -26 336q0 47 2 81q5 87 5 170q0 54 -21 54q-28 0 -60.5 -57.5t-62.5 -144.5t-54.5 -180t-39 -168.5t-14.5 -108.5q0 -63 -23 -83t-57 -20q-71 0 -88 63q-38 139 -38 486q0 195 9 288q4 38 21 57t44 25t60 6q29 0 56 -4t45 -19.5t18 -50.5
q0 -37 -6 -77q-14 -104 -23 -212q126 395 313 395q59 0 92.5 -33.5t47.5 -89.5t14 -124q0 -129 -8.5 -285.5t-8.5 -215.5q0 -55 3 -134.5t3 -97.5q0 -51 -45 -51z" />
    <glyph glyph-name="uniE02F" unicode="&#xe02f;" horiz-adv-x="727" 
d="M273 25q-81 0 -134 42q-147 115 -147 437q0 77 10.5 170t63.5 151q31 34 82 34q29 0 49 -6q52 131 168 131q204 0 204 -333q0 -144 -24 -274q42 -1 42 -39q0 -48 -63 -50q-76 -263 -251 -263zM431 403q21 114 21 233q0 100 -14 162q-21 90 -81 90q-34 0 -53 -34.5
t-26.5 -82t-7.5 -87.5q0 -100 41 -168q45 -77 120 -113zM293 138q71 0 117 170q-125 46 -189 169q-5 -69 -5 -124q0 -59 6.5 -108t23.5 -78t47 -29z" />
    <glyph glyph-name="uniE030" unicode="&#xe030;" horiz-adv-x="814" 
d="M109 -619q-71 0 -87 65q-42 164 -42 564q0 211 10.5 460t22.5 404q3 40 24.5 59t53.5 25t65 6q29 0 56 -4t45 -20t18 -52q0 -39 -7 -90q-9 -76 -17 -158q111 324 296 324q60 0 103.5 -56.5t43.5 -167.5q0 -89 -13 -188q-26 -194 -100 -340q-99 -193 -246 -193
q-53 0 -103 40q-13 10 -23 23q-20 -342 -20 -597q0 -63 -23 -83.5t-57 -20.5zM256 144q104 0 162 200q51 171 51 363q0 28 -8.5 46t-22.5 18q-47 0 -135 -264q-64 -186 -87 -354q20 -9 40 -9z" />
    <glyph glyph-name="uniE031" unicode="&#xe031;" horiz-adv-x="816" 
d="M199 212q26 0 62.5 76t72 178.5t60 190.5t27.5 120q-22 33 -58 33q-88 0 -144 -181q-51 -162 -51 -353q0 -27 8 -45.5t23 -18.5zM400 374q-106 -341 -283 -341q-66 0 -103.5 34.5t-53 88.5t-15.5 110q0 76 11 167.5t35.5 181t66 164t101.5 120t142 45.5q78 0 135 -74
q28 94 129 94q27 0 52 -4t42 -20t17 -52q0 -48 -7 -101q-16 -138 -28 -277q-41 -496 -41 -816q0 -89 6 -146q9 -106 9 -130q0 -67 -41 -67q-87 0 -136 186t-49 467q0 157 11 370z" />
    <glyph glyph-name="uniE032" unicode="&#xe032;" horiz-adv-x="688" 
d="M125 7q-71 0 -88 63q-38 139 -38 486q0 195 9 288q4 38 20.5 57t44 25t60.5 6q46 0 72.5 -17.5t26.5 -56.5q0 -37 -18 -271q113 319 275 319q54 0 81.5 -32.5t27.5 -75.5q0 -107 -62 -174q-18 -19 -38 -19q-27 0 -27 28q0 12 3 31.5t3 39.5q0 55 -41 55q-50 0 -97 -109.5
t-74.5 -211t-44 -194.5t-16.5 -133q0 -64 -22.5 -84t-56.5 -20z" />
    <glyph glyph-name="uniE033" unicode="&#xe033;" horiz-adv-x="493" 
d="M159 -102q-87 0 -132 55q-34 42 -34 97l1 17q4 51 58 51q55 0 55 -45l1 -42q5 -44 40 -44q43 0 43 70q0 102 -91 288q-28 59 -52 120q-50 121 -50 211q0 87 44 160q37 59 97 91q48 26 109 26q33 0 67 -8q50 -13 50 -43q0 -46 -70 -46h-6q-84 0 -91 -72q-1 -12 -1 -25
q0 -134 124 -393q62 -125 62 -243q0 -136 -87 -188q-64 -37 -137 -37z" />
    <glyph glyph-name="uniE034" unicode="&#xe034;" horiz-adv-x="428" 
d="M196 -103q-93 0 -146 187t-53 415q0 175 21 499q-44 2 -86 6q-20 2 -26 23.5t-6 57.5q0 17 3 32.5t20 16.5q14 0 31 -2q36 -5 73 -9q3 56 9 116q3 39 25 59q34 31 118 31q28 0 54 -4.5t42.5 -20.5t16.5 -52q0 -38 -7 -90q-4 -25 -7 -56q35 -1 114 -1q36 0 36 -39
q0 -35 -21 -44q-43 -18 -140 -24q-33 -376 -38 -535t-5 -223q0 -89 6 -146q10 -106 10 -130q0 -67 -44 -67z" />
    <glyph glyph-name="uniE035" unicode="&#xe035;" horiz-adv-x="881" 
d="M680 -60q-104 0 -169 195q-31 92 -42 175q-19 -61 -49.5 -121t-77 -100.5t-116.5 -40.5q-83 0 -126.5 38.5t-66.5 107.5t-29.5 160.5t-6.5 197.5q0 290 42 347q33 45 113 45q64 0 90.5 -18t26.5 -59q0 -18 -3 -40q-41 -263 -41 -485q0 -69 12 -103.5t48 -34.5
q61 0 125.5 268t64.5 370q0 50 20.5 76t54.5 36t75 10q64 0 90 -18t26 -59q0 -18 -14 -142q-29 -262 -29 -443q0 -64 7 -112q24 -183 24 -199q0 -51 -49 -51z" />
    <glyph glyph-name="uniE036" unicode="&#xe036;" horiz-adv-x="745" 
d="M282 7q-107 0 -178 181q-41 103 -75 283q-48 259 -48 335q0 32 14.5 56t45 35.5t66.5 11.5q37 0 66 -6t47 -27t20 -65q10 -240 24 -381t27.5 -200.5t20.5 -59.5q16 0 52 78q32 70 54 177q74 360 81 575q1 28 12.5 41.5t30 17.5t42.5 4q23 0 43 -7.5t29 -23t9 -35.5
q0 -69 -43 -280q-34 -166 -109 -373q-122 -337 -231 -337z" />
    <glyph glyph-name="uniE037" unicode="&#xe037;" horiz-adv-x="1180" 
d="M730 47q-54 0 -98 28q-85 54 -139 278q-65 -384 -224 -384q-100 0 -159.5 94.5t-85.5 276t-26 442.5q0 74 35 100.5t90 26.5q36 0 66 -6t48 -27t18 -65q0 -224 2.5 -379t14.5 -235.5t39 -80.5q45 0 80 228q27 178 30 350q1 29 5 62q13 93 129 93q36 0 65 -6
q63 -13 67 -92q15 -343 37 -452q18 -89 51 -89q45 0 74.5 124.5t35.5 183.5q21 211 21 364q0 55 -1 103q0 62 89 62q46 0 64 -25q12 -18 12 -67q0 -77 -20 -248q-11 -98 -35 -210q-36 -196 -105 -323t-180 -127z" />
    <glyph glyph-name="uniE038" unicode="&#xe038;" horiz-adv-x="607" 
d="M418 -103q-140 0 -299 322l-120 -212q-16 -27 -29.5 -34t-36.5 -7q-34 0 -34 44q0 21 171 348q-35 110 -61 235q-34 164 -34 217q0 51 27 74q31 26 125 26q36 0 65.5 -14t38.5 -82l17 -118l123 235q17 33 54 33q25 0 48.5 -14.5t23.5 -38.5q0 -12 -218 -404
q91 -373 170 -548q8 -17 8 -29q0 -33 -39 -33z" />
    <glyph glyph-name="uniE039" unicode="&#xe039;" horiz-adv-x="881" 
d="M221 -567q-78 0 -126.5 56t-48.5 150q0 147 100 244t268 97h27q11 84 23 280q-15 -36 -33 -71q-70 -141 -194 -141q-83 0 -131.5 38.5t-71.5 107.5t-29.5 140.5t-6.5 177.5q0 331 42 387q34 45 124 45q63 0 89.5 -18t26.5 -59q0 -18 -3 -40q-40 -256 -40 -485
q0 -69 16.5 -113.5t52.5 -44.5t69 63.5t58 163.5q33 136 42 284q5 105 13 148q9 52 41 86.5t108 34.5q100 0 100 -70q-10 -440 -25 -634q-17 -224 -43 -335q33 -17 62 -39q119 -95 119 -214q0 -52 -50 -52q-39 0 -49 50q-11 77 -110 153q-128 -390 -420 -390zM211 -443
q26 0 50 16q96 62 149 257l12 50q-132 0 -200.5 -71t-68.5 -158q0 -94 58 -94z" />
    <glyph glyph-name="uniE03A" unicode="&#xe03a;" horiz-adv-x="738" 
d="M155 -28q-32 0 -70.5 13.5t-66.5 38.5t-28 61q0 23 49 142.5t133 264.5t154 213q50 48 89 89q-120 11 -168.5 15t-89 8.5t-81.5 14.5q-46 11 -46 48q0 34 25 49q17 10 65 10l133 1q185 0 242 -13q31 -7 66 -29q71 -46 71 -100q0 -23 -23 -59q-20 -32 -59 -87
q-46 -64 -132 -196q-183 -280 -215 -336q119 17 186.5 28.5t108 16.5t82.5 5q58 0 58 -53q0 -22 -14.5 -36t-61.5 -26q-325 -83 -407 -83z" />
    <glyph glyph-name="uniE03B" unicode="&#xe03b;" horiz-adv-x="843" 
d="M205 252q26 0 63 70q70 133 133 341q19 64 22 120q-21 27 -53 27q-90 0 -145 -161q-50 -147 -50 -333q0 -64 30 -64zM617 7q-89 0 -155 195q-32 91 -41 235q-107 -364 -297 -364q-67 0 -104 34.5t-52.5 88.5t-15.5 110q0 76 11 163.5t35.5 171t65.5 152t101.5 110
t142.5 41.5q71 0 124 -60l4 38q12 92 79 113q31 9 72 9q63 0 89.5 -18t26.5 -59q0 -18 -3 -40q-5 -33 -16 -154t-18 -246t-7 -221q1 -85 4 -150q3 -80 3 -98q0 -51 -49 -51z" />
    <glyph glyph-name="uniE03C" unicode="&#xe03c;" horiz-adv-x="806" 
d="M264 271q62 0 106.5 62t67.5 161t23 213q0 28 -8 46t-23 18q-47 0 -135 -264q-35 -104 -66 -218q10 -18 35 -18zM128 7q-71 0 -88 65q-36 141 -38.5 292.5t-2.5 211.5q0 344 33 765q5 71 78 84q32 5 65 5q29 0 56.5 -4t45 -20t17.5 -52q0 -38 -6 -90q-44 -377 -64 -685
q40 130 90 219q92 166 225 166q61 0 104 -56.5t43 -167.5q0 -235 -81 -400q-99 -201 -278 -201q-66 0 -118 56q-1 -7 -1 -83q0 -63 -23 -84t-57 -21z" />
    <glyph glyph-name="uniE03D" unicode="&#xe03d;" horiz-adv-x="669" 
d="M478 272q49 55 79 55q12 0 22 -11t10 -27q0 -38 -58 -101q-107 -121 -260 -121q-156 0 -229 99.5t-73 274.5q0 194 99 333q108 150 287 150q88 0 134 -50.5t46 -124.5q0 -78 -35 -133q-22 -34 -60 -34q-47 0 -47 22q0 7 9 20q38 57 38 110q0 31 -15.5 50t-38.5 19
q-86 0 -132 -146q-38 -119 -38 -231q0 -50 9.5 -104.5t34 -92.5t70.5 -38q75 0 148 81z" />
    <glyph glyph-name="uniE03E" unicode="&#xe03e;" horiz-adv-x="861" 
d="M210 292q26 0 63 58q75 117 132 286q24 70 26 103q-7 11 -22.5 21t-33.5 10q-63 0 -106.5 -55.5t-66 -149.5t-22.5 -209q0 -64 30 -64zM613 27q-89 0 -155 195q-27 80 -38 185q-34 -94 -77 -161q-87 -133 -215 -133q-66 0 -103.5 34.5t-52.5 88.5t-15 110q0 222 75 374
q91 184 281 184q72 0 125 -62q15 215 42 539q6 71 78 84q31 5 64 5q29 0 56.5 -4t45 -20t17.5 -52q0 -35 -8 -107q-78 -670 -78 -935q0 -96 3.5 -176t3.5 -98q0 -51 -49 -51z" />
    <glyph glyph-name="uniE03F" unicode="&#xe03f;" horiz-adv-x="650" 
d="M200 486q103 8 162 74q56 63 56 154q0 89 -51 89q-77 0 -124 -125q-37 -97 -43 -192zM252 47q-147 0 -224.5 79.5t-77.5 254.5q0 91 25 186.5t74 176t121 130.5t166 50q172 0 172 -193q0 -140 -83 -230.5t-229 -94.5q0 -50 9.5 -104.5t34.5 -92.5t70 -38q76 0 149 81
q49 55 79 55q12 0 22 -11t10 -27q0 -38 -58 -101q-107 -121 -260 -121z" />
    <glyph glyph-name="uniE040" unicode="&#xe040;" horiz-adv-x="413" 
d="M178 -402q-182 0 -182 579q0 393 22 641q-34 0 -83 5q-20 2 -26 23.5t-6 57.5q0 17 3 32.5t20 16.5q14 0 31 -2q48 -7 76 -9q76 496 366 496q88 0 134 -50.5t46 -124.5q0 -78 -35 -133q-22 -34 -60 -34q-47 0 -47 22q0 8 8 20q39 57 39 110q0 31 -15.5 50t-38.5 19
q-108 0 -147 -392q26 -1 112 -1q36 0 36 -39q0 -35 -21 -44q-43 -18 -91 -21l-46 -2q-17 -193 -24.5 -328.5t-14.5 -237.5q-12 -192 -12 -376q0 -83 2 -129q3 -80 3 -98q0 -51 -49 -51z" />
    <glyph glyph-name="uniE041" unicode="&#xe041;" horiz-adv-x="838" 
d="M208 324q38 0 75 55.5t67 132t49 146.5t22 103q-8 12 -24 22t-34 10q-88 0 -139 -121q-46 -108 -46 -247q0 -101 30 -101zM216 -557q-47 0 -87 21t-64 60t-24 95q0 109 53 188q35 52 66 52q12 0 24 -8q20 -14 20 -37t-21 -55q-35 -51 -35 -128q0 -31 18.5 -47.5
t39.5 -16.5q94 0 145 135q38 100 52 245q10 123 24 516q-94 -301 -294 -301q-80 0 -120 68t-40 215q0 129 38.5 237t111.5 171t175 63q72 0 121 -51l18 -20q1 60 9 114.5t40.5 89.5t108.5 35q103 0 103 -80q0 -21 -2 -81q-14 -474 -31 -687q-18 -238 -51 -389
q-88 -404 -398 -404z" />
    <glyph glyph-name="uniE042" unicode="&#xe042;" horiz-adv-x="844" 
d="M645 -13q-89 0 -135.5 150.5t-47.5 348t-1 309.5q0 54 -20 54q-29 0 -61 -60.5t-62.5 -151.5t-55 -188t-39 -175.5t-14.5 -109.5q0 -61 -23 -81t-57 -20q-70 0 -87 63q-42 159 -42 552q0 207 10.5 451.5t22.5 394.5q3 38 24.5 56.5t53.5 24t65 5.5q29 0 56.5 -4t45 -19.5
t17.5 -49.5q0 -37 -4 -77q-53 -496 -71 -881q45 154 92 254q100 211 228 211q154 0 154 -247q0 -129 -6 -318q-1 -45 -1 -103v-94.5t3.5 -145.5t3.5 -98q0 -51 -49 -51z" />
    <glyph glyph-name="uniE043" unicode="&#xe043;" horiz-adv-x="407" 
d="M140 930q-25 0 -48.5 5t-39 23.5t-15.5 60.5q0 51 17 77t45 34.5t62 8.5q25 0 48.5 -5t39 -23.5t15.5 -60.5q0 -120 -124 -120zM194 47q-86 0 -140 145.5t-55 323.5l-1 161q0 81 30 122q33 45 123 45q64 0 90 -18t26 -59q0 -18 -3 -40q-21 -147 -21 -629q0 -51 -49 -51z
" />
    <glyph glyph-name="uniE044" unicode="&#xe044;" horiz-adv-x="402" 
d="M138 951q-25 0 -48.5 4.5t-39 23.5t-15.5 60q0 52 17 77.5t45 34t62 8.5q25 0 48.5 -4.5t39 -23.5t15.5 -60q0 -120 -124 -120zM-207 -602q-47 0 -87 21t-64 60t-24 95q0 109 53 188q35 52 66 52q12 0 24 -8q20 -14 20 -37t-21 -55q-35 -51 -35 -128q0 -31 18.5 -47.5
t39.5 -16.5q94 0 145 135q38 100 52 245q8 103 14 294q4 158 4 208l-1 101q0 162 10 233q8 56 40.5 91t108.5 35q61 0 86 -26q15 -15 15 -52q-3 -232 -3 -292q0 -97 -5 -196q-15 -299 -58 -496q-88 -404 -398 -404z" />
    <glyph glyph-name="uniE045" unicode="&#xe045;" horiz-adv-x="701" 
d="M107 -42q-51 0 -68 65q-36 140 -38.5 312t-2.5 241q0 207 9 416q11 279 24 431q3 39 24.5 58t53.5 24.5t65 5.5q29 0 56 -4t45 -19.5t18 -50.5q0 -38 -6 -89q-39 -325 -61 -719q135 96 238 306q16 33 53 33q26 0 49 -14.5t23 -38.5q0 -63 -110 -184q-86 -95 -147 -140
q13 -60 47 -126t73 -113q30 -36 133 -151q16 -18 16 -42q0 -4 -9 -20.5t-46 -16.5q-23 0 -54 13q-100 43 -178 126q-86 90 -97 159q-5 -123 -17 -292.5t-93 -169.5z" />
    <glyph glyph-name="uniE046" unicode="&#xe046;" horiz-adv-x="402" 
d="M181 47q-182 0 -182 579q0 193 16 446l26 369q6 71 77 84q32 5 65 5q29 0 56 -4t45 -20t18 -52q0 -48 -6 -101q-36 -298 -59 -652q-12 -192 -12 -376q0 -83 2 -129q3 -80 3 -98q0 -51 -49 -51z" />
    <glyph glyph-name="uniE047" unicode="&#xe047;" horiz-adv-x="1187" 
d="M125 7q-71 0 -88 63q-38 139 -38 486q0 195 9 288q4 38 20.5 57t44 25t60.5 6q29 0 56 -4t45 -19.5t18 -50.5q0 -37 -5 -77q-12 -89 -21 -181q18 44 39 86q93 190 214 190q134 0 146 -208q27 71 64 128.5t85 92.5t108 35q155 0 155 -201q0 -63 -6 -125q-16 -181 -16 -317
v-183q0 -51 -49 -51q-89 0 -130 201q-34 166 -34 358l-1 69q0 54 -18 54q-33 0 -61.5 -67t-51 -163t-37.5 -190q-7 -46 -18 -97t-33 -88t-60 -37q-90 0 -90 270v184q0 60 -9 104t-27 44q-36 0 -70 -74.5t-61.5 -176t-44 -194.5t-16.5 -133q0 -64 -22.5 -84t-56.5 -20z" />
    <glyph glyph-name="uniE048" unicode="&#xe048;" horiz-adv-x="840" 
d="M641 -93q-89 0 -152 196q-31 95 -31.5 235.5t-0.5 216.5q0 54 -21 54q-36 0 -76 -62t-75.5 -148.5t-57.5 -167t-22 -121.5q0 -63 -23 -83t-57 -20q-71 0 -88 63q-38 139 -38 486q0 195 9 288q4 38 21 57t44 25t60 6q29 0 56 -4t45 -19.5t18 -50.5q0 -37 -5 -77
q-20 -149 -30 -304q128 327 319 327q154 0 154 -247q0 -58 -3.5 -163t-3.5 -162q0 -96 3.5 -176t3.5 -98q0 -51 -49 -51z" />
    <glyph glyph-name="uniE049" unicode="&#xe049;" horiz-adv-x="708" 
d="M270 81q-81 0 -134 36q-147 100 -147 379q0 66 10.5 147t63.5 130q31 30 82 30q23 0 40 -3q50 156 177 156q204 0 204 -333q0 -138 -25 -246q37 0 37 -35q0 -51 -64 -54q-79 -207 -244 -207zM426 399q23 102 23 210q0 100 -14 161q-21 90 -81 90q-34 0 -53 -34.5
t-26.5 -82t-7.5 -87.5q0 -196 159 -257zM290 178q66 0 111 129q-22 7 -44 17q-88 39 -140 134q-4 -51 -4 -93q0 -51 6.5 -93.5t23.5 -68t47 -25.5z" />
    <glyph glyph-name="uniE04A" unicode="&#xe04a;" horiz-adv-x="820" 
d="M284 273q26 0 56 19q77 48 112 202q22 99 22 213q0 28 -8 46t-23 18q-46 0 -144 -264q-34 -92 -65 -215q23 -19 50 -19zM115 -579q-71 0 -87 65q-37 145 -39.5 332t-2.5 262q0 226 9 454q12 304 24 460q3 40 24.5 59t53.5 25t65 6q29 0 56 -4t45 -20t18 -52q0 -39 -6 -90
q-16 -128 -28 -275q123 321 306 321q60 0 103.5 -56.5t43.5 -167.5q0 -235 -79 -402q-93 -199 -280 -199q-71 0 -123 61q-23 -405 -23 -675q0 -63 -23 -83.5t-57 -20.5z" />
    <glyph glyph-name="uniE04B" unicode="&#xe04b;" horiz-adv-x="948" 
d="M204 251q26 0 63 72q69 138 132 350q17 60 21 120q-23 24 -52 24q-88 0 -144 -171q-51 -154 -51 -334q0 -26 8 -43.5t23 -17.5zM665 -518q29 0 47 44.5t26.5 104t8.5 104.5q0 128 -22 229q-18 81 -65 169l-26 -8q-14 -205 -14 -355t13 -219t32 -69zM641 -655
q-143 0 -197 218q-41 166 -41 484q0 199 3 358q-107 -324 -284 -324q-66 0 -103.5 33t-53 84t-15.5 104q0 72 11 158.5t35.5 171.5t66 155.5t101.5 113.5t142 43q50 0 85 -24q20 -14 38 -32q13 124 33 151q33 45 123 45q64 0 90 -18t26 -59q0 -18 -3 -40q-26 -204 -39 -469
q-6 -108 -12 -190l29 -44q106 36 171 136q58 89 101 241q8 28 43 28q21 0 31.5 -12.5t10.5 -30.5q0 -12 -14 -58q-40 -134 -120 -246q-74 -102 -168 -156q98 -197 98 -425q0 -396 -188 -396z" />
    <glyph glyph-name="uniE04C" unicode="&#xe04c;" horiz-adv-x="597" 
d="M389 -200q-104 0 -170 195q-44 130 -44 327q0 188 45 427q-50 14 -93 36q-42 -185 -61 -197q-11 -7 -23 -7q-25 0 -35.5 14.5t-10.5 27.5q0 9 3 18q27 79 45 201q-69 63 -69 153v40q0 54 26 70.5t75 16.5q20 0 41 -3.5t34.5 -15.5t13.5 -37q0 -83 -18 -172
q55 -63 180 -91q129 -29 129 -108q0 -33 -9 -106q-32 -262 -32 -464q0 -96 11 -176t11 -98q0 -51 -49 -51z" />
    <glyph glyph-name="uniE04D" unicode="&#xe04d;" horiz-adv-x="541" 
d="M212 -225q-43 0 -82 20t-64 63.5t-25 111.5q0 62 30 111q37 62 135 144l-54 93q-41 66 -78.5 136t-62.5 146t-25 163q0 111 87.5 192.5t204.5 81.5q18 0 40 -3.5t38 -13t16 -28.5q0 -43 -69 -47q-43 -3 -73 -30t-30 -75q0 -81 32.5 -169.5t75.5 -182.5q29 -64 56 -131
q29 29 51 29q16 0 29 -15q9 -10 9 -23q0 -33 -54 -89q33 -107 33 -195q0 -74 -18 -140.5t-71.5 -107.5t-130.5 -41zM220 -137q22 0 40.5 16t25 39.5t6.5 45.5q0 78 -38 168q-58 -53 -78.5 -85t-20.5 -85q0 -99 65 -99z" />
    <glyph glyph-name="uniE04E" unicode="&#xe04e;" horiz-adv-x="412" 
d="M201 -212q-89 0 -143 198q-61 225 -61 517q0 280 36 662q-100 -1 -213 -1q-77 0 -132 2q-41 1 -53.5 22.5t-12.5 54.5q0 17 7 32q9 21 63 21q27 0 53 -1q147 -7 299 -9l7 73q6 71 78 84q32 6 65 6q28 0 54 -4.5t42.5 -20.5t16.5 -52q0 -37 -7 -88l375 3q59 0 59 -38
q0 -31 -42 -40q-120 -27 -404 -38q-59 -721 -59 -971q0 -180 10.5 -261.5t10.5 -99.5q0 -51 -49 -51z" />
    <glyph glyph-name="uniE04F" unicode="&#xe04f;" horiz-adv-x="892" 
d="M651 7q-96 0 -144 161q-23 77 -27 178q-18 -60 -51.5 -114t-81.5 -89t-110 -35q-89 0 -141.5 52t-75 151.5t-22.5 240.5q0 145 16 270q12 93 77 113q31 9 72 9q64 0 90.5 -18t26.5 -59q0 -24 -8 -67q-36 -191 -36 -378q0 -69 17 -113.5t53 -44.5t68.5 57t57.5 149
t39.5 201t14.5 211q0 50 20.5 76t54.5 36t75 10q64 0 90 -18t26 -59q0 -18 -4.5 -45t-16.5 -138q-37 -325 -37 -479q0 -21 3 -105t3 -102q0 -51 -49 -51z" />
    <glyph glyph-name="uniE050" unicode="&#xe050;" horiz-adv-x="740" 
d="M318 -73q-107 0 -196 228q-51 129 -90 320q-55 268 -55 351q0 32 14.5 56t45 35.5t66.5 11.5q37 0 66 -6t47 -27t20 -65q11 -242 34.5 -407t47 -249.5t30.5 -84.5q31 0 101 327q-21 32 -39 76q-59 146 -59 315q0 86 20 162.5t59.5 124.5t96.5 48q54 0 83.5 -39.5
t29.5 -105.5q0 -75 -17 -206q-25 -181 -68 -364q43 -55 43 -89q0 -12 -6.5 -20.5t-17.5 -8.5q-17 0 -42 28q-109 -411 -214 -411zM479 573q50 273 50 424q0 9 -2 20.5t-6 20t-10 8.5q-19 0 -37 -80t-18 -180q0 -116 23 -213z" />
    <glyph glyph-name="uniE051" unicode="&#xe051;" horiz-adv-x="1171" 
d="M729 -33q-72 0 -126 73q-68 91 -118 326q-63 -277 -217 -277q-271 0 -271 673q0 74 35 100.5t90 26.5q36 0 66 -6t48 -27t18 -65q0 -224 2.5 -344t14.5 -165.5t39 -45.5q32 0 58 79q33 105 47 279q6 78 21.5 166.5t117.5 88.5q36 0 65 -6t47 -27.5t20 -64.5
q10 -239 23 -375.5t29.5 -191t35.5 -54.5q16 0 46 58q40 77 74 207q-27 32 -49 78q-64 132 -64 295q0 86 20 157.5t59.5 114.5t97.5 43q44 0 68.5 -23t34.5 -60.5t10 -81.5q0 -239 -61 -495q38 -57 38 -84q0 -9 -4 -15q-8 -11 -21 -11q-15 0 -38 15q-107 -361 -256 -361z
M925 530q35 187 35 387q0 9 -2 25.5t-6 30t-10 13.5q-20 0 -38 -70t-18 -170q0 -117 39 -216z" />
    <glyph glyph-name="uniE052" unicode="&#xe052;" horiz-adv-x="640" 
d="M-14 -154q-34 0 -34 44q0 22 192 389q-62 98 -104 216q-37 104 -49 199q-3 20 -3 36q0 51 27 74q31 26 125 26q36 0 65.5 -14t38 -81t43.5 -186l137 262q17 33 54 33q25 0 48.5 -14.5t23.5 -38.5q0 -12 -214 -396q34 -96 116 -216q19 -27 19 -48q0 -44 -70 -44
q-92 0 -182 96q-127 -229 -167 -296q-16 -27 -29.5 -34t-36.5 -7z" />
    <glyph glyph-name="uniE053" unicode="&#xe053;" horiz-adv-x="879" 
d="M260 -557q-47 0 -87 21t-64 60t-24 95q0 109 53 188q35 52 66 52q12 0 24 -8q20 -14 20 -37t-21 -55q-35 -51 -35 -128q0 -31 18.5 -47.5t39.5 -16.5q94 0 145 135q38 100 52 245q8 96 18 356q-83 -175 -228 -175q-107 0 -173 106t-66 318q0 192 16 320q11 92 78 113
q31 9 72 9q63 0 89.5 -18t26.5 -59q0 -18 -7 -65q-38 -239 -38 -377q0 -211 71 -211q44 0 82 73q70 135 85 361q5 76 14 140q8 56 40.5 91t109.5 35q102 0 102 -73q0 -84 -4 -180q-11 -261 -21 -408q-23 -303 -56 -456q-88 -404 -398 -404z" />
    <glyph glyph-name="uniE054" unicode="&#xe054;" horiz-adv-x="618" 
d="M141 -460q-47 0 -87 21t-64 60t-24 95q0 109 53 188q35 52 66 52q12 0 24 -8q20 -14 20 -37t-21 -55q-35 -51 -35 -128q0 -31 18.5 -47.5t39.5 -16.5q72 0 123.5 86t51.5 219q0 183 -46 251q-28 40 -85 40q-8 0 -32 -3t-34 -3q-23 0 -23 55q0 41 31 112t68 145
q72 142 72 175q-64 10 -131 44q-40 -184 -61 -197q-11 -7 -23 -7q-25 0 -35 14.5t-10 28.5q0 8 3 17q26 79 45 201q-33 32 -56 90.5t-23 116.5q0 118 106 118q49 0 70.5 -18.5t21.5 -70.5q0 -30 -6 -103q-4 -47 -10 -81q32 -32 78.5 -43t95.5 -15q40 -3 73.5 -10t54 -24.5
t20.5 -53.5q0 -39 -45.5 -118t-96.5 -152.5t-75 -103.5q129 0 209 -103q76 -97 76 -249q0 -212 -100 -347t-297 -135z" />
    <glyph glyph-name="uniE055" unicode="&#xe055;" horiz-adv-x="926" 
d="M198 212q26 0 63 76t72.5 178.5t60 190.5t26.5 120q-7 12 -23 22.5t-34 10.5q-89 0 -145 -181q-50 -162 -50 -353q0 -64 30 -64zM658 7q-220 0 -245 409q-41 -139 -90 -229q-85 -154 -206 -154q-67 0 -104 34.5t-52.5 88.5t-15.5 110q0 76 11 167.5t35.5 181t65.5 164
t101.5 120t142.5 45.5q78 0 134 -73q7 29 21 48q34 45 124 45q63 0 89.5 -18t26.5 -59q0 -18 -3 -40q-5 -33 -16 -141q-25 -245 -25 -410q0 -57 12 -104.5t38 -47.5q70 0 155 222.5t85 466.5q0 302 -144 437t-385 135q-248 0 -638 -152.5t-652 -152.5q-185 0 -266 88
t-81 211q0 110 60.5 178t168.5 68q145 0 197 -155q13 -39 14 -70q0 -17 -11 -27.5t-29 -10.5q-23 0 -38 38q-16 43 -35 80q-32 65 -98 65q-62 0 -94 -41.5t-32 -115.5q0 -162 244 -162q250 0 628.5 130.5t659.5 130.5q318 0 473 -175.5t155 -488.5q0 -299 -109.5 -567.5
t-271.5 -268.5z" />
    <glyph glyph-name="uniE056" unicode="&#xe056;" horiz-adv-x="857" 
d="M127 7q-71 0 -87 65q-42 165 -42 565q0 264 17 584q-101 19 -287 88q-85 32 -161 55.5t-138 23.5q-106 0 -156 -33.5t-50 -88.5q0 -35 18.5 -61t53.5 -26t60 17t25 56q0 16 11.5 25.5t28.5 9.5q16 0 28 -9.5t12 -25.5q0 -73 -48.5 -113t-116.5 -40q-59 0 -97.5 25t-58 65
t-19.5 86q0 70 31.5 129t94 94.5t153.5 35.5q76 0 145 -19q101 -28 255 -109q135 -72 221 -98q18 268 88 377q95 147 276 147q99 0 154.5 -61.5t55.5 -163.5q0 -126 -85 -238q-54 -71 -142 -116q-47 -24 -102 -36q-27 -265 -46 -651l23 68q29 89 70.5 163.5t97 120.5
t128.5 46q61 0 104 -56.5t43 -167.5q0 -89 -13 -188q-27 -198 -100 -340q144 75 227 265q33 78 58 164q8 28 38 28q25 0 38 -17q8 -11 8 -25q0 -10 -34 -114q-117 -373 -441 -441q-62 -53 -140 -53q-53 0 -83 34.5t-30 80.5q0 54 47 54q22 0 60 -14q52 43 89 170
q51 171 51 363q0 28 -8 46t-23 18q-26 0 -63 -79q-72 -153 -132 -382q-20 -80 -25 -134q-3 -40 -12.5 -104.5t-69.5 -64.5zM274 1302q95 26 156 99q80 95 80 207q0 51 -21 88q-19 32 -53 32q-71 0 -110 -131q-30 -101 -52 -295z" />
    <glyph glyph-name="uniE057" unicode="&#xe057;" horiz-adv-x="680" 
d="M256 7q-156 0 -229 99.5t-73 274.5q0 91 25 192.5t74 190t121 144.5t166 56q88 0 134 -50.5t46 -124.5q0 -78 -35 -133q-22 -34 -60 -34q-47 0 -47 22q0 8 8 20q39 57 39 110q0 31 -15.5 50t-38.5 19q-74 0 -125 -169q-45 -148 -45 -308q0 -50 9.5 -104.5t34 -92.5
t70.5 -38q52 0 103 42q83 69 151 193q105 194 105 467q0 302 -144 437t-385 135q-248 0 -638 -152.5t-652 -152.5q-185 0 -266 88t-81 211q0 110 60.5 178t168.5 68q145 0 197 -155q13 -39 14 -70q0 -17 -11 -27.5t-29 -10.5q-23 0 -38 38q-16 43 -35 80q-32 65 -98 65
q-62 0 -94 -41.5t-32 -115.5q0 -162 244 -162q250 0 628.5 130.5t659.5 130.5q318 0 473 -175.5t155 -488.5q0 -292 -126 -525q-167 -311 -389 -311z" />
    <glyph glyph-name="uniE058" unicode="&#xe058;" horiz-adv-x="913" 
d="M198 212q26 0 63 76t72.5 178.5t59.5 190.5t27 120q-7 12 -23 22.5t-34 10.5q-89 0 -145 -181q-50 -162 -50 -353q0 -64 30 -64zM625 7q-199 0 -211 412q-41 -141 -91 -232q-85 -154 -207 -154q-66 0 -103.5 34.5t-52.5 88.5t-15 110q0 76 11 167.5t35.5 181t65.5 164
t101.5 120t142.5 45.5q72 0 125 -62q11 186 22 339q-99 20 -283 88q-85 32 -161 55.5t-138 23.5q-106 0 -156 -33.5t-50 -88.5q0 -35 18.5 -61t53.5 -26t60 17t25 56q0 16 11.5 25.5t28.5 9.5q16 0 28 -9.5t12 -25.5q0 -73 -48.5 -113t-116.5 -40q-59 0 -97.5 25t-58 65
t-19.5 86q0 70 31.5 129t94 94.5t153.5 35.5q76 0 145 -19q101 -28 255 -109q134 -72 220 -98q8 66 20 152q19 131 74 222q90 150 271 150q99 0 154.5 -61.5t55.5 -163.5q0 -126 -85 -238q-54 -71 -142 -116q-46 -24 -101 -35q-61 -645 -61 -906q0 -29 2 -98.5t25 -69.5
q46 0 132 195q63 144 112 302q9 28 39 28q25 0 38 -17q8 -11 8 -25q0 -16 -60 -188q-151 -432 -313 -432zM712 1302q94 27 155 99q80 95 80 207q0 51 -21 88q-19 32 -53 32q-71 0 -110 -131q-28 -93 -51 -295z" />
    <glyph glyph-name="uniE059" unicode="&#xe059;" horiz-adv-x="680" 
d="M205 446q68 6 117.5 57t76.5 123q25 67 25 128q0 89 -52 89q-73 0 -124 -163q-35 -114 -43 -234zM257 7q-156 0 -229 99.5t-73 274.5q0 91 25 192.5t74 190t121 144.5t166 56q172 0 172 -193q0 -93 -37.5 -186t-107.5 -154.5t-167 -64.5q0 -50 9.5 -104.5t34.5 -92.5
t70 -38q53 0 104 42q83 69 151 193q105 194 105 467q0 302 -144 437t-385 135q-248 0 -638 -152.5t-652 -152.5q-185 0 -266 88t-81 211q0 110 60.5 178t168.5 68q145 0 197 -155q13 -39 14 -70q0 -17 -11 -27.5t-29 -10.5q-23 0 -38 38q-16 43 -35 80q-32 65 -98 65
q-62 0 -94 -41.5t-32 -115.5q0 -162 244 -162q250 0 628.5 130.5t659.5 130.5q318 0 473 -175.5t155 -488.5q0 -292 -126 -525q-167 -311 -389 -311z" />
    <glyph glyph-name="uniE05A" unicode="&#xe05a;" horiz-adv-x="521" 
d="M236 -518q30 0 48 44.5t26.5 104t8.5 104.5q0 128 -22 229q-19 81 -65 169l-26 -8q-14 -205 -14 -355t13 -219t31 -69zM213 -655q-143 0 -197 218q-42 170 -42 484q0 333 53 938q12 132 25 238q-99 20 -278 86q-85 32 -161 55.5t-138 23.5q-106 0 -156 -33.5t-50 -88.5
q0 -35 18.5 -61t53.5 -26t60 17t25 56q0 16 11.5 25.5t28.5 9.5q16 0 28 -9.5t12 -25.5q0 -73 -48.5 -113t-116.5 -40q-59 0 -97.5 25t-58 65t-19.5 86q0 70 31.5 129t94 94.5t153.5 35.5q76 0 145 -19q101 -28 255 -109q133 -71 218 -97q37 267 93 366q89 157 274 157
q99 0 154.5 -61.5t55.5 -163.5q0 -126 -85 -238q-54 -71 -142 -116q-47 -25 -104 -36q-55 -458 -91 -909l29 -44q106 36 171 136q60 92 103 241q8 28 38 28q25 0 38 -17q8 -11 8 -25q0 -9 -28 -95q-38 -114 -107 -210q-73 -103 -167 -156q97 -195 97 -425q0 -396 -187 -396z
M319 1302q96 26 157 99q80 95 80 207q0 51 -21 88q-19 32 -53 32q-71 0 -110 -131q-28 -92 -53 -295z" />
    <glyph glyph-name="uniE05B" unicode="&#xe05b;" horiz-adv-x="810" 
d="M180 204q31 0 61 49t56.5 123t47 153.5t33.5 142.5t15 89q-8 12 -24 22t-34 10q-86 0 -140 -181q-45 -154 -45 -307q0 -101 30 -101zM190 -647q-121 0 -198 75t-77 191q0 146 104.5 232.5t249.5 86.5q53 0 115 -11q19 216 19 403q0 52 -1 101l-16 -61q-86 -326 -282 -326
q-80 0 -119.5 67t-39.5 214q0 129 38.5 267t111 229.5t174.5 91.5q76 0 121 -49l29 -32q8 61 41 96.5t109 35.5q101 0 101 -72q0 -353 -12 -602q-10 -243 -45 -428q63 -24 133 -54q295 -131 500 -131q133 0 133 110q0 78 -75 78q-65 0 -77 -54q-6 -26 -35 -26q-24 0 -38 18
q-5 7 -5 15q0 10 4 22q33 105 145 105q23 0 48 -6q57 -14 89 -48q44 -48 44 -117q0 -104 -66.5 -174t-183.5 -70q-195 0 -496 164q-75 41 -141 71q-11 -43 -23 -83q-101 -329 -379 -329zM180 -523q158 0 194 341l3 26q-61 14 -110 14q-102 0 -173.5 -64.5t-71.5 -162.5
q0 -76 41 -115t117 -39z" />
    <glyph glyph-name="uniE05C" unicode="&#xe05c;" horiz-adv-x="969" 
d="M661 -13q-110 0 -164 126q-46 109 -46 278q0 77 4 135.5t4 122.5q0 80 -20 80q-36 0 -76.5 -80.5t-75.5 -190t-57.5 -209t-22.5 -137.5q0 -63 -23 -84t-57 -21q-71 0 -88 65q-36 141 -38.5 295.5t-2.5 216.5q0 327 23 638q-99 21 -278 87q-85 32 -161 55.5t-138 23.5
q-106 0 -156 -33.5t-50 -88.5q0 -35 18.5 -61t53.5 -26t60 17t25 56q0 16 11.5 25.5t28.5 9.5q16 0 28 -9.5t12 -25.5q0 -73 -48.5 -113t-116.5 -40q-59 0 -97.5 25t-58 65t-19.5 86q0 70 31.5 129t94 94.5t153.5 35.5q76 0 145 -19q101 -28 255 -109q132 -71 215 -97
q9 77 21 151q60 372 349 372q99 0 154.5 -61.5t55.5 -163.5q0 -126 -85 -238q-54 -71 -142 -116q-47 -24 -103 -36q-42 -382 -59 -684q132 391 318 391q154 0 154 -247q0 -129 -6 -253q-5 -108 -5 -195q0 -105 23 -105q46 0 124 156q33 67 61 137q53 135 80 224q8 28 38 28
q19 0 32.5 -12t13.5 -30q0 -8 -16 -58q-55 -173 -119 -320q-115 -262 -257 -262zM289 1302q95 26 156 99q80 95 80 207q0 51 -21 88q-19 32 -53 32q-71 0 -110 -131q-29 -94 -52 -295z" />
    <glyph glyph-name="uniE05D" unicode="&#xe05d;" 
d="M171 1021q-25 0 -48.5 4.5t-38.5 23.5t-15 60q0 52 16.5 77.5t45 34t62.5 8.5q25 0 48.5 -4.5t38.5 -23.5t15 -60q0 -120 -124 -120zM32 200q-35 123 -35 299q0 359 45 420q33 45 123 45q64 0 90 -18t26 -59q0 -18 -3 -40q-4 -29 -13.5 -121.5t-18 -210t-8.5 -213.5
q0 -64 11 -111t37 -47q70 0 155 222.5t85 466.5q0 302 -144 437t-385 135q-248 0 -638 -152.5t-652 -152.5q-185 0 -266 88t-81 211q0 110 60.5 178t168.5 68q145 0 197 -155q13 -39 14 -70q0 -17 -11 -27.5t-29 -10.5q-23 0 -38 38q-16 43 -35 80q-32 65 -98 65
q-62 0 -94 -41.5t-32 -115.5q0 -162 244 -162q250 0 628.5 130.5t659.5 130.5q318 0 473 -175.5t155 -488.5q0 -299 -109.5 -567.5t-271.5 -268.5q-151 0 -210 193z" />
    <glyph glyph-name="uniE05E" unicode="&#xe05e;" horiz-adv-x="402" 
d="M138 951q-25 0 -48.5 4.5t-39 23.5t-15.5 60q0 52 17 77.5t45 34t62 8.5q25 0 48.5 -4.5t39 -23.5t15.5 -60q0 -120 -124 -120zM-214 -647q-121 0 -198 75t-77 191q0 146 104.5 232.5t249.5 86.5q53 0 115 -11q19 216 19 403l-2 175q0 162 10 233q8 56 40.5 91t108.5 35
q61 0 86 -26q15 -15 15 -52q-2 -139 -2 -231l1 -149q0 -294 -47 -544q63 -24 133 -54q295 -131 500 -131q133 0 133 110q0 78 -75 78q-65 0 -77 -54q-6 -26 -35 -26q-24 0 -38 18q-5 7 -5 15q0 10 4 22q33 105 145 105q23 0 48 -6q57 -14 89 -48q44 -48 44 -117
q0 -104 -66.5 -174t-183.5 -70q-195 0 -496 164q-75 41 -141 71q-11 -43 -23 -83q-101 -329 -379 -329zM-224 -523q158 0 194 341l3 26q-61 14 -110 14q-102 0 -173.5 -64.5t-71.5 -162.5q0 -76 41 -115t117 -39z" />
    <glyph glyph-name="uniE05F" unicode="&#xe05f;" horiz-adv-x="739" 
d="M128 7q-71 0 -87 60q-42 152 -42 519q0 364 22 636q-99 20 -280 87q-85 32 -161 55.5t-138 23.5q-106 0 -156 -33.5t-50 -88.5q0 -35 18.5 -61t53.5 -26t60 17t25 56q0 16 11.5 25.5t28.5 9.5q16 0 28 -9.5t12 -25.5q0 -73 -48.5 -113t-116.5 -40q-59 0 -97.5 25t-58 65
t-19.5 86q0 70 31.5 129t94 94.5t153.5 35.5q76 0 145 -19q101 -28 255 -109q133 -71 217 -97q7 66 15 127q54 396 353 396q99 0 154.5 -61.5t55.5 -163.5q0 -126 -85 -238q-54 -71 -142 -116q-47 -24 -103 -36q-31 -281 -50 -588q134 96 238 306q16 33 53 33q26 0 49 -14.5
t23 -38.5q0 -63 -110 -184q-86 -95 -147 -140q13 -62 47 -147t73.5 -152t67.5 -67q25 0 50 31q83 103 168 385q9 28 39 28q25 0 38 -17q8 -11 8 -25q0 -13 -52 -167q-129 -383 -256 -383q-101 0 -202 145q-68 97 -99 190q-4 -101 -5 -196q-1 -209 -82 -209zM287 1302
q95 26 156 99q80 95 80 207q0 51 -21 88q-19 32 -53 32q-71 0 -110 -131q-28 -92 -52 -295z" />
    <glyph glyph-name="uniE060" unicode="&#xe060;" horiz-adv-x="498" 
d="M210 7q-162 0 -200 263q-13 92 -13 220q0 236 36 732q-99 20 -279 87q-85 32 -161 55.5t-138 23.5q-106 0 -156 -33.5t-50 -88.5q0 -35 18.5 -61t53.5 -26t60 17t25 56q0 16 11.5 25.5t28.5 9.5q16 0 28 -9.5t12 -25.5q0 -73 -48.5 -113t-116.5 -40q-59 0 -97.5 25
t-58 65t-19.5 86q0 70 31.5 129t94 94.5t153.5 35.5q76 0 145 -19q101 -28 255 -109q131 -70 215 -96l4 52q15 206 90 323q95 147 276 147q99 0 154.5 -61.5t55.5 -163.5q0 -126 -85 -238q-54 -71 -142 -116q-47 -25 -104 -36q-13 -122 -22 -221q-40 -452 -40 -694
q0 -10 0.5 -84t25.5 -74q47 0 132 195q72 163 113 302q9 28 38 28q25 0 38 -17q8 -11 8 -25q0 -19 -60 -188q-154 -432 -312 -432zM299 1302q96 26 157 99q80 95 80 207q0 51 -21 88q-19 32 -53 32q-71 0 -110 -131q-29 -96 -53 -295z" />
    <glyph glyph-name="uniE061" unicode="&#xe061;" horiz-adv-x="1313" 
d="M1043 -93q-113 0 -180.5 120.5t-67.5 343.5q0 77 4 146q4 55 4 112l-1 46q-1 54 -19 54q-33 0 -61.5 -67t-51 -163t-37.5 -190q-7 -46 -18 -97t-33 -88t-60 -37q-91 0 -91 178l1 276q0 60 -9 104t-27 44q-36 0 -70 -74.5t-61.5 -176t-44 -194.5t-16.5 -133
q0 -64 -22.5 -84t-56.5 -20q-71 0 -88 63q-38 139 -38 486q0 195 9 288q4 38 20.5 57t44 25t60.5 6q29 0 56 -4t45 -19.5t18 -50.5q0 -37 -6 -77q-13 -91 -21 -185q110 280 254 280q54 0 84.5 -30.5t44.5 -78t17 -99.5q27 71 64 128.5t85 92.5t108 35t93.5 -33.5t47.5 -89.5
t14 -124q0 -129 -6 -264q-1 -32 -1 -66q0 -303 57 -303q70 0 155 272.5t85 516.5q0 302 -144 437t-385 135q-248 0 -638 -152.5t-652 -152.5q-185 0 -266 88t-81 211q0 110 60.5 178t168.5 68q145 0 197 -155q13 -39 14 -70q0 -17 -11 -27.5t-29 -10.5q-23 0 -38 38
q-16 43 -35 80q-32 65 -98 65q-62 0 -94 -41.5t-32 -115.5q0 -162 244 -162q250 0 628.5 130.5t659.5 130.5q318 0 473 -175.5t155 -488.5q0 -299 -109.5 -617.5t-271.5 -318.5z" />
    <glyph glyph-name="uniE062" unicode="&#xe062;" horiz-adv-x="965" 
d="M694 -73q-140 0 -193 132.5t-53 331.5q0 77 4 154q5 87 5 170q0 54 -21 54q-28 0 -60.5 -57.5t-62.5 -144.5t-54.5 -180t-39 -168.5t-14.5 -108.5q0 -63 -23 -83t-57 -20q-71 0 -88 63q-38 139 -38 486q0 195 9 288q4 38 21 57t44 25t60 6q29 0 56 -4t45 -19.5t18 -50.5
q0 -37 -6 -77q-14 -104 -23 -212q126 395 313 395q59 0 92.5 -33.5t47.5 -89.5t14 -124q0 -129 -6 -275q-2 -49 -2 -98q0 -78 6 -179t50 -101q70 0 155 262.5t85 506.5q0 302 -144 437t-385 135q-248 0 -638 -152.5t-652 -152.5q-185 0 -266 88t-81 211q0 110 60.5 178
t168.5 68q145 0 197 -155q13 -39 14 -70q0 -17 -11 -27.5t-29 -10.5q-23 0 -38 38q-16 43 -35 80q-32 65 -98 65q-62 0 -94 -41.5t-32 -115.5q0 -162 244 -162q250 0 628.5 130.5t659.5 130.5q318 0 473 -175.5t155 -488.5q0 -299 -109.5 -607.5t-271.5 -308.5z" />
    <glyph glyph-name="uniE063" unicode="&#xe063;" horiz-adv-x="766" 
d="M431 403q21 114 21 233q0 100 -14 162q-21 90 -81 90q-34 0 -53 -34.5t-26.5 -82t-7.5 -87.5q0 -100 41 -168q45 -77 120 -113zM293 138q71 0 117 170q-125 46 -189 169q-5 -69 -5 -124q0 -59 6.5 -108t23.5 -78t47 -29zM524 288q-76 -263 -251 -263q-81 0 -134 42
q-147 115 -147 437q0 77 10.5 170t63.5 151q31 34 82 34q29 0 49 -6q52 131 168 131q204 0 204 -333q0 -144 -24 -274q113 1 174 135t61 321q0 302 -144 437t-385 135q-248 0 -638 -152.5t-652 -152.5q-185 0 -266 88t-81 211q0 110 60.5 178t168.5 68q145 0 197 -155
q13 -39 14 -70q0 -17 -11 -27.5t-29 -10.5q-23 0 -38 38q-16 43 -35 80q-32 65 -98 65q-62 0 -94 -41.5t-32 -115.5q0 -162 244 -162q250 0 628.5 130.5t659.5 130.5q318 0 473 -175.5t155 -488.5q0 -249 -97 -401.5t-256 -153.5z" />
    <glyph glyph-name="uniE064" unicode="&#xe064;" horiz-adv-x="866" 
d="M817 302q-124 -184 -342 -230q-62 -53 -140 -53q-53 0 -84.5 29.5t-31.5 85.5q0 54 50 54q22 0 60 -14q52 43 89 170q51 171 51 363q0 28 -8.5 46t-22.5 18q-47 0 -135 -264q-78 -225 -94 -425q-20 -342 -20 -597q0 -63 -23 -83.5t-57 -20.5q-71 0 -87 65
q-42 164 -42 564q0 211 10.5 460t22.5 404q3 40 24.5 59t53.5 25t65 6q29 0 56 -4t45 -20t18 -52q0 -39 -7 -90q-9 -76 -17 -158q111 324 296 324q60 0 103.5 -56.5t43.5 -167.5q0 -89 -13 -188q-27 -198 -100 -340q94 49 162 147q135 201 135 474q0 302 -144 437t-385 135
q-248 0 -638 -152.5t-652 -152.5q-185 0 -266 88t-81 211q0 110 60.5 178t168.5 68q145 0 197 -155q13 -39 14 -70q0 -17 -11 -27.5t-29 -10.5q-23 0 -38 38q-16 43 -35 80q-32 65 -98 65q-62 0 -94 -41.5t-32 -115.5q0 -162 244 -162q250 0 628.5 130.5t659.5 130.5
q318 0 473 -175.5t155 -488.5q0 -310 -158 -541z" />
    <glyph glyph-name="uniE065" unicode="&#xe065;" horiz-adv-x="943" 
d="M199 212q26 0 62.5 76t72 178.5t60 190.5t27.5 120q-22 33 -58 33q-88 0 -144 -181q-51 -162 -51 -353q0 -27 8 -45.5t23 -18.5zM660 -518q29 0 47 44.5t26.5 104t8.5 104.5q0 128 -22 229q-18 81 -65 169l-26 -8q-14 -205 -14 -355t13 -219t32 -69zM636 -655
q-143 0 -197 218q-41 166 -41 484q0 184 3 329q-106 -343 -284 -343q-66 0 -103.5 34.5t-53 88.5t-15.5 110q0 76 11 167.5t35.5 181t66 164t101.5 120t142 45.5q79 0 137 -76q9 37 19 51q33 45 123 45q64 0 90 -18t26 -59q0 -18 -3 -40q-31 -222 -45 -451l-6 -88l30 -45
q87 30 151 110q134 174 134 460q0 302 -144 437t-385 135q-248 0 -638 -152.5t-652 -152.5q-185 0 -266 88t-81 211q0 110 60.5 178t168.5 68q145 0 197 -155q13 -39 14 -70q0 -17 -11 -27.5t-29 -10.5q-23 0 -38 38q-16 43 -35 80q-32 65 -98 65q-62 0 -94 -41.5
t-32 -115.5q0 -162 244 -162q250 0 628.5 130.5t659.5 130.5q318 0 473 -175.5t155 -488.5q0 -328 -156 -524q-78 -99 -172 -153q98 -197 98 -425q0 -396 -188 -396z" />
    <glyph glyph-name="uniE066" unicode="&#xe066;" horiz-adv-x="675" 
d="M388 7q-117 0 -175.5 88.5t-58.5 243.5q0 84 21 207t45 203q-50 14 -93 36q-23 -101 -46 -175q-9 -29 -38 -29q-25 0 -38 18q-8 11 -8 24q0 8 3 18q27 79 45 201q-69 63 -69 153v40q0 54 26 70.5t75 16.5q20 0 41 -3.5t34.5 -15.5t13.5 -37q0 -83 -18 -172
q56 -65 183 -92q73 -15 106 -42q22 -18 22 -62q0 -33 -15 -101q-47 -219 -47 -357q0 -96 35 -96q66 0 161.5 224t95.5 465q0 302 -144 437t-385 135q-248 0 -638 -152.5t-652 -152.5q-185 0 -266 88t-81 211q0 110 60.5 178t168.5 68q145 0 197 -155q13 -39 14 -70
q0 -17 -11 -27.5t-29 -10.5q-23 0 -38 38q-16 43 -35 80q-32 65 -98 65q-62 0 -94 -41.5t-32 -115.5q0 -162 244 -162q250 0 628.5 130.5t659.5 130.5q318 0 473 -175.5t155 -488.5q0 -275 -121 -555.5t-277 -280.5z" />
    <glyph glyph-name="uniE067" unicode="&#xe067;" 
d="M212 -21q38 4 38 60q0 60 -28 125q-57 -51 -57 -107q0 -13 4 -32t13.5 -32.5t25.5 -13.5h4zM450 350q-40 -40 -79 -73q25 -86 25 -173q0 -88 -51 -148.5t-142 -60.5q-64 0 -107.5 44t-43.5 111q0 105 94 181l31 24q-21 41 -46 82q-33 56 -63.5 114t-50.5 116t-20 116
q0 74 30.5 136.5t87 100t134.5 37.5q18 0 40 -3.5t38 -13t16 -28.5q0 -43 -69 -49q-87 -7 -87 -80q0 -66 26.5 -134t62.5 -140q34 -66 63 -137l50 44q74 69 105 183.5t31 233.5q0 302 -144 437t-385 135q-248 0 -638 -152.5t-652 -152.5q-185 0 -266 88t-81 211
q0 110 60.5 178t168.5 68q145 0 197 -155q13 -39 14 -70q0 -17 -11 -27.5t-29 -10.5q-23 0 -38 38q-16 43 -35 80q-32 65 -98 65q-62 0 -94 -41.5t-32 -115.5q0 -162 244 -162q250 0 628.5 130.5t659.5 130.5q318 0 473 -175.5t155 -488.5q0 -124 -41.5 -264t-130.5 -229z
" />
    <glyph glyph-name="uniE068" unicode="&#xe068;" horiz-adv-x="497" 
d="M185 -113q-66 0 -105 67.5t-58 179t-22 209.5t-3 160q0 275 50 838q-135 11 -209 11q-163 0 -219.5 -43.5t-56.5 -108.5q0 -35 18.5 -61t53.5 -26t73 18q14 6 25 6q20 0 28 -17q3 -7 3 -13q0 -16 -16 -32q-42 -42 -113 -42q-59 0 -97.5 25t-58 65t-19.5 86
q0 122 91.5 205.5t307.5 83.5q76 0 202 -18l7 78q6 71 78 84q32 6 65 6q28 0 54 -4.5t42.5 -20.5t16.5 -52q0 -29 -11 -134q293 -56 472 -56q186 0 256.5 50.5t70.5 153.5q0 32 -17 56t-50 24q-32 0 -52 -17t-20 -44q0 -15 -10.5 -23.5t-26.5 -8.5q-15 0 -26 8.5t-11 23.5
q0 58 41.5 96.5t104.5 38.5q55 0 90.5 -23t53.5 -60t18 -80q0 -124 -100.5 -204.5t-321.5 -80.5q-211 0 -484 27q-79 -783 -79 -1101q0 -173 27 -173q42 0 135.5 239.5t129.5 357.5q8 28 38 28q22 0 34 -12.5t12 -29.5q0 -8 -16 -58q-72 -221 -117 -342q-126 -340 -279 -340
z" />
    <glyph glyph-name="uniE069" unicode="&#xe069;" horiz-adv-x="972" 
d="M702 7q-101 0 -161 87q-55 80 -72 216q-19 -61 -49.5 -121t-77 -100.5t-116.5 -40.5q-83 0 -126.5 38.5t-66.5 107.5t-29.5 160.5t-6.5 197.5q0 290 42 347q33 45 113 45q64 0 90.5 -18t26.5 -59q0 -18 -3 -40q-41 -263 -41 -485q0 -69 12 -103.5t48 -34.5
q61 0 125.5 268t64.5 370q0 50 20.5 76t54.5 36t75 10q64 0 90 -18t26 -59q0 -18 -16 -142q-27 -262 -27 -443q0 -61 11 -109.5t37 -48.5q70 0 155 222.5t85 466.5q0 302 -144 437t-385 135q-248 0 -638 -152.5t-652 -152.5q-185 0 -266 88t-81 211q0 110 60.5 178t168.5 68
q145 0 197 -155q13 -39 14 -70q0 -17 -11 -27.5t-29 -10.5q-23 0 -38 38q-16 43 -35 80q-32 65 -98 65q-62 0 -94 -41.5t-32 -115.5q0 -162 244 -162q250 0 628.5 130.5t659.5 130.5q318 0 473 -175.5t155 -488.5q0 -299 -109.5 -567.5t-271.5 -268.5z" />
    <glyph glyph-name="uniE06A" unicode="&#xe06a;" horiz-adv-x="776" 
d="M474 562q59 216 59 355q0 9 -2 20.5t-6 20t-10 8.5q-19 0 -37 -80t-18 -180q0 -77 14 -144zM598 324q-45 0 -83 19q-124 -336 -233 -336q-107 0 -178 181q-41 103 -74 283q-49 259 -49 335q0 32 14.5 56t45 35.5t66.5 11.5q37 0 66 -6t47 -27t20 -65q10 -240 24 -381
t27.5 -200.5t20.5 -59.5q16 0 52 78q32 70 67 175q-76 119 -76 305q0 86 20 162.5t59.5 124.5t96.5 48q54 0 83.5 -39.5t29.5 -105.5q0 -75 -21 -189q-28 -147 -78 -299q24 -15 56 -15q84 0 136.5 112.5t52.5 305.5q0 302 -144 437t-385 135q-248 0 -638 -152.5t-652 -152.5
q-185 0 -266 88t-81 211q0 110 60.5 178t168.5 68q145 0 197 -155q13 -39 14 -70q0 -17 -11 -27.5t-29 -10.5q-23 0 -38 38q-16 43 -35 80q-32 65 -98 65q-62 0 -94 -41.5t-32 -115.5q0 -162 244 -162q250 0 628.5 130.5t659.5 130.5q318 0 473 -175.5t155 -488.5
q0 -252 -77 -385.5t-212 -133.5z" />
    <glyph glyph-name="uniE06B" unicode="&#xe06b;" horiz-adv-x="1223" 
d="M925 513q36 162 36 364q0 9 -2 25.5t-6 30t-10 13.5q-20 0 -38 -70t-18 -170q0 -111 38 -193zM269 -31q-100 0 -159.5 94.5t-85.5 276t-26 442.5q0 74 35 100.5t90 26.5q36 0 66 -6t48 -27t18 -65q0 -224 2.5 -379t14.5 -235.5t39 -80.5q45 0 80 228q27 178 30 350
q1 29 5 62q13 93 129 93q36 0 65 -6q63 -13 67 -92q15 -343 37 -452q18 -89 51 -89q16 0 46 40q36 48 69 141q-24 26 -44 62q-64 117 -64 275q0 86 20 157.5t59.5 114.5t97.5 43q44 0 68.5 -23t34.5 -60.5t10 -81.5q0 -240 -61 -457q18 -6 38 -6q84 0 136.5 112.5
t52.5 305.5q0 302 -144 437t-385 135q-248 0 -638 -152.5t-652 -152.5q-185 0 -266 88t-81 211q0 110 60.5 178t168.5 68q145 0 197 -155q13 -39 14 -70q0 -17 -11 -27.5t-29 -10.5q-23 0 -38 38q-16 43 -35 80q-32 65 -98 65q-62 0 -94 -41.5t-32 -115.5q0 -162 244 -162
q250 0 628.5 130.5t659.5 130.5q318 0 473 -175.5t155 -488.5q0 -252 -77 -385.5t-213 -133.5q-33 0 -63 9q-48 -133 -114 -212q-63 -74 -138 -74q-54 0 -98 28q-85 54 -139 278q-65 -384 -224 -384z" />
    <glyph glyph-name="uniE06C" unicode="&#xe06c;" horiz-adv-x="625" 
d="M368 -53q-130 0 -226 220l-23 52l-120 -212q-16 -27 -29.5 -34t-36.5 -7q-34 0 -34 44q0 21 171 348q-35 110 -61 235q-34 164 -34 217q0 51 27 74q31 26 125 26q36 0 65.5 -14t38.5 -82l17 -118l123 235q17 33 54 33q25 0 48.5 -14.5t23.5 -38.5q0 -12 -218 -404
q67 -387 127 -387q55 0 144 234.5t89 478.5q0 302 -144 437t-385 135q-248 0 -638 -152.5t-652 -152.5q-185 0 -266 88t-81 211q0 110 60.5 178t168.5 68q145 0 197 -155q13 -39 14 -70q0 -17 -11 -27.5t-29 -10.5q-23 0 -38 38q-16 43 -35 80q-32 65 -98 65
q-62 0 -94 -41.5t-32 -115.5q0 -162 244 -162q250 0 628.5 130.5t659.5 130.5q318 0 473 -175.5t155 -488.5q0 -299 -121 -597.5t-247 -298.5z" />
    <glyph glyph-name="uniE06D" unicode="&#xe06d;" horiz-adv-x="879" 
d="M235 -523q158 0 194 341l3 26q-61 14 -110 14q-102 0 -173.5 -64.5t-71.5 -162.5q0 -76 41 -115t117 -39zM245 -647q-121 0 -198 75t-77 191q0 146 104.5 232.5t249.5 86.5q53 0 115 -11q17 192 19 361q-82 -160 -221 -160q-107 0 -173 106t-66 318q0 192 16 320
q11 92 78 113q31 9 72 9q63 0 89.5 -18t26.5 -59q0 -18 -7 -65q-38 -239 -38 -377q0 -211 71 -211q44 0 82 73q70 135 85 361q5 76 14 140q8 56 40.5 91t109.5 35q102 0 102 -73q0 -181 -24 -579q-17 -289 -47 -450q63 -24 133 -54q295 -131 500 -131q133 0 133 110
q0 78 -75 78q-65 0 -77 -54q-6 -26 -35 -26q-24 0 -38 18q-5 7 -5 15q0 10 4 22q33 105 145 105q23 0 48 -6q57 -14 89 -48q44 -48 44 -117q0 -104 -66.5 -174t-183.5 -70q-195 0 -496 164q-75 41 -141 71q-11 -43 -23 -83q-101 -329 -379 -329z" />
    <glyph glyph-name="uniE06E" unicode="&#xe06e;" horiz-adv-x="677" 
d="M39 -534q63 0 124.5 74.5t102 190t40.5 238.5q0 22 -1 43q-89 -70 -165 -139t-123.5 -147t-47.5 -175q0 -37 17.5 -61t52.5 -24zM70 -655q-97 0 -153 56.5t-56 137.5q0 167 111 301q77 92 252 226l72 56q-10 60 -37 99t-84 39q-10 0 -65 -6q-24 0 -24 55q0 41 31 97.5
t68 112.5q72 110 72 142q0 61 -131 124q-22 -101 -46 -175q-9 -29 -38 -29q-25 0 -37 18q-8 12 -8 25q0 8 3 17q26 79 45 201q-70 63 -70 153v40q0 54 26 70.5t75 16.5q21 0 41.5 -3.5t34.5 -15.5t14 -37q0 -83 -18 -172q29 -30 70.5 -49.5t85.5 -35.5t81.5 -34t61 -43
t23.5 -64q0 -30 -28 -72t-66.5 -86l-72.5 -80t-50 -56q129 0 209 -105q45 47 84 102q144 210 144 462q0 302 -144 437t-385 135q-248 0 -638 -152.5t-652 -152.5q-185 0 -266 88t-81 211q0 110 60.5 178t168.5 68q145 0 197 -155q13 -39 14 -70q0 -17 -11 -27.5t-29 -10.5
q-23 0 -38 38q-16 43 -35 80q-32 65 -98 65q-62 0 -94 -41.5t-32 -115.5q0 -162 244 -162q250 0 628.5 130.5t659.5 130.5q318 0 473 -175.5t155 -488.5q0 -289 -165 -524q-50 -73 -113 -134q29 -74 29 -163q0 -110 -35.5 -228.5t-99 -220t-149 -165t-184.5 -63.5z" />
    <glyph glyph-name="uniE06F" unicode="&#xe06f;" horiz-adv-x="933" 
d="M-872 1246q250 0 629 131q178 61 335 94q-6 151 -93 260q-93 117 -285 117q-329 -1 -481 -400q-17 -46 -52 -46q-30 0 -47 42q-24 61 -67 95t-100 35q-36 0 -67.5 -14.5t-51.5 -45t-20 -80.5q0 -41 29.5 -85t95.5 -73.5t175 -29.5zM205 252q26 0 63 70q70 133 133 341
q19 64 22 120q-21 27 -53 27q-90 0 -145 -161q-50 -147 -50 -333q0 -64 30 -64zM663 7q-115 0 -177 112q-29 52 -43 131t-22 187q-107 -364 -297 -364q-67 0 -104 34.5t-52.5 88.5t-15.5 110q0 76 11 163.5t35.5 171t65.5 152t101.5 110t142.5 41.5q71 0 124 -60l4 38
q12 92 79 113q31 9 72 9q63 0 89.5 -18t26.5 -59q0 -18 -3 -40q-5 -33 -16 -154t-18 -246t-7 -212q0 -171 48 -171q70 0 155 222.5t85 466.5q0 302 -144 437t-385 135q-104 0 -233 -27q-22 -160 -144 -311q-37 -45 -68 -45q-14 0 -24.5 11.5t-10.5 28.5q0 22 26 56
q91 120 117 235q-138 -37 -301 -100q-390 -153 -652 -153q-136 0 -225 47t-133.5 121t-44.5 155q0 82 35 135t90 79t115 26q65 0 124 -30t93 -87q166 399 532 400q219 0 348 -141q116 -128 127 -317q120 19 227 19q318 0 473 -175.5t155 -488.5q0 -299 -109.5 -567.5
t-271.5 -268.5z" />
    <glyph glyph-name="uniE070" unicode="&#xe070;" horiz-adv-x="854" 
d="M307 280q36 14 65 54q43 61 66 160t23 213q0 28 -8 46t-23 18q-47 0 -135 -264q-35 -104 -60 -197q23 -27 72 -30zM279 1302q95 26 156 99q80 95 80 207q0 51 -21 88q-19 32 -53 32q-71 0 -110 -131q-30 -101 -52 -295zM128 7q-71 0 -88 65q-36 141 -38.5 292.5
t-2.5 211.5q0 243 21 645q-86 16 -233 68q-21 -21 -45 -40q-188 -150 -382 -150q-89 0 -162 46.5t-73 149.5q0 70 31.5 119t94 84.5t153.5 35.5q76 0 145 -19q92 -26 228 -95q64 96 64 208q0 110 -62 173t-144 63q-160 0 -275 -149q-27 -35 -67 -35q-35 0 -59 50
q-110 231 -305 231q-137 0 -232 -95t-95 -243q0 -278 247 -436q48 -29 48 -59q0 -37 -38 -37q-26 0 -63 20q-323 198 -323 511q0 217 134.5 342t319.5 125q270 0 377 -287q157 150 327 150q132 0 214 -86t84 -232q0 -144 -70 -256q98 -49 166 -70q18 268 88 377
q95 147 276 147q99 0 154.5 -61.5t55.5 -163.5q0 -126 -85 -238q-54 -71 -142 -116q-47 -24 -102 -36q-10 -100 -15.5 -209t-13.5 -204q-10 -117 -17 -225q40 130 90 219q92 166 225 166q61 0 104 -56.5t43 -167.5q0 -235 -81 -400q183 84 249 301q8 28 38 28
q21 0 33.5 -13.5t12.5 -29.5q0 -13 -5 -30q-96 -327 -442 -404q-71 -53 -164 -53q-66 0 -118 56q-1 -7 -1 -83q0 -63 -23 -84t-57 -21zM-640 1179q174 0 334 145q-64 23 -122 41q-76 23 -138 23q-106 0 -156 -33.5t-50 -88.5q0 -35 33.5 -61t98.5 -26z" />
    <glyph glyph-name="uniE071" unicode="&#xe071;" horiz-adv-x="694" 
d="M-1111 1246q250 0 629 131q178 61 335 94q-6 151 -93 260q-93 117 -285 117q-329 -1 -481 -400q-17 -46 -52 -46q-30 0 -47 42q-24 61 -67 95t-100 35q-36 0 -67.5 -14.5t-51.5 -45t-20 -80.5q0 -41 29.5 -85t95.5 -73.5t175 -29.5zM271 67q-156 0 -229 99.5t-73 274.5
q0 194 99 333q108 150 287 150q88 0 134 -50.5t46 -124.5q0 -78 -35 -133q-22 -34 -60 -34q-47 0 -47 22q0 7 8 20q39 57 39 110q0 31 -15.5 50t-38.5 19q-86 0 -132 -146q-38 -119 -38 -231q0 -50 9.5 -104.5t34 -92.5t70.5 -38q97 0 197 117q181 217 181 525
q0 302 -144 437t-385 135q-104 0 -233 -27q-22 -160 -144 -311q-37 -45 -68 -45q-14 0 -24.5 11.5t-10.5 28.5q0 22 26 56q91 120 117 235q-138 -37 -301 -100q-390 -153 -652 -153q-136 0 -225 47t-133.5 121t-44.5 155q0 82 35 135t90 79t115 26q65 0 124 -30t93 -87
q166 399 532 400q219 0 348 -141q116 -128 127 -317q120 19 227 19q318 0 473 -175.5t155 -488.5q0 -351 -197 -590q-145 -186 -337 -186z" />
    <glyph glyph-name="uniE072" unicode="&#xe072;" horiz-adv-x="925" 
d="M210 292q26 0 63 58q75 117 132 286q24 70 26 103q-7 11 -22.5 21t-33.5 10q-63 0 -106.5 -55.5t-66 -149.5t-22.5 -209q0 -64 30 -64zM724 1302q95 26 156 99q80 95 80 207q0 51 -21 88q-19 32 -53 32q-71 0 -110 -131q-30 -101 -52 -295zM637 27q-199 0 -211 382v13
q-37 -104 -83 -176q-87 -133 -215 -133q-66 0 -103.5 34.5t-52.5 88.5t-15 110q0 222 75 374q91 184 281 184q72 0 125 -62q6 83 14 179t13 200q-86 16 -233 68q-21 -21 -45 -40q-188 -150 -382 -150q-89 0 -162 46.5t-73 149.5q0 70 31.5 119t94 84.5t153.5 35.5
q76 0 145 -19q92 -26 228 -95q64 96 64 208q0 110 -62 173t-144 63q-160 0 -275 -149q-27 -35 -67 -35q-35 0 -61 49q-108 232 -303 232q-137 0 -232 -95t-95 -243q0 -278 247 -436q48 -29 48 -59q0 -37 -38 -37q-26 0 -63 20q-323 198 -323 511q0 217 134.5 342t319.5 125
q270 0 377 -287q157 150 327 150q132 0 214 -86t84 -232q0 -144 -70 -256q98 -49 166 -70q18 268 88 377q95 147 276 147q99 0 154.5 -61.5t55.5 -163.5q0 -126 -85 -238q-54 -71 -142 -116q-47 -24 -102 -36q-9 -93 -35 -381t-26 -521q0 -151 27 -151q47 0 132 186
q67 146 112 291q9 28 39 28q18 0 32 -11t14 -31q0 -10 -12 -45q-55 -166 -102 -272q-125 -283 -259 -283zM-195 1179q174 0 334 145q-64 23 -122 41q-76 23 -138 23q-106 0 -156 -33.5t-50 -88.5q0 -35 33.5 -61t98.5 -26z" />
    <glyph glyph-name="uniE073" unicode="&#xe073;" horiz-adv-x="675" 
d="M-1124 1246q250 0 629 131q178 61 335 94q-6 151 -93 260q-93 117 -285 117q-329 -1 -481 -400q-17 -46 -52 -46q-30 0 -47 42q-24 61 -67 95t-100 35q-36 0 -67.5 -14.5t-51.5 -45t-20 -80.5q0 -41 29.5 -85t95.5 -73.5t175 -29.5zM200 486q103 8 162 74q56 63 56 154
q0 89 -51 89q-77 0 -124 -125q-37 -97 -43 -192zM258 67q-156 0 -235 95q-73 87 -73 219q0 91 25 186.5t74 176t121 130.5t166 50q172 0 172 -193q0 -140 -83 -230.5t-229 -94.5q0 -90 32 -152.5t89 -62.5q97 0 196 118q182 216 182 524q0 302 -144 437t-385 135
q-104 0 -233 -27q-11 -80 -41 -139q-75 -145 -132 -145q-14 0 -24.5 11.5t-10.5 28.5q0 22 26 56q59 73 78 163q-138 -37 -301 -100q-390 -153 -652 -153q-136 0 -225 47t-133.5 121t-44.5 155q0 82 35 135t90 79t115 26q65 0 124 -30t93 -87q166 399 532 400
q219 0 348 -141q116 -128 127 -317q120 19 227 19q318 0 473 -175.5t155 -488.5q0 -351 -195 -592q-150 -184 -339 -184z" />
    <glyph glyph-name="uniE074" unicode="&#xe074;" horiz-adv-x="508" 
d="M236 -410q25 0 47.5 45.5t22.5 99.5q0 128 -22 229q-19 81 -65 169l-26 -8q-14 -205 -14 -355q0 -180 57 -180zM287 1302q95 26 156 99q80 95 80 207q0 51 -21 88q-19 32 -53 32q-71 0 -110 -131q-30 -101 -52 -295zM-632 1179q174 0 334 145q-64 23 -122 41
q-76 23 -138 23q-106 0 -156 -33.5t-50 -88.5q0 -35 33.5 -61t98.5 -26zM221 -519q-56 0 -103.5 29t-82.5 97.5t-44 183.5q-9 104 -9 252q0 258 27 783l19 395q-86 16 -233 68q-21 -21 -45 -40q-188 -150 -382 -150q-89 0 -162 46.5t-73 149.5q0 70 31.5 119t94 84.5
t153.5 35.5q76 0 145 -19q92 -26 228 -95q64 96 64 208q0 110 -62 173t-144 63q-160 0 -275 -149q-27 -35 -67 -35q-35 0 -61 49q-108 232 -303 232q-137 0 -232 -95t-95 -243q0 -278 247 -436q48 -29 48 -59q0 -37 -38 -37q-26 0 -63 20q-323 198 -323 511q0 217 134.5 342
t319.5 125q270 0 377 -287q157 150 327 150q132 0 214 -86t84 -232q0 -144 -70 -256q98 -49 166 -70q18 268 88 377q95 147 276 147q99 0 154.5 -61.5t55.5 -163.5q0 -126 -85 -238q-54 -71 -142 -116q-47 -24 -102 -36q-10 -100 -18 -215t-19 -250l-36 -444l29 -44
q106 36 171 136q60 92 103 241q8 28 38 28q25 0 35.5 -14t10.5 -28q0 -9 -28 -95q-38 -114 -107 -210q-73 -103 -167 -156q97 -195 97 -425q0 -135 -47.5 -197.5t-118.5 -62.5z" />
    <glyph glyph-name="uniE075" unicode="&#xe075;" horiz-adv-x="915" 
d="M-891 1246q250 0 629 131q178 61 335 94q-6 151 -93 260q-93 117 -285 117q-329 -1 -481 -400q-17 -46 -52 -46q-30 0 -47 42q-24 61 -67 95t-100 35q-36 0 -67.5 -14.5t-51.5 -45t-20 -80.5q0 -41 29.5 -85t95.5 -73.5t175 -29.5zM206 -433q94 0 145 135q38 100 51 245
q-74 -45 -110 -69q-64 -44 -104 -102t-40 -145q0 -31 18.5 -47.5t39.5 -16.5zM208 324q38 0 75 55.5t67 132t49 146.5t22 103q-8 12 -24 22t-34 10q-88 0 -139 -121q-46 -108 -46 -247q0 -101 30 -101zM216 -557q-47 0 -87 21t-64 60t-24 95q0 159 102 261q47 47 109 86
t158 93q8 143 17 404q-94 -301 -294 -301q-80 0 -120 68t-40 215q0 129 38.5 237t111.5 171t175 63q72 0 121 -51l18 -20q1 60 9 114.5t40.5 89.5t108.5 35q103 0 103 -80q0 -21 -2 -81q-14 -474 -31 -687q67 60 117 127q146 208 146 470q0 302 -144 437t-385 135
q-104 0 -233 -27q-22 -160 -144 -311q-37 -45 -68 -45q-14 0 -24.5 11.5t-10.5 28.5q0 22 26 56q91 120 117 235q-138 -37 -301 -100q-390 -153 -652 -153q-136 0 -225 47t-133.5 121t-44.5 155q0 82 35 135t90 79t115 26q65 0 124 -30t93 -87q166 399 532 400
q219 0 348 -141q116 -128 127 -317q120 19 227 19q318 0 473 -175.5t155 -488.5q0 -298 -169 -537q-79 -108 -203 -202q-16 -153 -39 -257q-88 -404 -398 -404z" />
    <glyph glyph-name="uniE076" unicode="&#xe076;" horiz-adv-x="971" 
d="M274 1302q95 26 156 99q80 95 80 207q0 51 -21 88q-19 32 -53 32q-71 0 -110 -131q-30 -101 -52 -295zM-645 1179q174 0 334 145q-64 23 -122 41q-76 23 -138 23q-106 0 -156 -33.5t-50 -88.5q0 -35 33.5 -61t98.5 -26zM662 -13q-109 0 -163 126q-46 109 -46 278
q0 75 4 183.5t4 220.5q0 54 -20 54q-29 0 -61 -60.5t-62.5 -151.5t-55 -188t-39 -175.5t-14.5 -109.5q0 -61 -23 -81t-57 -20q-70 0 -87 63q-42 159 -42 552q0 267 15 543q-86 16 -233 68q-21 -21 -45 -40q-188 -150 -382 -150q-89 0 -162 46.5t-73 149.5q0 70 31.5 119
t94 84.5t153.5 35.5q76 0 145 -19q92 -26 228 -95q64 96 64 208q0 110 -62 173t-144 63q-160 0 -275 -149q-27 -35 -67 -35q-35 0 -59 50q-110 231 -305 231q-137 0 -232 -95t-95 -243q0 -278 248 -435q47 -30 47 -60q0 -37 -38 -37q-26 0 -62 22q-324 196 -324 509
q0 217 134.5 342t319.5 125q270 0 377 -287q157 150 327 150q132 0 214.5 -86.5t82.5 -235.5q0 -142 -69 -252q98 -49 166 -70q18 268 88 377q95 147 276 147q99 0 154.5 -61.5t55.5 -163.5q0 -126 -85 -238q-54 -71 -142 -116q-47 -24 -102 -36q-29 -302 -45 -638
q45 154 92 254q100 211 228 211q154 0 154 -247q0 -129 -6 -318q-5 -157 -5 -250q0 -105 23 -105q24 0 57 45q62 83 128 248q53 135 80 224q8 28 38 28q25 0 38 -17q8 -11 8 -25q0 -8 -3 -17q-110 -348 -201 -490q-85 -133 -189 -133z" />
    <glyph glyph-name="uniE077" unicode="&#xe077;" horiz-adv-x="518" 
d="M-1287 1246q250 0 629 131q178 61 335 94q-6 151 -93 260q-93 117 -285 117q-329 -1 -481 -400q-17 -46 -52 -46q-30 0 -47 42q-24 61 -67 95t-100 35q-36 0 -67.5 -14.5t-51.5 -45t-20 -80.5q0 -41 29.5 -85t95.5 -73.5t175 -29.5zM140 930q-25 0 -48.5 5t-39 23.5
t-15.5 60.5q0 51 17 77t45 34.5t62 8.5q25 0 48.5 -5t39 -23.5t15.5 -60.5q0 -120 -124 -120zM230 47q-229 0 -231 469l-1 161q0 81 30 122q33 45 123 45q64 0 90 -18t26 -59q0 -18 -3 -40q-6 -42 -13 -161.5t-7 -263.5q0 -69 6.5 -93.5t22.5 -24.5q68 0 163.5 184t95.5 465
q0 302 -144 437t-385 135q-104 0 -233 -27q-22 -160 -144 -311q-37 -45 -68 -45q-14 0 -24.5 11.5t-10.5 28.5q0 22 26 56q91 120 117 235q-138 -37 -301 -100q-390 -153 -652 -153q-136 0 -225 47t-133.5 121t-44.5 155q0 82 35 135t90 79t115 26q65 0 124 -30t93 -87
q166 399 532 400q219 0 348 -141q116 -128 127 -317q120 19 227 19q318 0 473 -175.5t155 -488.5q0 -326 -131 -561t-268 -235z" />
    <glyph glyph-name="uniE078" unicode="&#xe078;" horiz-adv-x="498" 
d="M-213 -433q158 0 196 380q-58 -34 -110 -69q-64 -44 -103.5 -102t-39.5 -145q0 -31 18.5 -47.5t38.5 -16.5zM138 951q-25 0 -48.5 4.5t-39 23.5t-15.5 60q0 52 17 77.5t45 34t62 8.5q25 0 48.5 -4.5t39 -23.5t15.5 -60q0 -120 -124 -120zM-721 1848q-329 -1 -481 -400
q-17 -46 -52 -46q-30 0 -47 42q-24 61 -67 95t-100 35q-36 0 -67.5 -14.5t-51.5 -45t-20 -80.5q0 -41 29.5 -85t95.5 -73.5t175 -29.5q250 0 629 131q178 61 335 94q-6 151 -93 260q-93 117 -285 117zM-17 1405q-104 0 -233 -27q-22 -160 -144 -311q-37 -45 -68 -45
q-14 0 -24.5 11.5t-10.5 28.5q0 22 26 56q91 120 117 235q-138 -37 -301 -100q-390 -153 -652 -153q-136 0 -225 47t-133.5 121t-44.5 155q0 82 35 135t90 79t115 26q65 0 124 -30t93 -87q166 399 532 400q219 0 348 -141q116 -128 127 -317q120 19 227 19q318 0 473 -175.5
t155 -488.5q0 -300 -169 -533q-80 -112 -206 -206q-31 -306 -111 -461q-102 -200 -326 -200q-78 0 -126.5 46t-48.5 130q0 160 103 261q47 47 108 85q65 41 159 94q7 124 7 285q0 42 -1 76q-1 41 -1 85q0 162 10 233q8 56 40.5 91t108.5 35q61 0 86 -26q15 -15 15 -52
q-3 -232 -3 -292q0 -128 -9 -261q19 17 35 34q232 236 232 566q0 302 -144 437t-385 135z" />
    <glyph glyph-name="uniE079" unicode="&#xe079;" horiz-adv-x="739" 
d="M277 1302q95 26 156 99q80 95 80 207q0 51 -21 88q-19 32 -53 32q-71 0 -110 -131q-30 -101 -52 -295zM-642 1179q174 0 334 145q-64 23 -122 41q-76 23 -138 23q-106 0 -156 -33.5t-50 -88.5q0 -35 33.5 -61t98.5 -26zM107 -42q-51 0 -68 65q-36 140 -38.5 312t-2.5 241
q0 274 20 645q-86 16 -233 68q-21 -21 -45 -40q-188 -150 -382 -150q-89 0 -162 46.5t-73 149.5q0 70 31.5 119t94 84.5t153.5 35.5q76 0 145 -19q92 -26 228 -95q64 96 64 208q0 110 -62 173t-144 63q-160 0 -275 -149q-27 -35 -67 -35q-35 0 -59 50q-110 231 -305 231
q-137 0 -232 -95t-95 -243q0 -278 248 -435q47 -30 47 -60q0 -37 -38 -37q-26 0 -62 22q-324 196 -324 509q0 217 134.5 342t319.5 125q270 0 377 -287q157 150 327 150q132 0 214.5 -86.5t82.5 -235.5q0 -142 -69 -252q98 -49 166 -70q18 268 88 377q95 147 276 147
q99 0 154.5 -61.5t55.5 -163.5q0 -126 -85 -238q-54 -71 -142 -116q-47 -24 -102 -36q-22 -222 -42 -588q135 96 238 306q16 33 53 33q26 0 49 -14.5t23 -38.5q0 -63 -110 -184q-86 -95 -147 -140q13 -60 47 -126t73.5 -113t67.5 -47q122 0 219 336q8 28 38 28q25 0 38 -17
q8 -11 8 -25q0 -13 -53 -167q-36 -105 -98 -194q-75 -109 -157 -109q-103 0 -201 104q-86 90 -97 159q-5 -123 -17 -292.5t-93 -169.5z" />
    <glyph glyph-name="uniE07A" unicode="&#xe07a;" horiz-adv-x="498" 
d="M281 1302q95 26 156 99q80 95 80 207q0 51 -21 88q-19 32 -53 32q-71 0 -110 -131q-30 -101 -52 -295zM221 47q-204 0 -220 332q-3 68 -3 122q0 277 24 720q-86 16 -233 68q-21 -21 -45 -40q-188 -150 -382 -150q-89 0 -162 46.5t-73 149.5q0 70 31.5 119t94 84.5
t153.5 35.5q76 0 145 -19q92 -26 228 -95q64 96 64 208q0 110 -62 173t-144 63q-160 0 -275 -149q-27 -35 -67 -35q-35 0 -59 50q-110 231 -305 231q-137 0 -232 -95t-95 -243q0 -278 248 -435q47 -30 47 -60q0 -37 -38 -37q-26 0 -62 22q-324 196 -324 509q0 217 134.5 342
t319.5 125q270 0 377 -287q157 150 327 150q132 0 214.5 -86.5t82.5 -235.5q0 -142 -69 -252q98 -49 166 -70q18 268 88 377q95 147 276 147q99 0 154.5 -61.5t55.5 -163.5q0 -126 -85 -238q-54 -71 -142 -116q-47 -24 -102 -36q-10 -100 -15.5 -209t-17 -302t-11.5 -324
q0 -198 26 -198q55 0 179 285q42 97 66 172q9 28 38 28q25 0 35.5 -14t10.5 -28q0 -16 -44 -134q-13 -36 -27 -69q-160 -377 -291 -377zM-638 1179q174 0 334 145q-64 23 -122 41q-76 23 -138 23q-106 0 -156 -33.5t-50 -88.5q0 -35 33.5 -61t98.5 -26z" />
    <glyph glyph-name="uniE07B" unicode="&#xe07b;" horiz-adv-x="1313" 
d="M-863 1246q250 0 687 131q144 43 277 71q0 166 -93 283t-285 117q-329 -1 -480 -400q-18 -46 -53 -46q-30 0 -48 42q-12 30 -25 56q-32 65 -118 65q-62 0 -104 -41.5t-42 -115.5q0 -162 284 -162zM125 7q-71 0 -88 63q-38 139 -38 486q0 195 9 288q4 38 20.5 57t44 25
t60.5 6q29 0 56 -4t45 -19.5t18 -50.5q0 -37 -5 -77q-12 -89 -21 -181q18 44 38 86q94 190 215 190q134 0 146 -208q27 71 64 128.5t85 92.5t108 35q155 0 155 -247q0 -17 -5 -76q-18 -188 -18 -278q0 -139 34 -139q92 0 185.5 215t93.5 434q0 302 -196.5 437t-533.5 135
q-178 0 -407 -53q-28 -146 -140 -285q-37 -45 -68 -45q-13 0 -24 11.5t-11 28.5q0 22 26 56q79 105 110 207q-112 -31 -235 -72q-449 -153 -711 -153q-185 0 -286 88t-101 211q0 110 70.5 178t178.5 68q136 0 192 -99q166 399 532 400q220 0 348 -141q122 -134 128 -337
q213 39 396 39q414 0 621.5 -175.5t207.5 -488.5q0 -281 -123 -538.5t-296 -257.5q-87 0 -141 62q-69 79 -69 262q0 77 4 146q3 44 3 158q-1 54 -19 54q-33 0 -61.5 -67t-51 -163t-37.5 -190q-7 -46 -18 -97t-33 -88t-60 -37q-91 0 -91 276l1 178q0 60 -9 104t-27 44
q-36 0 -70 -74.5t-61.5 -176t-44 -194.5t-16.5 -133q0 -64 -22.5 -84t-56.5 -20z" />
    <glyph glyph-name="uniE07C" unicode="&#xe07c;" horiz-adv-x="965" 
d="M-840 1246q250 0 629 131q178 61 335 94q-6 151 -93 260q-93 117 -285 117q-329 -1 -481 -400q-17 -46 -52 -46q-30 0 -47 42q-24 61 -67 95t-100 35q-36 0 -67.5 -14.5t-51.5 -45t-20 -80.5q0 -41 29.5 -85t95.5 -73.5t175 -29.5zM658 -93q-116 0 -163 104.5t-47 299.5
q0 78 4 120q5 48 5 124q0 54 -21 54q-36 0 -76 -62t-75.5 -148.5t-57.5 -167t-22 -121.5q0 -63 -23 -83t-57 -20q-71 0 -88 63q-38 139 -38 486q0 195 9 288q4 38 21 57t44 25t60 6q29 0 56 -4t45 -19.5t18 -50.5q0 -37 -5 -77q-20 -149 -30 -304q128 327 319 327
q154 0 154 -247q0 -129 -6 -232q-5 -95 -5 -189q0 -92 23 -92q83 0 180 236.5t97 552.5q0 302 -144 437t-385 135q-104 0 -233 -27q-22 -160 -144 -311q-37 -45 -68 -45q-14 0 -24.5 11.5t-10.5 28.5q0 22 26 56q91 120 117 235q-138 -37 -301 -100q-390 -153 -652 -153
q-136 0 -225 47t-133.5 121t-44.5 155q0 82 35 135t90 79t115 26q65 0 124 -30t93 -87q166 399 532 400q219 0 348 -141q116 -128 127 -317q120 19 227 19q318 0 473 -175.5t155 -488.5q0 -337 -127.5 -636.5t-290.5 -299.5z" />
    <glyph glyph-name="uniE07D" unicode="&#xe07d;" horiz-adv-x="762" 
d="M426 399q23 102 23 210q0 100 -14 161q-21 90 -81 90q-34 0 -53 -34.5t-26.5 -82t-7.5 -87.5q0 -196 159 -257zM290 178q66 0 111 129q-123 39 -184 151q-4 -51 -4 -93q0 -51 6.5 -93.5t23.5 -68t47 -25.5zM-457 1848q-329 -1 -481 -400q-17 -46 -52 -46q-30 0 -47 42
q-24 61 -67 95t-100 35q-36 0 -67.5 -14.5t-51.5 -45t-20 -80.5q0 -41 29.5 -85t95.5 -73.5t175 -29.5q250 0 629 131q178 61 335 94q-6 151 -93 260q-93 117 -285 117zM247 1405q-104 0 -233 -27q-22 -160 -144 -311q-37 -45 -68 -45q-14 0 -24.5 11.5t-10.5 28.5
q0 22 26 56q91 120 117 235q-138 -37 -301 -100q-390 -153 -652 -153q-136 0 -225 47t-133.5 121t-44.5 155q0 82 35 135t90 79t115 26q65 0 124 -30t93 -87q166 399 532 400q219 0 348 -141q116 -128 127 -317q120 19 227 19q318 0 473 -175.5t155 -488.5
q0 -242 -91.5 -398t-267.5 -157q-79 -207 -244 -207q-81 0 -134 36q-147 100 -147 379q0 66 10.5 147t63.5 130q31 30 82 30q23 0 40 -3q50 156 177 156q204 0 204 -333q0 -138 -25 -246q100 0 167.5 126t67.5 330q0 302 -144 437t-385 135z" />
    </font>
</defs>
</svg>
